{"glyphs":{"0":{"ha":694,"x_min":0,"x_max":0,"o":""},"1":{"ha":694,"x_min":0,"x_max":0,"o":""},"2":{"ha":694,"x_min":0,"x_max":0,"o":""},"3":{"ha":694,"x_min":0,"x_max":0,"o":""},"4":{"ha":694,"x_min":0,"x_max":0,"o":""},"5":{"ha":694,"x_min":0,"x_max":0,"o":""},"6":{"ha":694,"x_min":0,"x_max":0,"o":""},"7":{"ha":694,"x_min":0,"x_max":0,"o":""},"8":{"ha":694,"x_min":0,"x_max":0,"o":""},"9":{"ha":694,"x_min":0,"x_max":0,"o":""}," ":{"ha":694,"x_min":0,"x_max":0,"o":""},"!":{"ha":694,"x_min":0,"x_max":0,"o":""},"\"":{"ha":694,"x_min":0,"x_max":0,"o":""},"#":{"ha":694,"x_min":0,"x_max":0,"o":""},"$":{"ha":694,"x_min":0,"x_max":0,"o":""},"%":{"ha":694,"x_min":0,"x_max":0,"o":""},"&":{"ha":694,"x_min":0,"x_max":0,"o":""},"'":{"ha":694,"x_min":0,"x_max":0,"o":""},"(":{"ha":694,"x_min":0,"x_max":0,"o":""},")":{"ha":694,"x_min":0,"x_max":0,"o":""},"*":{"ha":694,"x_min":0,"x_max":0,"o":""},"+":{"ha":694,"x_min":0,"x_max":0,"o":""},",":{"ha":694,"x_min":0,"x_max":0,"o":""},"-":{"ha":694,"x_min":0,"x_max":0,"o":""},".":{"ha":694,"x_min":0,"x_max":0,"o":""},"/":{"ha":694,"x_min":0,"x_max":0,"o":""},":":{"ha":694,"x_min":0,"x_max":0,"o":""},";":{"ha":694,"x_min":0,"x_max":0,"o":""},"<":{"ha":694,"x_min":0,"x_max":0,"o":""},"=":{"ha":694,"x_min":0,"x_max":0,"o":""},">":{"ha":694,"x_min":0,"x_max":0,"o":""},"?":{"ha":694,"x_min":0,"x_max":0,"o":""},"@":{"ha":694,"x_min":0,"x_max":0,"o":""},"A":{"ha":694,"x_min":0,"x_max":0,"o":""},"B":{"ha":694,"x_min":0,"x_max":0,"o":""},"C":{"ha":694,"x_min":0,"x_max":0,"o":""},"D":{"ha":694,"x_min":0,"x_max":0,"o":""},"E":{"ha":694,"x_min":0,"x_max":0,"o":""},"F":{"ha":694,"x_min":0,"x_max":0,"o":""},"G":{"ha":694,"x_min":0,"x_max":0,"o":""},"H":{"ha":694,"x_min":0,"x_max":0,"o":""},"I":{"ha":694,"x_min":0,"x_max":0,"o":""},"J":{"ha":694,"x_min":0,"x_max":0,"o":""},"K":{"ha":694,"x_min":0,"x_max":0,"o":""},"L":{"ha":694,"x_min":0,"x_max":0,"o":""},"M":{"ha":694,"x_min":0,"x_max":0,"o":""},"N":{"ha":694,"x_min":0,"x_max":0,"o":""},"O":{"ha":694,"x_min":0,"x_max":0,"o":""},"P":{"ha":694,"x_min":0,"x_max":0,"o":""},"Q":{"ha":694,"x_min":0,"x_max":0,"o":""},"R":{"ha":694,"x_min":0,"x_max":0,"o":""},"S":{"ha":694,"x_min":0,"x_max":0,"o":""},"T":{"ha":694,"x_min":0,"x_max":0,"o":""},"U":{"ha":694,"x_min":0,"x_max":0,"o":""},"V":{"ha":694,"x_min":0,"x_max":0,"o":""},"W":{"ha":694,"x_min":0,"x_max":0,"o":""},"X":{"ha":694,"x_min":0,"x_max":0,"o":""},"Y":{"ha":694,"x_min":0,"x_max":0,"o":""},"Z":{"ha":694,"x_min":0,"x_max":0,"o":""},"[":{"ha":694,"x_min":0,"x_max":0,"o":""},"\\":{"ha":694,"x_min":0,"x_max":0,"o":""},"]":{"ha":694,"x_min":0,"x_max":0,"o":""},"^":{"ha":694,"x_min":0,"x_max":0,"o":""},"_":{"ha":694,"x_min":0,"x_max":0,"o":""},"`":{"ha":694,"x_min":0,"x_max":0,"o":""},"a":{"ha":694,"x_min":0,"x_max":0,"o":""},"b":{"ha":694,"x_min":0,"x_max":0,"o":""},"c":{"ha":694,"x_min":0,"x_max":0,"o":""},"d":{"ha":694,"x_min":0,"x_max":0,"o":""},"e":{"ha":694,"x_min":0,"x_max":0,"o":""},"f":{"ha":694,"x_min":0,"x_max":0,"o":""},"g":{"ha":694,"x_min":0,"x_max":0,"o":""},"h":{"ha":694,"x_min":0,"x_max":0,"o":""},"i":{"ha":694,"x_min":0,"x_max":0,"o":""},"j":{"ha":694,"x_min":0,"x_max":0,"o":""},"k":{"ha":694,"x_min":0,"x_max":0,"o":""},"l":{"ha":694,"x_min":0,"x_max":0,"o":""},"m":{"ha":694,"x_min":0,"x_max":0,"o":""},"n":{"ha":694,"x_min":0,"x_max":0,"o":""},"o":{"ha":694,"x_min":0,"x_max":0,"o":""},"p":{"ha":694,"x_min":0,"x_max":0,"o":""},"q":{"ha":694,"x_min":0,"x_max":0,"o":""},"r":{"ha":694,"x_min":0,"x_max":0,"o":""},"s":{"ha":694,"x_min":0,"x_max":0,"o":""},"t":{"ha":694,"x_min":0,"x_max":0,"o":""},"u":{"ha":694,"x_min":0,"x_max":0,"o":""},"v":{"ha":694,"x_min":0,"x_max":0,"o":""},"w":{"ha":694,"x_min":0,"x_max":0,"o":""},"x":{"ha":694,"x_min":0,"x_max":0,"o":""},"y":{"ha":694,"x_min":0,"x_max":0,"o":""},"z":{"ha":694,"x_min":0,"x_max":0,"o":""},"{":{"ha":694,"x_min":0,"x_max":0,"o":""},"|":{"ha":694,"x_min":0,"x_max":0,"o":""},"}":{"ha":694,"x_min":0,"x_max":0,"o":""},"~":{"ha":694,"x_min":0,"x_max":0,"o":""}," ":{"ha":694,"x_min":0,"x_max":0,"o":""},"¡":{"ha":694,"x_min":0,"x_max":0,"o":""},"¢":{"ha":694,"x_min":0,"x_max":0,"o":""},"£":{"ha":694,"x_min":0,"x_max":0,"o":""},"¤":{"ha":694,"x_min":0,"x_max":0,"o":""},"¥":{"ha":694,"x_min":0,"x_max":0,"o":""},"¦":{"ha":694,"x_min":0,"x_max":0,"o":""},"§":{"ha":1389,"x_min":0,"x_max":0,"o":""},"¨":{"ha":1389,"x_min":0,"x_max":0,"o":""},"©":{"ha":694,"x_min":0,"x_max":0,"o":""},"ª":{"ha":694,"x_min":0,"x_max":0,"o":""},"«":{"ha":694,"x_min":0,"x_max":0,"o":""},"¬":{"ha":694,"x_min":0,"x_max":0,"o":""},"­":{"ha":694,"x_min":0,"x_max":0,"o":""},"®":{"ha":694,"x_min":0,"x_max":0,"o":""},"¯":{"ha":694,"x_min":0,"x_max":0,"o":""},"°":{"ha":1389,"x_min":0,"x_max":0,"o":""},"±":{"ha":1389,"x_min":0,"x_max":0,"o":""},"²":{"ha":694,"x_min":0,"x_max":0,"o":""},"³":{"ha":694,"x_min":0,"x_max":0,"o":""},"´":{"ha":1389,"x_min":0,"x_max":0,"o":""},"µ":{"ha":694,"x_min":0,"x_max":0,"o":""},"¶":{"ha":1389,"x_min":0,"x_max":0,"o":""},"·":{"ha":694,"x_min":0,"x_max":0,"o":""},"¸":{"ha":694,"x_min":0,"x_max":0,"o":""},"¹":{"ha":694,"x_min":0,"x_max":0,"o":""},"º":{"ha":694,"x_min":0,"x_max":0,"o":""},"»":{"ha":694,"x_min":0,"x_max":0,"o":""},"¼":{"ha":694,"x_min":0,"x_max":0,"o":""},"½":{"ha":694,"x_min":0,"x_max":0,"o":""},"¾":{"ha":694,"x_min":0,"x_max":0,"o":""},"¿":{"ha":694,"x_min":0,"x_max":0,"o":""},"À":{"ha":694,"x_min":0,"x_max":0,"o":""},"Á":{"ha":694,"x_min":0,"x_max":0,"o":""},"Â":{"ha":694,"x_min":0,"x_max":0,"o":""},"Ã":{"ha":694,"x_min":0,"x_max":0,"o":""},"Ä":{"ha":694,"x_min":0,"x_max":0,"o":""},"Å":{"ha":694,"x_min":0,"x_max":0,"o":""},"Æ":{"ha":694,"x_min":0,"x_max":0,"o":""},"Ç":{"ha":694,"x_min":0,"x_max":0,"o":""},"È":{"ha":694,"x_min":0,"x_max":0,"o":""},"É":{"ha":694,"x_min":0,"x_max":0,"o":""},"Ê":{"ha":694,"x_min":0,"x_max":0,"o":""},"Ë":{"ha":694,"x_min":0,"x_max":0,"o":""},"Ì":{"ha":694,"x_min":0,"x_max":0,"o":""},"Í":{"ha":694,"x_min":0,"x_max":0,"o":""},"Î":{"ha":694,"x_min":0,"x_max":0,"o":""},"Ï":{"ha":694,"x_min":0,"x_max":0,"o":""},"Ð":{"ha":694,"x_min":0,"x_max":0,"o":""},"Ñ":{"ha":694,"x_min":0,"x_max":0,"o":""},"Ò":{"ha":694,"x_min":0,"x_max":0,"o":""},"Ó":{"ha":694,"x_min":0,"x_max":0,"o":""},"Ô":{"ha":694,"x_min":0,"x_max":0,"o":""},"Õ":{"ha":694,"x_min":0,"x_max":0,"o":""},"Ö":{"ha":694,"x_min":0,"x_max":0,"o":""},"×":{"ha":1389,"x_min":0,"x_max":0,"o":""},"Ø":{"ha":694,"x_min":0,"x_max":0,"o":""},"Ù":{"ha":694,"x_min":0,"x_max":0,"o":""},"Ú":{"ha":694,"x_min":0,"x_max":0,"o":""},"Û":{"ha":694,"x_min":0,"x_max":0,"o":""},"Ü":{"ha":694,"x_min":0,"x_max":0,"o":""},"Ý":{"ha":694,"x_min":0,"x_max":0,"o":""},"Þ":{"ha":694,"x_min":0,"x_max":0,"o":""},"ß":{"ha":694,"x_min":0,"x_max":0,"o":""},"à":{"ha":694,"x_min":0,"x_max":0,"o":""},"á":{"ha":694,"x_min":0,"x_max":0,"o":""},"â":{"ha":694,"x_min":0,"x_max":0,"o":""},"ã":{"ha":694,"x_min":0,"x_max":0,"o":""},"ä":{"ha":694,"x_min":0,"x_max":0,"o":""},"å":{"ha":694,"x_min":0,"x_max":0,"o":""},"æ":{"ha":694,"x_min":0,"x_max":0,"o":""},"ç":{"ha":694,"x_min":0,"x_max":0,"o":""},"è":{"ha":694,"x_min":0,"x_max":0,"o":""},"é":{"ha":694,"x_min":0,"x_max":0,"o":""},"ê":{"ha":694,"x_min":0,"x_max":0,"o":""},"ë":{"ha":694,"x_min":0,"x_max":0,"o":""},"ì":{"ha":694,"x_min":0,"x_max":0,"o":""},"í":{"ha":694,"x_min":0,"x_max":0,"o":""},"î":{"ha":694,"x_min":0,"x_max":0,"o":""},"ï":{"ha":694,"x_min":0,"x_max":0,"o":""},"ð":{"ha":694,"x_min":0,"x_max":0,"o":""},"ñ":{"ha":694,"x_min":0,"x_max":0,"o":""},"ò":{"ha":694,"x_min":0,"x_max":0,"o":""},"ó":{"ha":694,"x_min":0,"x_max":0,"o":""},"ô":{"ha":694,"x_min":0,"x_max":0,"o":""},"õ":{"ha":694,"x_min":0,"x_max":0,"o":""},"ö":{"ha":694,"x_min":0,"x_max":0,"o":""},"÷":{"ha":1389,"x_min":0,"x_max":0,"o":""},"ø":{"ha":694,"x_min":0,"x_max":0,"o":""},"ù":{"ha":694,"x_min":0,"x_max":0,"o":""},"ú":{"ha":694,"x_min":0,"x_max":0,"o":""},"û":{"ha":694,"x_min":0,"x_max":0,"o":""},"ü":{"ha":694,"x_min":0,"x_max":0,"o":""},"ý":{"ha":694,"x_min":0,"x_max":0,"o":""},"þ":{"ha":694,"x_min":0,"x_max":0,"o":""},"ÿ":{"ha":694,"x_min":0,"x_max":0,"o":""},"Ā":{"ha":694,"x_min":0,"x_max":0,"o":""},"ā":{"ha":694,"x_min":0,"x_max":0,"o":""},"Ă":{"ha":694,"x_min":0,"x_max":0,"o":""},"ă":{"ha":694,"x_min":0,"x_max":0,"o":""},"Ą":{"ha":694,"x_min":0,"x_max":0,"o":""},"ą":{"ha":694,"x_min":0,"x_max":0,"o":""},"Ć":{"ha":694,"x_min":0,"x_max":0,"o":""},"ć":{"ha":694,"x_min":0,"x_max":0,"o":""},"Ĉ":{"ha":694,"x_min":0,"x_max":0,"o":""},"ĉ":{"ha":694,"x_min":0,"x_max":0,"o":""},"Ċ":{"ha":694,"x_min":0,"x_max":0,"o":""},"ċ":{"ha":694,"x_min":0,"x_max":0,"o":""},"Č":{"ha":694,"x_min":0,"x_max":0,"o":""},"č":{"ha":694,"x_min":0,"x_max":0,"o":""},"Ď":{"ha":694,"x_min":0,"x_max":0,"o":""},"ď":{"ha":694,"x_min":0,"x_max":0,"o":""},"Đ":{"ha":694,"x_min":0,"x_max":0,"o":""},"đ":{"ha":694,"x_min":0,"x_max":0,"o":""},"Ē":{"ha":694,"x_min":0,"x_max":0,"o":""},"ē":{"ha":694,"x_min":0,"x_max":0,"o":""},"Ĕ":{"ha":694,"x_min":0,"x_max":0,"o":""},"ĕ":{"ha":694,"x_min":0,"x_max":0,"o":""},"Ė":{"ha":694,"x_min":0,"x_max":0,"o":""},"ė":{"ha":694,"x_min":0,"x_max":0,"o":""},"Ę":{"ha":694,"x_min":0,"x_max":0,"o":""},"ę":{"ha":694,"x_min":0,"x_max":0,"o":""},"Ě":{"ha":694,"x_min":0,"x_max":0,"o":""},"ě":{"ha":694,"x_min":0,"x_max":0,"o":""},"Ĝ":{"ha":694,"x_min":0,"x_max":0,"o":""},"ĝ":{"ha":694,"x_min":0,"x_max":0,"o":""},"Ğ":{"ha":694,"x_min":0,"x_max":0,"o":""},"ğ":{"ha":694,"x_min":0,"x_max":0,"o":""},"Ġ":{"ha":694,"x_min":0,"x_max":0,"o":""},"ġ":{"ha":694,"x_min":0,"x_max":0,"o":""},"Ģ":{"ha":694,"x_min":0,"x_max":0,"o":""},"ģ":{"ha":694,"x_min":0,"x_max":0,"o":""},"Ĥ":{"ha":694,"x_min":0,"x_max":0,"o":""},"ĥ":{"ha":694,"x_min":0,"x_max":0,"o":""},"Ħ":{"ha":694,"x_min":0,"x_max":0,"o":""},"ħ":{"ha":694,"x_min":0,"x_max":0,"o":""},"Ĩ":{"ha":694,"x_min":0,"x_max":0,"o":""},"ĩ":{"ha":694,"x_min":0,"x_max":0,"o":""},"Ī":{"ha":694,"x_min":0,"x_max":0,"o":""},"ī":{"ha":694,"x_min":0,"x_max":0,"o":""},"Ĭ":{"ha":694,"x_min":0,"x_max":0,"o":""},"ĭ":{"ha":694,"x_min":0,"x_max":0,"o":""},"Į":{"ha":694,"x_min":0,"x_max":0,"o":""},"į":{"ha":694,"x_min":0,"x_max":0,"o":""},"İ":{"ha":694,"x_min":0,"x_max":0,"o":""},"ı":{"ha":694,"x_min":0,"x_max":0,"o":""},"Ĳ":{"ha":694,"x_min":0,"x_max":0,"o":""},"ĳ":{"ha":694,"x_min":0,"x_max":0,"o":""},"Ĵ":{"ha":694,"x_min":0,"x_max":0,"o":""},"ĵ":{"ha":694,"x_min":0,"x_max":0,"o":""},"Ķ":{"ha":694,"x_min":0,"x_max":0,"o":""},"ķ":{"ha":694,"x_min":0,"x_max":0,"o":""},"ĸ":{"ha":694,"x_min":0,"x_max":0,"o":""},"Ĺ":{"ha":694,"x_min":0,"x_max":0,"o":""},"ĺ":{"ha":694,"x_min":0,"x_max":0,"o":""},"Ļ":{"ha":694,"x_min":0,"x_max":0,"o":""},"ļ":{"ha":694,"x_min":0,"x_max":0,"o":""},"Ľ":{"ha":694,"x_min":0,"x_max":0,"o":""},"ľ":{"ha":694,"x_min":0,"x_max":0,"o":""},"Ŀ":{"ha":694,"x_min":0,"x_max":0,"o":""},"ŀ":{"ha":694,"x_min":0,"x_max":0,"o":""},"Ł":{"ha":694,"x_min":0,"x_max":0,"o":""},"ł":{"ha":694,"x_min":0,"x_max":0,"o":""},"Ń":{"ha":694,"x_min":0,"x_max":0,"o":""},"ń":{"ha":694,"x_min":0,"x_max":0,"o":""},"Ņ":{"ha":694,"x_min":0,"x_max":0,"o":""},"ņ":{"ha":694,"x_min":0,"x_max":0,"o":""},"Ň":{"ha":694,"x_min":0,"x_max":0,"o":""},"ň":{"ha":694,"x_min":0,"x_max":0,"o":""},"ŉ":{"ha":694,"x_min":0,"x_max":0,"o":""},"Ŋ":{"ha":694,"x_min":0,"x_max":0,"o":""},"ŋ":{"ha":694,"x_min":0,"x_max":0,"o":""},"Ō":{"ha":694,"x_min":0,"x_max":0,"o":""},"ō":{"ha":694,"x_min":0,"x_max":0,"o":""},"Ŏ":{"ha":694,"x_min":0,"x_max":0,"o":""},"ŏ":{"ha":694,"x_min":0,"x_max":0,"o":""},"Ő":{"ha":694,"x_min":0,"x_max":0,"o":""},"ő":{"ha":694,"x_min":0,"x_max":0,"o":""},"Œ":{"ha":694,"x_min":0,"x_max":0,"o":""},"œ":{"ha":694,"x_min":0,"x_max":0,"o":""},"Ŕ":{"ha":694,"x_min":0,"x_max":0,"o":""},"ŕ":{"ha":694,"x_min":0,"x_max":0,"o":""},"Ŗ":{"ha":694,"x_min":0,"x_max":0,"o":""},"ŗ":{"ha":694,"x_min":0,"x_max":0,"o":""},"Ř":{"ha":694,"x_min":0,"x_max":0,"o":""},"ř":{"ha":694,"x_min":0,"x_max":0,"o":""},"Ś":{"ha":694,"x_min":0,"x_max":0,"o":""},"ś":{"ha":694,"x_min":0,"x_max":0,"o":""},"Ŝ":{"ha":694,"x_min":0,"x_max":0,"o":""},"ŝ":{"ha":694,"x_min":0,"x_max":0,"o":""},"Ş":{"ha":694,"x_min":0,"x_max":0,"o":""},"ş":{"ha":694,"x_min":0,"x_max":0,"o":""},"Š":{"ha":694,"x_min":0,"x_max":0,"o":""},"š":{"ha":694,"x_min":0,"x_max":0,"o":""},"Ţ":{"ha":694,"x_min":0,"x_max":0,"o":""},"ţ":{"ha":694,"x_min":0,"x_max":0,"o":""},"Ť":{"ha":694,"x_min":0,"x_max":0,"o":""},"ť":{"ha":694,"x_min":0,"x_max":0,"o":""},"Ŧ":{"ha":694,"x_min":0,"x_max":0,"o":""},"ŧ":{"ha":694,"x_min":0,"x_max":0,"o":""},"Ũ":{"ha":694,"x_min":0,"x_max":0,"o":""},"ũ":{"ha":694,"x_min":0,"x_max":0,"o":""},"Ū":{"ha":694,"x_min":0,"x_max":0,"o":""},"ū":{"ha":694,"x_min":0,"x_max":0,"o":""},"Ŭ":{"ha":694,"x_min":0,"x_max":0,"o":""},"ŭ":{"ha":694,"x_min":0,"x_max":0,"o":""},"Ů":{"ha":694,"x_min":0,"x_max":0,"o":""},"ů":{"ha":694,"x_min":0,"x_max":0,"o":""},"Ű":{"ha":694,"x_min":0,"x_max":0,"o":""},"ű":{"ha":694,"x_min":0,"x_max":0,"o":""},"Ų":{"ha":694,"x_min":0,"x_max":0,"o":""},"ų":{"ha":694,"x_min":0,"x_max":0,"o":""},"Ŵ":{"ha":694,"x_min":0,"x_max":0,"o":""},"ŵ":{"ha":694,"x_min":0,"x_max":0,"o":""},"Ŷ":{"ha":694,"x_min":0,"x_max":0,"o":""},"ŷ":{"ha":694,"x_min":0,"x_max":0,"o":""},"Ÿ":{"ha":694,"x_min":0,"x_max":0,"o":""},"Ź":{"ha":694,"x_min":0,"x_max":0,"o":""},"ź":{"ha":694,"x_min":0,"x_max":0,"o":""},"Ż":{"ha":694,"x_min":0,"x_max":0,"o":""},"ż":{"ha":694,"x_min":0,"x_max":0,"o":""},"Ž":{"ha":694,"x_min":0,"x_max":0,"o":""},"ž":{"ha":694,"x_min":0,"x_max":0,"o":""},"ſ":{"ha":694,"x_min":0,"x_max":0,"o":""},"ƒ":{"ha":694,"x_min":0,"x_max":0,"o":""},"Ǎ":{"ha":1389,"x_min":0,"x_max":0,"o":""},"ǎ":{"ha":1389,"x_min":0,"x_max":0,"o":""},"Ǐ":{"ha":1389,"x_min":0,"x_max":0,"o":""},"ǐ":{"ha":1389,"x_min":0,"x_max":0,"o":""},"Ǒ":{"ha":1389,"x_min":0,"x_max":0,"o":""},"ǒ":{"ha":1389,"x_min":0,"x_max":0,"o":""},"Ǔ":{"ha":1389,"x_min":0,"x_max":0,"o":""},"ǔ":{"ha":1389,"x_min":0,"x_max":0,"o":""},"Ǖ":{"ha":1389,"x_min":0,"x_max":0,"o":""},"ǖ":{"ha":1389,"x_min":0,"x_max":0,"o":""},"Ǘ":{"ha":1389,"x_min":0,"x_max":0,"o":""},"ǘ":{"ha":1389,"x_min":0,"x_max":0,"o":""},"Ǚ":{"ha":1389,"x_min":0,"x_max":0,"o":""},"ǚ":{"ha":1389,"x_min":0,"x_max":0,"o":""},"Ǜ":{"ha":1389,"x_min":0,"x_max":0,"o":""},"ǜ":{"ha":1389,"x_min":0,"x_max":0,"o":""},"ǵ":{"ha":1389,"x_min":0,"x_max":0,"o":""},"Ǻ":{"ha":694,"x_min":0,"x_max":0,"o":""},"ǻ":{"ha":694,"x_min":0,"x_max":0,"o":""},"Ǽ":{"ha":694,"x_min":0,"x_max":0,"o":""},"ǽ":{"ha":694,"x_min":0,"x_max":0,"o":""},"Ǿ":{"ha":694,"x_min":0,"x_max":0,"o":""},"ǿ":{"ha":694,"x_min":0,"x_max":0,"o":""},"ɐ":{"ha":694,"x_min":0,"x_max":0,"o":""},"ɑ":{"ha":694,"x_min":0,"x_max":0,"o":""},"ɒ":{"ha":694,"x_min":0,"x_max":0,"o":""},"ɓ":{"ha":694,"x_min":0,"x_max":0,"o":""},"ɔ":{"ha":694,"x_min":0,"x_max":0,"o":""},"ɕ":{"ha":694,"x_min":0,"x_max":0,"o":""},"ɖ":{"ha":694,"x_min":0,"x_max":0,"o":""},"ɗ":{"ha":694,"x_min":0,"x_max":0,"o":""},"ɘ":{"ha":694,"x_min":0,"x_max":0,"o":""},"ə":{"ha":694,"x_min":0,"x_max":0,"o":""},"ɚ":{"ha":694,"x_min":0,"x_max":0,"o":""},"ɛ":{"ha":694,"x_min":0,"x_max":0,"o":""},"ɜ":{"ha":694,"x_min":0,"x_max":0,"o":""},"ɝ":{"ha":694,"x_min":0,"x_max":0,"o":""},"ɞ":{"ha":694,"x_min":0,"x_max":0,"o":""},"ɟ":{"ha":694,"x_min":0,"x_max":0,"o":""},"ɠ":{"ha":694,"x_min":0,"x_max":0,"o":""},"ɡ":{"ha":694,"x_min":0,"x_max":0,"o":""},"ɢ":{"ha":694,"x_min":0,"x_max":0,"o":""},"ɣ":{"ha":694,"x_min":0,"x_max":0,"o":""},"ɤ":{"ha":694,"x_min":0,"x_max":0,"o":""},"ɥ":{"ha":694,"x_min":0,"x_max":0,"o":""},"ɦ":{"ha":694,"x_min":0,"x_max":0,"o":""},"ɧ":{"ha":694,"x_min":0,"x_max":0,"o":""},"ɨ":{"ha":694,"x_min":0,"x_max":0,"o":""},"ɩ":{"ha":694,"x_min":0,"x_max":0,"o":""},"ɪ":{"ha":694,"x_min":0,"x_max":0,"o":""},"ɫ":{"ha":694,"x_min":0,"x_max":0,"o":""},"ɬ":{"ha":694,"x_min":0,"x_max":0,"o":""},"ɭ":{"ha":694,"x_min":0,"x_max":0,"o":""},"ɮ":{"ha":694,"x_min":0,"x_max":0,"o":""},"ɯ":{"ha":694,"x_min":0,"x_max":0,"o":""},"ɰ":{"ha":694,"x_min":0,"x_max":0,"o":""},"ɱ":{"ha":694,"x_min":0,"x_max":0,"o":""},"ɲ":{"ha":694,"x_min":0,"x_max":0,"o":""},"ɳ":{"ha":694,"x_min":0,"x_max":0,"o":""},"ɴ":{"ha":694,"x_min":0,"x_max":0,"o":""},"ɵ":{"ha":694,"x_min":0,"x_max":0,"o":""},"ɶ":{"ha":694,"x_min":0,"x_max":0,"o":""},"ɷ":{"ha":694,"x_min":0,"x_max":0,"o":""},"ɸ":{"ha":694,"x_min":0,"x_max":0,"o":""},"ɹ":{"ha":694,"x_min":0,"x_max":0,"o":""},"ɺ":{"ha":694,"x_min":0,"x_max":0,"o":""},"ɻ":{"ha":694,"x_min":0,"x_max":0,"o":""},"ɼ":{"ha":694,"x_min":0,"x_max":0,"o":""},"ɽ":{"ha":694,"x_min":0,"x_max":0,"o":""},"ɾ":{"ha":694,"x_min":0,"x_max":0,"o":""},"ɿ":{"ha":694,"x_min":0,"x_max":0,"o":""},"ʀ":{"ha":694,"x_min":0,"x_max":0,"o":""},"ʁ":{"ha":694,"x_min":0,"x_max":0,"o":""},"ʂ":{"ha":694,"x_min":0,"x_max":0,"o":""},"ʃ":{"ha":694,"x_min":0,"x_max":0,"o":""},"ʄ":{"ha":694,"x_min":0,"x_max":0,"o":""},"ʅ":{"ha":694,"x_min":0,"x_max":0,"o":""},"ʆ":{"ha":694,"x_min":0,"x_max":0,"o":""},"ʇ":{"ha":694,"x_min":0,"x_max":0,"o":""},"ʈ":{"ha":694,"x_min":0,"x_max":0,"o":""},"ʉ":{"ha":694,"x_min":0,"x_max":0,"o":""},"ʊ":{"ha":694,"x_min":0,"x_max":0,"o":""},"ʋ":{"ha":694,"x_min":0,"x_max":0,"o":""},"ʌ":{"ha":694,"x_min":0,"x_max":0,"o":""},"ʍ":{"ha":694,"x_min":0,"x_max":0,"o":""},"ʎ":{"ha":694,"x_min":0,"x_max":0,"o":""},"ʏ":{"ha":694,"x_min":0,"x_max":0,"o":""},"ʐ":{"ha":694,"x_min":0,"x_max":0,"o":""},"ʑ":{"ha":694,"x_min":0,"x_max":0,"o":""},"ʒ":{"ha":694,"x_min":0,"x_max":0,"o":""},"ʓ":{"ha":694,"x_min":0,"x_max":0,"o":""},"ʔ":{"ha":694,"x_min":0,"x_max":0,"o":""},"ʕ":{"ha":694,"x_min":0,"x_max":0,"o":""},"ʖ":{"ha":694,"x_min":0,"x_max":0,"o":""},"ʗ":{"ha":694,"x_min":0,"x_max":0,"o":""},"ʘ":{"ha":694,"x_min":0,"x_max":0,"o":""},"ʙ":{"ha":694,"x_min":0,"x_max":0,"o":""},"ʚ":{"ha":694,"x_min":0,"x_max":0,"o":""},"ʛ":{"ha":694,"x_min":0,"x_max":0,"o":""},"ʜ":{"ha":694,"x_min":0,"x_max":0,"o":""},"ʝ":{"ha":694,"x_min":0,"x_max":0,"o":""},"ʞ":{"ha":694,"x_min":0,"x_max":0,"o":""},"ʟ":{"ha":694,"x_min":0,"x_max":0,"o":""},"ʠ":{"ha":694,"x_min":0,"x_max":0,"o":""},"ʡ":{"ha":694,"x_min":0,"x_max":0,"o":""},"ʢ":{"ha":694,"x_min":0,"x_max":0,"o":""},"ʣ":{"ha":694,"x_min":0,"x_max":0,"o":""},"ʤ":{"ha":694,"x_min":0,"x_max":0,"o":""},"ʥ":{"ha":694,"x_min":0,"x_max":0,"o":""},"ʦ":{"ha":694,"x_min":0,"x_max":0,"o":""},"ʧ":{"ha":694,"x_min":0,"x_max":0,"o":""},"ʨ":{"ha":694,"x_min":0,"x_max":0,"o":""},"ˆ":{"ha":694,"x_min":0,"x_max":0,"o":""},"ˇ":{"ha":694,"x_min":0,"x_max":0,"o":""},"ˉ":{"ha":694,"x_min":0,"x_max":0,"o":""},"˘":{"ha":694,"x_min":0,"x_max":0,"o":""},"˙":{"ha":694,"x_min":0,"x_max":0,"o":""},"˚":{"ha":694,"x_min":0,"x_max":0,"o":""},"˛":{"ha":694,"x_min":0,"x_max":0,"o":""},"˜":{"ha":694,"x_min":0,"x_max":0,"o":""},"˝":{"ha":694,"x_min":0,"x_max":0,"o":""},"ʹ":{"ha":694,"x_min":0,"x_max":0,"o":""},"͵":{"ha":694,"x_min":0,"x_max":0,"o":""},"ͺ":{"ha":694,"x_min":0,"x_max":0,"o":""},";":{"ha":694,"x_min":0,"x_max":0,"o":""},"΄":{"ha":694,"x_min":0,"x_max":0,"o":""},"΅":{"ha":694,"x_min":0,"x_max":0,"o":""},"Ά":{"ha":694,"x_min":0,"x_max":0,"o":""},"·":{"ha":694,"x_min":0,"x_max":0,"o":""},"Έ":{"ha":694,"x_min":0,"x_max":0,"o":""},"Ή":{"ha":694,"x_min":0,"x_max":0,"o":""},"Ί":{"ha":694,"x_min":0,"x_max":0,"o":""},"Ό":{"ha":694,"x_min":0,"x_max":0,"o":""},"Ύ":{"ha":694,"x_min":0,"x_max":0,"o":""},"Ώ":{"ha":694,"x_min":0,"x_max":0,"o":""},"ΐ":{"ha":694,"x_min":0,"x_max":0,"o":""},"Α":{"ha":1389,"x_min":0,"x_max":0,"o":""},"Β":{"ha":1389,"x_min":0,"x_max":0,"o":""},"Γ":{"ha":1389,"x_min":0,"x_max":0,"o":""},"Δ":{"ha":1389,"x_min":0,"x_max":0,"o":""},"Ε":{"ha":1389,"x_min":0,"x_max":0,"o":""},"Ζ":{"ha":1389,"x_min":0,"x_max":0,"o":""},"Η":{"ha":1389,"x_min":0,"x_max":0,"o":""},"Θ":{"ha":1389,"x_min":0,"x_max":0,"o":""},"Ι":{"ha":1389,"x_min":0,"x_max":0,"o":""},"Κ":{"ha":1389,"x_min":0,"x_max":0,"o":""},"Λ":{"ha":1389,"x_min":0,"x_max":0,"o":""},"Μ":{"ha":1389,"x_min":0,"x_max":0,"o":""},"Ν":{"ha":1389,"x_min":0,"x_max":0,"o":""},"Ξ":{"ha":1389,"x_min":0,"x_max":0,"o":""},"Ο":{"ha":1389,"x_min":0,"x_max":0,"o":""},"Π":{"ha":1389,"x_min":0,"x_max":0,"o":""},"Ρ":{"ha":1389,"x_min":0,"x_max":0,"o":""},"Σ":{"ha":1389,"x_min":0,"x_max":0,"o":""},"Τ":{"ha":1389,"x_min":0,"x_max":0,"o":""},"Υ":{"ha":1389,"x_min":0,"x_max":0,"o":""},"Φ":{"ha":1389,"x_min":0,"x_max":0,"o":""},"Χ":{"ha":1389,"x_min":0,"x_max":0,"o":""},"Ψ":{"ha":1389,"x_min":0,"x_max":0,"o":""},"Ω":{"ha":1389,"x_min":0,"x_max":0,"o":""},"Ϊ":{"ha":694,"x_min":0,"x_max":0,"o":""},"Ϋ":{"ha":694,"x_min":0,"x_max":0,"o":""},"ά":{"ha":694,"x_min":0,"x_max":0,"o":""},"έ":{"ha":694,"x_min":0,"x_max":0,"o":""},"ή":{"ha":694,"x_min":0,"x_max":0,"o":""},"ί":{"ha":694,"x_min":0,"x_max":0,"o":""},"ΰ":{"ha":694,"x_min":0,"x_max":0,"o":""},"α":{"ha":1389,"x_min":0,"x_max":0,"o":""},"β":{"ha":1389,"x_min":0,"x_max":0,"o":""},"γ":{"ha":1389,"x_min":0,"x_max":0,"o":""},"δ":{"ha":1389,"x_min":0,"x_max":0,"o":""},"ε":{"ha":1389,"x_min":0,"x_max":0,"o":""},"ζ":{"ha":1389,"x_min":0,"x_max":0,"o":""},"η":{"ha":1389,"x_min":0,"x_max":0,"o":""},"θ":{"ha":1389,"x_min":0,"x_max":0,"o":""},"ι":{"ha":1389,"x_min":0,"x_max":0,"o":""},"κ":{"ha":1389,"x_min":0,"x_max":0,"o":""},"λ":{"ha":1389,"x_min":0,"x_max":0,"o":""},"μ":{"ha":1389,"x_min":0,"x_max":0,"o":""},"ν":{"ha":1389,"x_min":0,"x_max":0,"o":""},"ξ":{"ha":1389,"x_min":0,"x_max":0,"o":""},"ο":{"ha":1389,"x_min":0,"x_max":0,"o":""},"π":{"ha":1389,"x_min":0,"x_max":0,"o":""},"ρ":{"ha":1389,"x_min":0,"x_max":0,"o":""},"ς":{"ha":694,"x_min":0,"x_max":0,"o":""},"σ":{"ha":1389,"x_min":0,"x_max":0,"o":""},"τ":{"ha":1389,"x_min":0,"x_max":0,"o":""},"υ":{"ha":1389,"x_min":0,"x_max":0,"o":""},"φ":{"ha":1389,"x_min":0,"x_max":0,"o":""},"χ":{"ha":1389,"x_min":0,"x_max":0,"o":""},"ψ":{"ha":1389,"x_min":0,"x_max":0,"o":""},"ω":{"ha":1389,"x_min":0,"x_max":0,"o":""},"ϊ":{"ha":694,"x_min":0,"x_max":0,"o":""},"ϋ":{"ha":694,"x_min":0,"x_max":0,"o":""},"ό":{"ha":694,"x_min":0,"x_max":0,"o":""},"ύ":{"ha":694,"x_min":0,"x_max":0,"o":""},"ώ":{"ha":694,"x_min":0,"x_max":0,"o":""},"Ё":{"ha":1389,"x_min":0,"x_max":0,"o":""},"Ђ":{"ha":694,"x_min":0,"x_max":0,"o":""},"Ѓ":{"ha":694,"x_min":0,"x_max":0,"o":""},"Є":{"ha":694,"x_min":0,"x_max":0,"o":""},"Ѕ":{"ha":694,"x_min":0,"x_max":0,"o":""},"І":{"ha":694,"x_min":0,"x_max":0,"o":""},"Ї":{"ha":694,"x_min":0,"x_max":0,"o":""},"Ј":{"ha":694,"x_min":0,"x_max":0,"o":""},"Љ":{"ha":694,"x_min":0,"x_max":0,"o":""},"Њ":{"ha":694,"x_min":0,"x_max":0,"o":""},"Ћ":{"ha":694,"x_min":0,"x_max":0,"o":""},"Ќ":{"ha":694,"x_min":0,"x_max":0,"o":""},"Ў":{"ha":694,"x_min":0,"x_max":0,"o":""},"Џ":{"ha":694,"x_min":0,"x_max":0,"o":""},"А":{"ha":1389,"x_min":0,"x_max":0,"o":""},"Б":{"ha":1389,"x_min":0,"x_max":0,"o":""},"В":{"ha":1389,"x_min":0,"x_max":0,"o":""},"Г":{"ha":1389,"x_min":0,"x_max":0,"o":""},"Д":{"ha":1389,"x_min":0,"x_max":0,"o":""},"Е":{"ha":1389,"x_min":0,"x_max":0,"o":""},"Ж":{"ha":1389,"x_min":0,"x_max":0,"o":""},"З":{"ha":1389,"x_min":0,"x_max":0,"o":""},"И":{"ha":1389,"x_min":0,"x_max":0,"o":""},"Й":{"ha":1389,"x_min":0,"x_max":0,"o":""},"К":{"ha":1389,"x_min":0,"x_max":0,"o":""},"Л":{"ha":1389,"x_min":0,"x_max":0,"o":""},"М":{"ha":1389,"x_min":0,"x_max":0,"o":""},"Н":{"ha":1389,"x_min":0,"x_max":0,"o":""},"О":{"ha":1389,"x_min":0,"x_max":0,"o":""},"П":{"ha":1389,"x_min":0,"x_max":0,"o":""},"Р":{"ha":1389,"x_min":0,"x_max":0,"o":""},"С":{"ha":1389,"x_min":0,"x_max":0,"o":""},"Т":{"ha":1389,"x_min":0,"x_max":0,"o":""},"У":{"ha":1389,"x_min":0,"x_max":0,"o":""},"Ф":{"ha":1389,"x_min":0,"x_max":0,"o":""},"Х":{"ha":1389,"x_min":0,"x_max":0,"o":""},"Ц":{"ha":1389,"x_min":0,"x_max":0,"o":""},"Ч":{"ha":1389,"x_min":0,"x_max":0,"o":""},"Ш":{"ha":1389,"x_min":0,"x_max":0,"o":""},"Щ":{"ha":1389,"x_min":0,"x_max":0,"o":""},"Ъ":{"ha":1389,"x_min":0,"x_max":0,"o":""},"Ы":{"ha":1389,"x_min":0,"x_max":0,"o":""},"Ь":{"ha":1389,"x_min":0,"x_max":0,"o":""},"Э":{"ha":1389,"x_min":0,"x_max":0,"o":""},"Ю":{"ha":1389,"x_min":0,"x_max":0,"o":""},"Я":{"ha":1389,"x_min":0,"x_max":0,"o":""},"а":{"ha":1389,"x_min":0,"x_max":0,"o":""},"б":{"ha":1389,"x_min":0,"x_max":0,"o":""},"в":{"ha":1389,"x_min":0,"x_max":0,"o":""},"г":{"ha":1389,"x_min":0,"x_max":0,"o":""},"д":{"ha":1389,"x_min":0,"x_max":0,"o":""},"е":{"ha":1389,"x_min":0,"x_max":0,"o":""},"ж":{"ha":1389,"x_min":0,"x_max":0,"o":""},"з":{"ha":1389,"x_min":0,"x_max":0,"o":""},"и":{"ha":1389,"x_min":0,"x_max":0,"o":""},"й":{"ha":1389,"x_min":0,"x_max":0,"o":""},"к":{"ha":1389,"x_min":0,"x_max":0,"o":""},"л":{"ha":1389,"x_min":0,"x_max":0,"o":""},"м":{"ha":1389,"x_min":0,"x_max":0,"o":""},"н":{"ha":1389,"x_min":0,"x_max":0,"o":""},"о":{"ha":1389,"x_min":0,"x_max":0,"o":""},"п":{"ha":1389,"x_min":0,"x_max":0,"o":""},"р":{"ha":1389,"x_min":0,"x_max":0,"o":""},"с":{"ha":1389,"x_min":0,"x_max":0,"o":""},"т":{"ha":1389,"x_min":0,"x_max":0,"o":""},"у":{"ha":1389,"x_min":0,"x_max":0,"o":""},"ф":{"ha":1389,"x_min":0,"x_max":0,"o":""},"х":{"ha":1389,"x_min":0,"x_max":0,"o":""},"ц":{"ha":1389,"x_min":0,"x_max":0,"o":""},"ч":{"ha":1389,"x_min":0,"x_max":0,"o":""},"ш":{"ha":1389,"x_min":0,"x_max":0,"o":""},"щ":{"ha":1389,"x_min":0,"x_max":0,"o":""},"ъ":{"ha":1389,"x_min":0,"x_max":0,"o":""},"ы":{"ha":1389,"x_min":0,"x_max":0,"o":""},"ь":{"ha":1389,"x_min":0,"x_max":0,"o":""},"э":{"ha":1389,"x_min":0,"x_max":0,"o":""},"ю":{"ha":1389,"x_min":0,"x_max":0,"o":""},"я":{"ha":1389,"x_min":0,"x_max":0,"o":""},"ё":{"ha":1389,"x_min":0,"x_max":0,"o":""},"ђ":{"ha":694,"x_min":0,"x_max":0,"o":""},"ѓ":{"ha":694,"x_min":0,"x_max":0,"o":""},"є":{"ha":694,"x_min":0,"x_max":0,"o":""},"ѕ":{"ha":694,"x_min":0,"x_max":0,"o":""},"і":{"ha":694,"x_min":0,"x_max":0,"o":""},"ї":{"ha":694,"x_min":0,"x_max":0,"o":""},"ј":{"ha":694,"x_min":0,"x_max":0,"o":""},"љ":{"ha":694,"x_min":0,"x_max":0,"o":""},"њ":{"ha":694,"x_min":0,"x_max":0,"o":""},"ћ":{"ha":694,"x_min":0,"x_max":0,"o":""},"ќ":{"ha":694,"x_min":0,"x_max":0,"o":""},"ў":{"ha":694,"x_min":0,"x_max":0,"o":""},"џ":{"ha":694,"x_min":0,"x_max":0,"o":""},"Ѡ":{"ha":694,"x_min":0,"x_max":0,"o":""},"ѡ":{"ha":694,"x_min":0,"x_max":0,"o":""},"Ѣ":{"ha":694,"x_min":0,"x_max":0,"o":""},"ѣ":{"ha":694,"x_min":0,"x_max":0,"o":""},"Ѥ":{"ha":694,"x_min":0,"x_max":0,"o":""},"ѥ":{"ha":694,"x_min":0,"x_max":0,"o":""},"Ѧ":{"ha":694,"x_min":0,"x_max":0,"o":""},"ѧ":{"ha":694,"x_min":0,"x_max":0,"o":""},"Ѩ":{"ha":694,"x_min":0,"x_max":0,"o":""},"ѩ":{"ha":694,"x_min":0,"x_max":0,"o":""},"Ѫ":{"ha":694,"x_min":0,"x_max":0,"o":""},"ѫ":{"ha":694,"x_min":0,"x_max":0,"o":""},"Ѭ":{"ha":694,"x_min":0,"x_max":0,"o":""},"ѭ":{"ha":694,"x_min":0,"x_max":0,"o":""},"Ѯ":{"ha":694,"x_min":0,"x_max":0,"o":""},"ѯ":{"ha":694,"x_min":0,"x_max":0,"o":""},"Ѱ":{"ha":694,"x_min":0,"x_max":0,"o":""},"ѱ":{"ha":694,"x_min":0,"x_max":0,"o":""},"Ѳ":{"ha":694,"x_min":0,"x_max":0,"o":""},"ѳ":{"ha":694,"x_min":0,"x_max":0,"o":""},"Ѵ":{"ha":694,"x_min":0,"x_max":0,"o":""},"ѵ":{"ha":694,"x_min":0,"x_max":0,"o":""},"Ѷ":{"ha":694,"x_min":0,"x_max":0,"o":""},"ѷ":{"ha":694,"x_min":0,"x_max":0,"o":""},"Ѹ":{"ha":694,"x_min":0,"x_max":0,"o":""},"ѹ":{"ha":694,"x_min":0,"x_max":0,"o":""},"Ѻ":{"ha":694,"x_min":0,"x_max":0,"o":""},"ѻ":{"ha":694,"x_min":0,"x_max":0,"o":""},"Ѽ":{"ha":694,"x_min":0,"x_max":0,"o":""},"ѽ":{"ha":694,"x_min":0,"x_max":0,"o":""},"Ѿ":{"ha":694,"x_min":0,"x_max":0,"o":""},"ѿ":{"ha":694,"x_min":0,"x_max":0,"o":""},"Ҁ":{"ha":694,"x_min":0,"x_max":0,"o":""},"ҁ":{"ha":694,"x_min":0,"x_max":0,"o":""},"҂":{"ha":694,"x_min":0,"x_max":0,"o":""},"҃":{"ha":694,"x_min":0,"x_max":0,"o":""},"҄":{"ha":694,"x_min":0,"x_max":0,"o":""},"҅":{"ha":694,"x_min":0,"x_max":0,"o":""},"҆":{"ha":694,"x_min":0,"x_max":0,"o":""},"Ґ":{"ha":694,"x_min":0,"x_max":0,"o":""},"ґ":{"ha":694,"x_min":0,"x_max":0,"o":""},"Ғ":{"ha":694,"x_min":0,"x_max":0,"o":""},"ғ":{"ha":694,"x_min":0,"x_max":0,"o":""},"Ҕ":{"ha":694,"x_min":0,"x_max":0,"o":""},"ҕ":{"ha":694,"x_min":0,"x_max":0,"o":""},"Җ":{"ha":694,"x_min":0,"x_max":0,"o":""},"җ":{"ha":694,"x_min":0,"x_max":0,"o":""},"Ҙ":{"ha":694,"x_min":0,"x_max":0,"o":""},"ҙ":{"ha":694,"x_min":0,"x_max":0,"o":""},"Қ":{"ha":694,"x_min":0,"x_max":0,"o":""},"қ":{"ha":694,"x_min":0,"x_max":0,"o":""},"Ҝ":{"ha":694,"x_min":0,"x_max":0,"o":""},"ҝ":{"ha":694,"x_min":0,"x_max":0,"o":""},"Ҟ":{"ha":694,"x_min":0,"x_max":0,"o":""},"ҟ":{"ha":694,"x_min":0,"x_max":0,"o":""},"Ҡ":{"ha":694,"x_min":0,"x_max":0,"o":""},"ҡ":{"ha":694,"x_min":0,"x_max":0,"o":""},"Ң":{"ha":694,"x_min":0,"x_max":0,"o":""},"ң":{"ha":694,"x_min":0,"x_max":0,"o":""},"Ҥ":{"ha":694,"x_min":0,"x_max":0,"o":""},"ҥ":{"ha":694,"x_min":0,"x_max":0,"o":""},"Ҧ":{"ha":694,"x_min":0,"x_max":0,"o":""},"ҧ":{"ha":694,"x_min":0,"x_max":0,"o":""},"Ҩ":{"ha":694,"x_min":0,"x_max":0,"o":""},"ҩ":{"ha":694,"x_min":0,"x_max":0,"o":""},"Ҫ":{"ha":694,"x_min":0,"x_max":0,"o":""},"ҫ":{"ha":694,"x_min":0,"x_max":0,"o":""},"Ҭ":{"ha":694,"x_min":0,"x_max":0,"o":""},"ҭ":{"ha":694,"x_min":0,"x_max":0,"o":""},"Ү":{"ha":694,"x_min":0,"x_max":0,"o":""},"ү":{"ha":694,"x_min":0,"x_max":0,"o":""},"Ұ":{"ha":694,"x_min":0,"x_max":0,"o":""},"ұ":{"ha":694,"x_min":0,"x_max":0,"o":""},"Ҳ":{"ha":694,"x_min":0,"x_max":0,"o":""},"ҳ":{"ha":694,"x_min":0,"x_max":0,"o":""},"Ҵ":{"ha":694,"x_min":0,"x_max":0,"o":""},"ҵ":{"ha":694,"x_min":0,"x_max":0,"o":""},"Ҷ":{"ha":694,"x_min":0,"x_max":0,"o":""},"ҷ":{"ha":694,"x_min":0,"x_max":0,"o":""},"Ҹ":{"ha":694,"x_min":0,"x_max":0,"o":""},"ҹ":{"ha":694,"x_min":0,"x_max":0,"o":""},"Һ":{"ha":694,"x_min":0,"x_max":0,"o":""},"һ":{"ha":694,"x_min":0,"x_max":0,"o":""},"Ҽ":{"ha":694,"x_min":0,"x_max":0,"o":""},"ҽ":{"ha":694,"x_min":0,"x_max":0,"o":""},"Ҿ":{"ha":694,"x_min":0,"x_max":0,"o":""},"ҿ":{"ha":694,"x_min":0,"x_max":0,"o":""},"Ӏ":{"ha":694,"x_min":0,"x_max":0,"o":""},"Ӂ":{"ha":694,"x_min":0,"x_max":0,"o":""},"ӂ":{"ha":694,"x_min":0,"x_max":0,"o":""},"Ӄ":{"ha":694,"x_min":0,"x_max":0,"o":""},"ӄ":{"ha":694,"x_min":0,"x_max":0,"o":""},"Ӈ":{"ha":694,"x_min":0,"x_max":0,"o":""},"ӈ":{"ha":694,"x_min":0,"x_max":0,"o":""},"Ӌ":{"ha":694,"x_min":0,"x_max":0,"o":""},"ӌ":{"ha":694,"x_min":0,"x_max":0,"o":""},"Ӑ":{"ha":694,"x_min":0,"x_max":0,"o":""},"ӑ":{"ha":694,"x_min":0,"x_max":0,"o":""},"Ӓ":{"ha":694,"x_min":0,"x_max":0,"o":""},"ӓ":{"ha":694,"x_min":0,"x_max":0,"o":""},"Ӕ":{"ha":694,"x_min":0,"x_max":0,"o":""},"ӕ":{"ha":694,"x_min":0,"x_max":0,"o":""},"Ӗ":{"ha":694,"x_min":0,"x_max":0,"o":""},"ӗ":{"ha":694,"x_min":0,"x_max":0,"o":""},"Ә":{"ha":694,"x_min":0,"x_max":0,"o":""},"ә":{"ha":694,"x_min":0,"x_max":0,"o":""},"Ӛ":{"ha":694,"x_min":0,"x_max":0,"o":""},"ӛ":{"ha":694,"x_min":0,"x_max":0,"o":""},"Ӝ":{"ha":694,"x_min":0,"x_max":0,"o":""},"ӝ":{"ha":694,"x_min":0,"x_max":0,"o":""},"Ӟ":{"ha":694,"x_min":0,"x_max":0,"o":""},"ӟ":{"ha":694,"x_min":0,"x_max":0,"o":""},"Ӡ":{"ha":694,"x_min":0,"x_max":0,"o":""},"ӡ":{"ha":694,"x_min":0,"x_max":0,"o":""},"Ӣ":{"ha":694,"x_min":0,"x_max":0,"o":""},"ӣ":{"ha":694,"x_min":0,"x_max":0,"o":""},"Ӥ":{"ha":694,"x_min":0,"x_max":0,"o":""},"ӥ":{"ha":694,"x_min":0,"x_max":0,"o":""},"Ӧ":{"ha":694,"x_min":0,"x_max":0,"o":""},"ӧ":{"ha":694,"x_min":0,"x_max":0,"o":""},"Ө":{"ha":694,"x_min":0,"x_max":0,"o":""},"ө":{"ha":694,"x_min":0,"x_max":0,"o":""},"Ӫ":{"ha":694,"x_min":0,"x_max":0,"o":""},"ӫ":{"ha":694,"x_min":0,"x_max":0,"o":""},"Ӯ":{"ha":694,"x_min":0,"x_max":0,"o":""},"ӯ":{"ha":694,"x_min":0,"x_max":0,"o":""},"Ӱ":{"ha":694,"x_min":0,"x_max":0,"o":""},"ӱ":{"ha":694,"x_min":0,"x_max":0,"o":""},"Ӳ":{"ha":694,"x_min":0,"x_max":0,"o":""},"ӳ":{"ha":694,"x_min":0,"x_max":0,"o":""},"Ӵ":{"ha":694,"x_min":0,"x_max":0,"o":""},"ӵ":{"ha":694,"x_min":0,"x_max":0,"o":""},"Ӹ":{"ha":694,"x_min":0,"x_max":0,"o":""},"ӹ":{"ha":694,"x_min":0,"x_max":0,"o":""},"Ẁ":{"ha":694,"x_min":0,"x_max":0,"o":""},"ẁ":{"ha":694,"x_min":0,"x_max":0,"o":""},"Ẃ":{"ha":694,"x_min":0,"x_max":0,"o":""},"ẃ":{"ha":694,"x_min":0,"x_max":0,"o":""},"Ẅ":{"ha":694,"x_min":0,"x_max":0,"o":""},"ẅ":{"ha":694,"x_min":0,"x_max":0,"o":""},"Ỳ":{"ha":694,"x_min":0,"x_max":0,"o":""},"ỳ":{"ha":694,"x_min":0,"x_max":0,"o":""}," ":{"ha":694,"x_min":0,"x_max":0,"o":""}," ":{"ha":1389,"x_min":0,"x_max":0,"o":""}," ":{"ha":694,"x_min":0,"x_max":0,"o":""}," ":{"ha":1389,"x_min":0,"x_max":0,"o":""}," ":{"ha":694,"x_min":0,"x_max":0,"o":""}," ":{"ha":694,"x_min":0,"x_max":0,"o":""}," ":{"ha":694,"x_min":0,"x_max":0,"o":""}," ":{"ha":694,"x_min":0,"x_max":0,"o":""}," ":{"ha":694,"x_min":0,"x_max":0,"o":""}," ":{"ha":694,"x_min":0,"x_max":0,"o":""}," ":{"ha":694,"x_min":0,"x_max":0,"o":""},"​":{"ha":694,"x_min":0,"x_max":0,"o":""},"‌":{"ha":694,"x_min":0,"x_max":0,"o":""},"‍":{"ha":694,"x_min":0,"x_max":0,"o":""},"‎":{"ha":694,"x_min":0,"x_max":0,"o":""},"‏":{"ha":694,"x_min":0,"x_max":0,"o":""},"‐":{"ha":1389,"x_min":0,"x_max":0,"o":""},"‑":{"ha":694,"x_min":0,"x_max":0,"o":""},"‒":{"ha":694,"x_min":0,"x_max":0,"o":""},"–":{"ha":694,"x_min":0,"x_max":0,"o":""},"—":{"ha":694,"x_min":0,"x_max":0,"o":""},"―":{"ha":1389,"x_min":0,"x_max":0,"o":""},"‗":{"ha":694,"x_min":0,"x_max":0,"o":""},"‘":{"ha":1389,"x_min":0,"x_max":0,"o":""},"’":{"ha":1389,"x_min":0,"x_max":1213,"o":"m 868 0 l 868 694 l 694 694 l 694 868 l 0 868 l 0 1213 l 1039 1213 l 1039 1039 l 1213 1039 l 1213 0 l 868 0 z "},"‚":{"ha":694,"x_min":0,"x_max":0,"o":""},"‛":{"ha":694,"x_min":0,"x_max":0,"o":""},"“":{"ha":1389,"x_min":0,"x_max":0,"o":""},"”":{"ha":1389,"x_min":174,"x_max":518,"o":"m 174 0 l 174 1386 l 518 1386 l 518 0 l 174 0 z "},"„":{"ha":694,"x_min":0,"x_max":0,"o":""},"‟":{"ha":694,"x_min":0,"x_max":0,"o":""},"†":{"ha":1389,"x_min":0,"x_max":0,"o":""},"‡":{"ha":1389,"x_min":0,"x_max":0,"o":""},"•":{"ha":694,"x_min":0,"x_max":0,"o":""},"‣":{"ha":694,"x_min":0,"x_max":0,"o":""},"․":{"ha":694,"x_min":0,"x_max":0,"o":""},"‥":{"ha":1389,"x_min":0,"x_max":0,"o":""},"…":{"ha":1389,"x_min":174,"x_max":1039,"o":"m 174 521 l 174 865 l 345 865 l 345 521 l 174 521 m 521 521 l 521 865 l 692 865 l 692 521 l 521 521 m 868 521 l 868 865 l 1039 865 l 1039 521 l 868 521 z "},"‧":{"ha":694,"x_min":0,"x_max":0,"o":""},"":{"ha":694,"x_min":0,"x_max":0,"o":""},"":{"ha":694,"x_min":0,"x_max":0,"o":""},"‪":{"ha":694,"x_min":0,"x_max":0,"o":""},"‫":{"ha":694,"x_min":0,"x_max":0,"o":""},"‬":{"ha":694,"x_min":0,"x_max":0,"o":""},"‭":{"ha":694,"x_min":0,"x_max":0,"o":""},"‮":{"ha":694,"x_min":0,"x_max":0,"o":""},"‰":{"ha":1389,"x_min":0,"x_max":0,"o":""},"‱":{"ha":694,"x_min":0,"x_max":0,"o":""},"′":{"ha":1389,"x_min":0,"x_max":0,"o":""},"″":{"ha":1389,"x_min":0,"x_max":0,"o":""},"‴":{"ha":694,"x_min":0,"x_max":0,"o":""},"‵":{"ha":694,"x_min":0,"x_max":0,"o":""},"‶":{"ha":694,"x_min":0,"x_max":0,"o":""},"‷":{"ha":694,"x_min":0,"x_max":0,"o":""},"‸":{"ha":694,"x_min":0,"x_max":0,"o":""},"‹":{"ha":694,"x_min":0,"x_max":0,"o":""},"›":{"ha":694,"x_min":0,"x_max":0,"o":""},"※":{"ha":1389,"x_min":0,"x_max":0,"o":""},"‼":{"ha":694,"x_min":0,"x_max":0,"o":""},"‽":{"ha":694,"x_min":0,"x_max":0,"o":""},"‾":{"ha":694,"x_min":0,"x_max":0,"o":""},"‿":{"ha":694,"x_min":0,"x_max":0,"o":""},"⁀":{"ha":694,"x_min":0,"x_max":0,"o":""},"⁁":{"ha":694,"x_min":0,"x_max":0,"o":""},"⁂":{"ha":694,"x_min":0,"x_max":0,"o":""},"⁃":{"ha":694,"x_min":0,"x_max":0,"o":""},"⁄":{"ha":694,"x_min":0,"x_max":0,"o":""},"⁅":{"ha":694,"x_min":0,"x_max":0,"o":""},"⁆":{"ha":694,"x_min":0,"x_max":0,"o":""},"⁰":{"ha":694,"x_min":0,"x_max":0,"o":""},"⁴":{"ha":694,"x_min":0,"x_max":0,"o":""},"⁵":{"ha":694,"x_min":0,"x_max":0,"o":""},"⁶":{"ha":694,"x_min":0,"x_max":0,"o":""},"⁷":{"ha":694,"x_min":0,"x_max":0,"o":""},"⁸":{"ha":694,"x_min":0,"x_max":0,"o":""},"⁹":{"ha":694,"x_min":0,"x_max":0,"o":""},"⁺":{"ha":694,"x_min":0,"x_max":0,"o":""},"⁻":{"ha":694,"x_min":0,"x_max":0,"o":""},"⁼":{"ha":694,"x_min":0,"x_max":0,"o":""},"⁽":{"ha":694,"x_min":0,"x_max":0,"o":""},"⁾":{"ha":694,"x_min":0,"x_max":0,"o":""},"ⁿ":{"ha":694,"x_min":0,"x_max":0,"o":""},"₀":{"ha":694,"x_min":0,"x_max":0,"o":""},"₁":{"ha":694,"x_min":0,"x_max":0,"o":""},"₂":{"ha":694,"x_min":0,"x_max":0,"o":""},"₃":{"ha":694,"x_min":0,"x_max":0,"o":""},"₄":{"ha":694,"x_min":0,"x_max":0,"o":""},"₅":{"ha":694,"x_min":0,"x_max":0,"o":""},"₆":{"ha":694,"x_min":0,"x_max":0,"o":""},"₇":{"ha":694,"x_min":0,"x_max":0,"o":""},"₈":{"ha":694,"x_min":0,"x_max":0,"o":""},"₉":{"ha":694,"x_min":0,"x_max":0,"o":""},"₊":{"ha":694,"x_min":0,"x_max":0,"o":""},"₋":{"ha":694,"x_min":0,"x_max":0,"o":""},"₌":{"ha":694,"x_min":0,"x_max":0,"o":""},"₍":{"ha":694,"x_min":0,"x_max":0,"o":""},"₎":{"ha":694,"x_min":0,"x_max":0,"o":""},"₠":{"ha":694,"x_min":0,"x_max":0,"o":""},"₡":{"ha":694,"x_min":0,"x_max":0,"o":""},"₢":{"ha":694,"x_min":0,"x_max":0,"o":""},"₣":{"ha":694,"x_min":0,"x_max":0,"o":""},"₤":{"ha":694,"x_min":0,"x_max":0,"o":""},"₥":{"ha":694,"x_min":0,"x_max":0,"o":""},"₦":{"ha":694,"x_min":0,"x_max":0,"o":""},"₧":{"ha":694,"x_min":0,"x_max":0,"o":""},"₨":{"ha":694,"x_min":0,"x_max":0,"o":""},"₩":{"ha":694,"x_min":0,"x_max":0,"o":""},"₪":{"ha":694,"x_min":0,"x_max":0,"o":""},"℀":{"ha":694,"x_min":0,"x_max":0,"o":""},"℁":{"ha":694,"x_min":0,"x_max":0,"o":""},"ℂ":{"ha":694,"x_min":0,"x_max":0,"o":""},"℃":{"ha":1389,"x_min":0,"x_max":0,"o":""},"℄":{"ha":694,"x_min":0,"x_max":0,"o":""},"℅":{"ha":694,"x_min":0,"x_max":0,"o":""},"℆":{"ha":694,"x_min":0,"x_max":0,"o":""},"ℇ":{"ha":694,"x_min":0,"x_max":0,"o":""},"℈":{"ha":694,"x_min":0,"x_max":0,"o":""},"℉":{"ha":694,"x_min":0,"x_max":0,"o":""},"ℊ":{"ha":694,"x_min":0,"x_max":0,"o":""},"ℋ":{"ha":694,"x_min":0,"x_max":0,"o":""},"ℌ":{"ha":694,"x_min":0,"x_max":0,"o":""},"ℍ":{"ha":694,"x_min":0,"x_max":0,"o":""},"ℎ":{"ha":694,"x_min":0,"x_max":0,"o":""},"ℏ":{"ha":694,"x_min":0,"x_max":0,"o":""},"ℐ":{"ha":694,"x_min":0,"x_max":0,"o":""},"ℑ":{"ha":694,"x_min":0,"x_max":0,"o":""},"ℒ":{"ha":694,"x_min":0,"x_max":0,"o":""},"ℓ":{"ha":694,"x_min":0,"x_max":0,"o":""},"℔":{"ha":694,"x_min":0,"x_max":0,"o":""},"ℕ":{"ha":694,"x_min":0,"x_max":0,"o":""},"№":{"ha":1389,"x_min":0,"x_max":0,"o":""},"℗":{"ha":694,"x_min":0,"x_max":0,"o":""},"℘":{"ha":694,"x_min":0,"x_max":0,"o":""},"ℙ":{"ha":694,"x_min":0,"x_max":0,"o":""},"ℚ":{"ha":694,"x_min":0,"x_max":0,"o":""},"ℛ":{"ha":694,"x_min":0,"x_max":0,"o":""},"ℜ":{"ha":694,"x_min":0,"x_max":0,"o":""},"ℝ":{"ha":694,"x_min":0,"x_max":0,"o":""},"℞":{"ha":694,"x_min":0,"x_max":0,"o":""},"℟":{"ha":694,"x_min":0,"x_max":0,"o":""},"℠":{"ha":694,"x_min":0,"x_max":0,"o":""},"℡":{"ha":1389,"x_min":0,"x_max":0,"o":""},"™":{"ha":694,"x_min":0,"x_max":0,"o":""},"℣":{"ha":694,"x_min":0,"x_max":0,"o":""},"ℤ":{"ha":694,"x_min":0,"x_max":0,"o":""},"℥":{"ha":694,"x_min":0,"x_max":0,"o":""},"Ω":{"ha":694,"x_min":0,"x_max":0,"o":""},"℧":{"ha":694,"x_min":0,"x_max":0,"o":""},"ℨ":{"ha":694,"x_min":0,"x_max":0,"o":""},"℩":{"ha":694,"x_min":0,"x_max":0,"o":""},"K":{"ha":694,"x_min":0,"x_max":0,"o":""},"Å":{"ha":1389,"x_min":0,"x_max":0,"o":""},"ℬ":{"ha":694,"x_min":0,"x_max":0,"o":""},"ℭ":{"ha":694,"x_min":0,"x_max":0,"o":""},"℮":{"ha":694,"x_min":0,"x_max":0,"o":""},"ℯ":{"ha":694,"x_min":0,"x_max":0,"o":""},"ℰ":{"ha":694,"x_min":0,"x_max":0,"o":""},"ℱ":{"ha":694,"x_min":0,"x_max":0,"o":""},"Ⅎ":{"ha":694,"x_min":0,"x_max":0,"o":""},"ℳ":{"ha":694,"x_min":0,"x_max":0,"o":""},"ℴ":{"ha":694,"x_min":0,"x_max":0,"o":""},"ℵ":{"ha":694,"x_min":0,"x_max":0,"o":""},"ℶ":{"ha":694,"x_min":0,"x_max":0,"o":""},"ℷ":{"ha":694,"x_min":0,"x_max":0,"o":""},"ℸ":{"ha":694,"x_min":0,"x_max":0,"o":""},"⅓":{"ha":694,"x_min":0,"x_max":0,"o":""},"⅔":{"ha":694,"x_min":0,"x_max":0,"o":""},"⅕":{"ha":694,"x_min":0,"x_max":0,"o":""},"⅖":{"ha":694,"x_min":0,"x_max":0,"o":""},"⅗":{"ha":694,"x_min":0,"x_max":0,"o":""},"⅘":{"ha":694,"x_min":0,"x_max":0,"o":""},"⅙":{"ha":694,"x_min":0,"x_max":0,"o":""},"⅚":{"ha":694,"x_min":0,"x_max":0,"o":""},"⅛":{"ha":694,"x_min":0,"x_max":0,"o":""},"⅜":{"ha":694,"x_min":0,"x_max":0,"o":""},"⅝":{"ha":694,"x_min":0,"x_max":0,"o":""},"⅞":{"ha":694,"x_min":0,"x_max":0,"o":""},"⅟":{"ha":694,"x_min":0,"x_max":0,"o":""},"Ⅰ":{"ha":1389,"x_min":0,"x_max":0,"o":""},"Ⅱ":{"ha":1389,"x_min":0,"x_max":0,"o":""},"Ⅲ":{"ha":1389,"x_min":0,"x_max":0,"o":""},"Ⅳ":{"ha":1389,"x_min":0,"x_max":0,"o":""},"Ⅴ":{"ha":1389,"x_min":0,"x_max":0,"o":""},"Ⅵ":{"ha":1389,"x_min":0,"x_max":0,"o":""},"Ⅶ":{"ha":1389,"x_min":0,"x_max":0,"o":""},"Ⅷ":{"ha":1389,"x_min":0,"x_max":0,"o":""},"Ⅸ":{"ha":1389,"x_min":0,"x_max":0,"o":""},"Ⅹ":{"ha":1389,"x_min":0,"x_max":0,"o":""},"Ⅺ":{"ha":1389,"x_min":0,"x_max":0,"o":""},"Ⅻ":{"ha":1389,"x_min":0,"x_max":0,"o":""},"Ⅼ":{"ha":1389,"x_min":0,"x_max":0,"o":""},"Ⅽ":{"ha":1389,"x_min":0,"x_max":0,"o":""},"Ⅾ":{"ha":1389,"x_min":0,"x_max":0,"o":""},"Ⅿ":{"ha":1389,"x_min":0,"x_max":0,"o":""},"ⅰ":{"ha":1389,"x_min":0,"x_max":0,"o":""},"ⅱ":{"ha":1389,"x_min":0,"x_max":0,"o":""},"ⅲ":{"ha":1389,"x_min":0,"x_max":0,"o":""},"ⅳ":{"ha":1389,"x_min":0,"x_max":0,"o":""},"ⅴ":{"ha":1389,"x_min":0,"x_max":0,"o":""},"ⅵ":{"ha":1389,"x_min":0,"x_max":0,"o":""},"ⅶ":{"ha":1389,"x_min":0,"x_max":0,"o":""},"ⅷ":{"ha":1389,"x_min":0,"x_max":0,"o":""},"ⅸ":{"ha":1389,"x_min":0,"x_max":0,"o":""},"ⅹ":{"ha":1389,"x_min":0,"x_max":0,"o":""},"ⅺ":{"ha":1389,"x_min":0,"x_max":0,"o":""},"ⅻ":{"ha":1389,"x_min":0,"x_max":0,"o":""},"ⅼ":{"ha":1389,"x_min":0,"x_max":0,"o":""},"ⅽ":{"ha":1389,"x_min":0,"x_max":0,"o":""},"ⅾ":{"ha":1389,"x_min":0,"x_max":0,"o":""},"ⅿ":{"ha":1389,"x_min":0,"x_max":0,"o":""},"ↀ":{"ha":1389,"x_min":0,"x_max":0,"o":""},"ↁ":{"ha":1389,"x_min":0,"x_max":0,"o":""},"ↂ":{"ha":1389,"x_min":0,"x_max":0,"o":""},"←":{"ha":1389,"x_min":0,"x_max":0,"o":""},"↑":{"ha":1389,"x_min":0,"x_max":0,"o":""},"→":{"ha":1389,"x_min":0,"x_max":1386,"o":"m 694 0 l 694 347 l 0 347 l 0 865 l 694 865 l 694 1213 l 865 1213 l 865 1039 l 1039 1039 l 1039 865 l 1213 865 l 1213 692 l 1386 692 l 1386 521 l 1213 521 l 1213 347 l 1039 347 l 1039 174 l 865 174 l 865 0 l 694 0 z "},"↓":{"ha":1389,"x_min":0,"x_max":0,"o":""},"↔":{"ha":694,"x_min":0,"x_max":0,"o":""},"↕":{"ha":694,"x_min":0,"x_max":0,"o":""},"↖":{"ha":694,"x_min":0,"x_max":0,"o":""},"↗":{"ha":694,"x_min":0,"x_max":0,"o":""},"↘":{"ha":694,"x_min":0,"x_max":0,"o":""},"↙":{"ha":694,"x_min":0,"x_max":0,"o":""},"↚":{"ha":694,"x_min":0,"x_max":0,"o":""},"↛":{"ha":694,"x_min":0,"x_max":0,"o":""},"↜":{"ha":694,"x_min":0,"x_max":0,"o":""},"↝":{"ha":694,"x_min":0,"x_max":0,"o":""},"↞":{"ha":694,"x_min":0,"x_max":0,"o":""},"↟":{"ha":694,"x_min":0,"x_max":0,"o":""},"↠":{"ha":694,"x_min":0,"x_max":0,"o":""},"↡":{"ha":694,"x_min":0,"x_max":0,"o":""},"↢":{"ha":694,"x_min":0,"x_max":0,"o":""},"↣":{"ha":694,"x_min":0,"x_max":0,"o":""},"↤":{"ha":694,"x_min":0,"x_max":0,"o":""},"↥":{"ha":694,"x_min":0,"x_max":0,"o":""},"↦":{"ha":694,"x_min":0,"x_max":0,"o":""},"↧":{"ha":694,"x_min":0,"x_max":0,"o":""},"↨":{"ha":694,"x_min":0,"x_max":0,"o":""},"↩":{"ha":694,"x_min":0,"x_max":0,"o":""},"↪":{"ha":694,"x_min":0,"x_max":0,"o":""},"↫":{"ha":694,"x_min":0,"x_max":0,"o":""},"↬":{"ha":694,"x_min":0,"x_max":0,"o":""},"↭":{"ha":694,"x_min":0,"x_max":0,"o":""},"↮":{"ha":694,"x_min":0,"x_max":0,"o":""},"↯":{"ha":694,"x_min":0,"x_max":0,"o":""},"↰":{"ha":694,"x_min":0,"x_max":0,"o":""},"↱":{"ha":694,"x_min":0,"x_max":0,"o":""},"↲":{"ha":694,"x_min":0,"x_max":0,"o":""},"↳":{"ha":694,"x_min":0,"x_max":0,"o":""},"↴":{"ha":694,"x_min":0,"x_max":0,"o":""},"↵":{"ha":694,"x_min":0,"x_max":0,"o":""},"↶":{"ha":694,"x_min":0,"x_max":0,"o":""},"↷":{"ha":694,"x_min":0,"x_max":0,"o":""},"↸":{"ha":694,"x_min":0,"x_max":0,"o":""},"↹":{"ha":694,"x_min":0,"x_max":0,"o":""},"↺":{"ha":694,"x_min":0,"x_max":0,"o":""},"↻":{"ha":694,"x_min":0,"x_max":0,"o":""},"↼":{"ha":694,"x_min":0,"x_max":0,"o":""},"↽":{"ha":694,"x_min":0,"x_max":0,"o":""},"↾":{"ha":694,"x_min":0,"x_max":0,"o":""},"↿":{"ha":694,"x_min":0,"x_max":0,"o":""},"⇀":{"ha":694,"x_min":0,"x_max":0,"o":""},"⇁":{"ha":694,"x_min":0,"x_max":0,"o":""},"⇂":{"ha":694,"x_min":0,"x_max":0,"o":""},"⇃":{"ha":694,"x_min":0,"x_max":0,"o":""},"⇄":{"ha":694,"x_min":0,"x_max":0,"o":""},"⇅":{"ha":694,"x_min":0,"x_max":0,"o":""},"⇆":{"ha":694,"x_min":0,"x_max":0,"o":""},"⇇":{"ha":694,"x_min":0,"x_max":0,"o":""},"⇈":{"ha":694,"x_min":0,"x_max":0,"o":""},"⇉":{"ha":694,"x_min":0,"x_max":0,"o":""},"⇊":{"ha":694,"x_min":0,"x_max":0,"o":""},"⇋":{"ha":694,"x_min":0,"x_max":0,"o":""},"⇌":{"ha":694,"x_min":0,"x_max":0,"o":""},"⇍":{"ha":694,"x_min":0,"x_max":0,"o":""},"⇎":{"ha":694,"x_min":0,"x_max":0,"o":""},"⇏":{"ha":694,"x_min":0,"x_max":0,"o":""},"⇐":{"ha":694,"x_min":0,"x_max":0,"o":""},"⇑":{"ha":694,"x_min":0,"x_max":0,"o":""},"⇒":{"ha":1389,"x_min":0,"x_max":0,"o":""},"⇓":{"ha":694,"x_min":0,"x_max":0,"o":""},"⇔":{"ha":1389,"x_min":0,"x_max":0,"o":""},"⇕":{"ha":694,"x_min":0,"x_max":0,"o":""},"⇖":{"ha":694,"x_min":0,"x_max":0,"o":""},"⇗":{"ha":694,"x_min":0,"x_max":0,"o":""},"⇘":{"ha":694,"x_min":0,"x_max":0,"o":""},"⇙":{"ha":694,"x_min":0,"x_max":0,"o":""},"⇚":{"ha":694,"x_min":0,"x_max":0,"o":""},"⇛":{"ha":694,"x_min":0,"x_max":0,"o":""},"⇜":{"ha":694,"x_min":0,"x_max":0,"o":""},"⇝":{"ha":694,"x_min":0,"x_max":0,"o":""},"⇞":{"ha":694,"x_min":0,"x_max":0,"o":""},"⇟":{"ha":694,"x_min":0,"x_max":0,"o":""},"⇠":{"ha":694,"x_min":0,"x_max":0,"o":""},"⇡":{"ha":694,"x_min":0,"x_max":0,"o":""},"⇢":{"ha":694,"x_min":0,"x_max":0,"o":""},"⇣":{"ha":694,"x_min":0,"x_max":0,"o":""},"⇤":{"ha":694,"x_min":0,"x_max":0,"o":""},"⇥":{"ha":694,"x_min":0,"x_max":0,"o":""},"⇦":{"ha":694,"x_min":0,"x_max":0,"o":""},"⇧":{"ha":694,"x_min":0,"x_max":0,"o":""},"⇨":{"ha":694,"x_min":0,"x_max":0,"o":""},"⇩":{"ha":694,"x_min":0,"x_max":0,"o":""},"⇪":{"ha":694,"x_min":0,"x_max":0,"o":""},"∀":{"ha":1389,"x_min":0,"x_max":0,"o":""},"∁":{"ha":694,"x_min":0,"x_max":0,"o":""},"∂":{"ha":1389,"x_min":0,"x_max":0,"o":""},"∃":{"ha":1389,"x_min":0,"x_max":0,"o":""},"∄":{"ha":694,"x_min":0,"x_max":0,"o":""},"∅":{"ha":694,"x_min":0,"x_max":0,"o":""},"∆":{"ha":694,"x_min":0,"x_max":0,"o":""},"∇":{"ha":1389,"x_min":0,"x_max":0,"o":""},"∈":{"ha":1389,"x_min":0,"x_max":0,"o":""},"∉":{"ha":694,"x_min":0,"x_max":0,"o":""},"∊":{"ha":694,"x_min":0,"x_max":0,"o":""},"∋":{"ha":1389,"x_min":0,"x_max":0,"o":""},"∌":{"ha":694,"x_min":0,"x_max":0,"o":""},"∍":{"ha":694,"x_min":0,"x_max":0,"o":""},"∎":{"ha":694,"x_min":0,"x_max":0,"o":""},"∏":{"ha":694,"x_min":0,"x_max":0,"o":""},"∐":{"ha":694,"x_min":0,"x_max":0,"o":""},"∑":{"ha":1389,"x_min":0,"x_max":0,"o":""},"−":{"ha":694,"x_min":0,"x_max":0,"o":""},"∓":{"ha":694,"x_min":0,"x_max":0,"o":""},"∔":{"ha":694,"x_min":0,"x_max":0,"o":""},"∕":{"ha":694,"x_min":0,"x_max":0,"o":""},"∖":{"ha":694,"x_min":0,"x_max":0,"o":""},"∗":{"ha":694,"x_min":0,"x_max":0,"o":""},"∘":{"ha":694,"x_min":0,"x_max":0,"o":""},"∙":{"ha":694,"x_min":0,"x_max":0,"o":""},"√":{"ha":1389,"x_min":0,"x_max":0,"o":""},"∛":{"ha":694,"x_min":0,"x_max":0,"o":""},"∜":{"ha":694,"x_min":0,"x_max":0,"o":""},"∝":{"ha":1389,"x_min":0,"x_max":0,"o":""},"∞":{"ha":1389,"x_min":0,"x_max":0,"o":""},"∟":{"ha":1389,"x_min":0,"x_max":0,"o":""},"∠":{"ha":1389,"x_min":0,"x_max":0,"o":""},"∡":{"ha":694,"x_min":0,"x_max":0,"o":""},"∢":{"ha":694,"x_min":0,"x_max":0,"o":""},"∣":{"ha":694,"x_min":0,"x_max":0,"o":""},"∤":{"ha":694,"x_min":0,"x_max":0,"o":""},"∥":{"ha":1389,"x_min":0,"x_max":0,"o":""},"∦":{"ha":694,"x_min":0,"x_max":0,"o":""},"∧":{"ha":1389,"x_min":0,"x_max":0,"o":""},"∨":{"ha":1389,"x_min":0,"x_max":0,"o":""},"∩":{"ha":1389,"x_min":0,"x_max":0,"o":""},"∪":{"ha":1389,"x_min":0,"x_max":0,"o":""},"∫":{"ha":1389,"x_min":0,"x_max":0,"o":""},"∬":{"ha":1389,"x_min":0,"x_max":0,"o":""},"∭":{"ha":694,"x_min":0,"x_max":0,"o":""},"∮":{"ha":1389,"x_min":0,"x_max":0,"o":""},"∯":{"ha":694,"x_min":0,"x_max":0,"o":""},"∰":{"ha":694,"x_min":0,"x_max":0,"o":""},"∱":{"ha":694,"x_min":0,"x_max":0,"o":""},"∲":{"ha":694,"x_min":0,"x_max":0,"o":""},"∳":{"ha":694,"x_min":0,"x_max":0,"o":""},"∴":{"ha":1389,"x_min":0,"x_max":0,"o":""},"∵":{"ha":1389,"x_min":0,"x_max":0,"o":""},"∶":{"ha":694,"x_min":0,"x_max":0,"o":""},"∷":{"ha":694,"x_min":0,"x_max":0,"o":""},"∸":{"ha":694,"x_min":0,"x_max":0,"o":""},"∹":{"ha":694,"x_min":0,"x_max":0,"o":""},"∺":{"ha":694,"x_min":0,"x_max":0,"o":""},"∻":{"ha":694,"x_min":0,"x_max":0,"o":""},"∼":{"ha":694,"x_min":0,"x_max":0,"o":""},"∽":{"ha":1389,"x_min":0,"x_max":0,"o":""},"∾":{"ha":694,"x_min":0,"x_max":0,"o":""},"∿":{"ha":694,"x_min":0,"x_max":0,"o":""},"≀":{"ha":694,"x_min":0,"x_max":0,"o":""},"≁":{"ha":694,"x_min":0,"x_max":0,"o":""},"≂":{"ha":694,"x_min":0,"x_max":0,"o":""},"≃":{"ha":694,"x_min":0,"x_max":0,"o":""},"≄":{"ha":694,"x_min":0,"x_max":0,"o":""},"≅":{"ha":694,"x_min":0,"x_max":0,"o":""},"≆":{"ha":694,"x_min":0,"x_max":0,"o":""},"≇":{"ha":694,"x_min":0,"x_max":0,"o":""},"≈":{"ha":694,"x_min":0,"x_max":0,"o":""},"≉":{"ha":694,"x_min":0,"x_max":0,"o":""},"≊":{"ha":694,"x_min":0,"x_max":0,"o":""},"≋":{"ha":694,"x_min":0,"x_max":0,"o":""},"≌":{"ha":694,"x_min":0,"x_max":0,"o":""},"≍":{"ha":694,"x_min":0,"x_max":0,"o":""},"≎":{"ha":694,"x_min":0,"x_max":0,"o":""},"≏":{"ha":694,"x_min":0,"x_max":0,"o":""},"≐":{"ha":694,"x_min":0,"x_max":0,"o":""},"≑":{"ha":694,"x_min":0,"x_max":0,"o":""},"≒":{"ha":1389,"x_min":0,"x_max":0,"o":""},"≓":{"ha":694,"x_min":0,"x_max":0,"o":""},"≔":{"ha":694,"x_min":0,"x_max":0,"o":""},"≕":{"ha":694,"x_min":0,"x_max":0,"o":""},"≖":{"ha":694,"x_min":0,"x_max":0,"o":""},"≗":{"ha":694,"x_min":0,"x_max":0,"o":""},"≘":{"ha":694,"x_min":0,"x_max":0,"o":""},"≙":{"ha":694,"x_min":0,"x_max":0,"o":""},"≚":{"ha":694,"x_min":0,"x_max":0,"o":""},"≛":{"ha":694,"x_min":0,"x_max":0,"o":""},"≜":{"ha":694,"x_min":0,"x_max":0,"o":""},"≝":{"ha":694,"x_min":0,"x_max":0,"o":""},"≞":{"ha":694,"x_min":0,"x_max":0,"o":""},"≟":{"ha":694,"x_min":0,"x_max":0,"o":""},"≠":{"ha":1389,"x_min":0,"x_max":0,"o":""},"≡":{"ha":1389,"x_min":0,"x_max":0,"o":""},"≢":{"ha":694,"x_min":0,"x_max":0,"o":""},"≣":{"ha":694,"x_min":0,"x_max":0,"o":""},"≤":{"ha":694,"x_min":0,"x_max":0,"o":""},"≥":{"ha":694,"x_min":0,"x_max":0,"o":""},"≦":{"ha":1389,"x_min":0,"x_max":0,"o":""},"≧":{"ha":1389,"x_min":0,"x_max":0,"o":""},"≨":{"ha":694,"x_min":0,"x_max":0,"o":""},"≩":{"ha":694,"x_min":0,"x_max":0,"o":""},"≪":{"ha":1389,"x_min":0,"x_max":0,"o":""},"≫":{"ha":1389,"x_min":0,"x_max":0,"o":""},"≬":{"ha":694,"x_min":0,"x_max":0,"o":""},"≭":{"ha":694,"x_min":0,"x_max":0,"o":""},"≮":{"ha":694,"x_min":0,"x_max":0,"o":""},"≯":{"ha":694,"x_min":0,"x_max":0,"o":""},"≰":{"ha":694,"x_min":0,"x_max":0,"o":""},"≱":{"ha":694,"x_min":0,"x_max":0,"o":""},"≲":{"ha":694,"x_min":0,"x_max":0,"o":""},"≳":{"ha":694,"x_min":0,"x_max":0,"o":""},"≴":{"ha":694,"x_min":0,"x_max":0,"o":""},"≵":{"ha":694,"x_min":0,"x_max":0,"o":""},"≶":{"ha":694,"x_min":0,"x_max":0,"o":""},"≷":{"ha":694,"x_min":0,"x_max":0,"o":""},"≸":{"ha":694,"x_min":0,"x_max":0,"o":""},"≹":{"ha":694,"x_min":0,"x_max":0,"o":""},"≺":{"ha":694,"x_min":0,"x_max":0,"o":""},"≻":{"ha":694,"x_min":0,"x_max":0,"o":""},"≼":{"ha":694,"x_min":0,"x_max":0,"o":""},"≽":{"ha":694,"x_min":0,"x_max":0,"o":""},"≾":{"ha":694,"x_min":0,"x_max":0,"o":""},"≿":{"ha":694,"x_min":0,"x_max":0,"o":""},"⊀":{"ha":694,"x_min":0,"x_max":0,"o":""},"⊁":{"ha":694,"x_min":0,"x_max":0,"o":""},"⊂":{"ha":1389,"x_min":0,"x_max":0,"o":""},"⊃":{"ha":1389,"x_min":0,"x_max":0,"o":""},"⊄":{"ha":694,"x_min":0,"x_max":0,"o":""},"⊅":{"ha":694,"x_min":0,"x_max":0,"o":""},"⊆":{"ha":1389,"x_min":0,"x_max":0,"o":""},"⊇":{"ha":1389,"x_min":0,"x_max":0,"o":""},"⊈":{"ha":694,"x_min":0,"x_max":0,"o":""},"⊉":{"ha":694,"x_min":0,"x_max":0,"o":""},"⊊":{"ha":694,"x_min":0,"x_max":0,"o":""},"⊋":{"ha":694,"x_min":0,"x_max":0,"o":""},"⊌":{"ha":694,"x_min":0,"x_max":0,"o":""},"⊍":{"ha":694,"x_min":0,"x_max":0,"o":""},"⊎":{"ha":694,"x_min":0,"x_max":0,"o":""},"⊏":{"ha":694,"x_min":0,"x_max":0,"o":""},"⊐":{"ha":694,"x_min":0,"x_max":0,"o":""},"⊑":{"ha":694,"x_min":0,"x_max":0,"o":""},"⊒":{"ha":694,"x_min":0,"x_max":0,"o":""},"⊓":{"ha":694,"x_min":0,"x_max":0,"o":""},"⊔":{"ha":694,"x_min":0,"x_max":0,"o":""},"⊕":{"ha":694,"x_min":0,"x_max":0,"o":""},"⊖":{"ha":694,"x_min":0,"x_max":0,"o":""},"⊗":{"ha":694,"x_min":0,"x_max":0,"o":""},"⊘":{"ha":694,"x_min":0,"x_max":0,"o":""},"⊙":{"ha":694,"x_min":0,"x_max":0,"o":""},"⊚":{"ha":694,"x_min":0,"x_max":0,"o":""},"⊛":{"ha":694,"x_min":0,"x_max":0,"o":""},"⊜":{"ha":694,"x_min":0,"x_max":0,"o":""},"⊝":{"ha":694,"x_min":0,"x_max":0,"o":""},"⊞":{"ha":694,"x_min":0,"x_max":0,"o":""},"⊟":{"ha":694,"x_min":0,"x_max":0,"o":""},"⊠":{"ha":694,"x_min":0,"x_max":0,"o":""},"⊡":{"ha":694,"x_min":0,"x_max":0,"o":""},"⊢":{"ha":694,"x_min":0,"x_max":0,"o":""},"⊣":{"ha":694,"x_min":0,"x_max":0,"o":""},"⊤":{"ha":694,"x_min":0,"x_max":0,"o":""},"⊥":{"ha":1389,"x_min":0,"x_max":0,"o":""},"⊦":{"ha":694,"x_min":0,"x_max":0,"o":""},"⊧":{"ha":694,"x_min":0,"x_max":0,"o":""},"⊨":{"ha":694,"x_min":0,"x_max":0,"o":""},"⊩":{"ha":694,"x_min":0,"x_max":0,"o":""},"⊪":{"ha":694,"x_min":0,"x_max":0,"o":""},"⊫":{"ha":694,"x_min":0,"x_max":0,"o":""},"⊬":{"ha":694,"x_min":0,"x_max":0,"o":""},"⊭":{"ha":694,"x_min":0,"x_max":0,"o":""},"⊮":{"ha":694,"x_min":0,"x_max":0,"o":""},"⊯":{"ha":694,"x_min":0,"x_max":0,"o":""},"⊰":{"ha":694,"x_min":0,"x_max":0,"o":""},"⊱":{"ha":694,"x_min":0,"x_max":0,"o":""},"⊲":{"ha":694,"x_min":0,"x_max":0,"o":""},"⊳":{"ha":694,"x_min":0,"x_max":0,"o":""},"⊴":{"ha":694,"x_min":0,"x_max":0,"o":""},"⊵":{"ha":694,"x_min":0,"x_max":0,"o":""},"⊶":{"ha":694,"x_min":0,"x_max":0,"o":""},"⊷":{"ha":694,"x_min":0,"x_max":0,"o":""},"⊸":{"ha":694,"x_min":0,"x_max":0,"o":""},"⊹":{"ha":694,"x_min":0,"x_max":0,"o":""},"⊺":{"ha":694,"x_min":0,"x_max":0,"o":""},"⊻":{"ha":694,"x_min":0,"x_max":0,"o":""},"⊼":{"ha":694,"x_min":0,"x_max":0,"o":""},"⊽":{"ha":694,"x_min":0,"x_max":0,"o":""},"⊾":{"ha":694,"x_min":0,"x_max":0,"o":""},"⊿":{"ha":1389,"x_min":0,"x_max":0,"o":""},"⋀":{"ha":694,"x_min":0,"x_max":0,"o":""},"⋁":{"ha":694,"x_min":0,"x_max":0,"o":""},"⋂":{"ha":694,"x_min":0,"x_max":0,"o":""},"⋃":{"ha":694,"x_min":0,"x_max":0,"o":""},"⋄":{"ha":694,"x_min":0,"x_max":0,"o":""},"⋅":{"ha":694,"x_min":0,"x_max":0,"o":""},"⋆":{"ha":694,"x_min":0,"x_max":0,"o":""},"⋇":{"ha":694,"x_min":0,"x_max":0,"o":""},"⋈":{"ha":694,"x_min":0,"x_max":0,"o":""},"⋉":{"ha":694,"x_min":0,"x_max":0,"o":""},"⋊":{"ha":694,"x_min":0,"x_max":0,"o":""},"⋋":{"ha":694,"x_min":0,"x_max":0,"o":""},"⋌":{"ha":694,"x_min":0,"x_max":0,"o":""},"⋍":{"ha":694,"x_min":0,"x_max":0,"o":""},"⋎":{"ha":694,"x_min":0,"x_max":0,"o":""},"⋏":{"ha":694,"x_min":0,"x_max":0,"o":""},"⋐":{"ha":694,"x_min":0,"x_max":0,"o":""},"⋑":{"ha":694,"x_min":0,"x_max":0,"o":""},"⋒":{"ha":694,"x_min":0,"x_max":0,"o":""},"⋓":{"ha":694,"x_min":0,"x_max":0,"o":""},"⋔":{"ha":694,"x_min":0,"x_max":0,"o":""},"⋕":{"ha":694,"x_min":0,"x_max":0,"o":""},"⋖":{"ha":694,"x_min":0,"x_max":0,"o":""},"⋗":{"ha":694,"x_min":0,"x_max":0,"o":""},"⋘":{"ha":694,"x_min":0,"x_max":0,"o":""},"⋙":{"ha":694,"x_min":0,"x_max":0,"o":""},"⋚":{"ha":694,"x_min":0,"x_max":0,"o":""},"⋛":{"ha":694,"x_min":0,"x_max":0,"o":""},"⋜":{"ha":694,"x_min":0,"x_max":0,"o":""},"⋝":{"ha":694,"x_min":0,"x_max":0,"o":""},"⋞":{"ha":694,"x_min":0,"x_max":0,"o":""},"⋟":{"ha":694,"x_min":0,"x_max":0,"o":""},"⋠":{"ha":694,"x_min":0,"x_max":0,"o":""},"⋡":{"ha":694,"x_min":0,"x_max":0,"o":""},"⋢":{"ha":694,"x_min":0,"x_max":0,"o":""},"⋣":{"ha":694,"x_min":0,"x_max":0,"o":""},"⋤":{"ha":694,"x_min":0,"x_max":0,"o":""},"⋥":{"ha":694,"x_min":0,"x_max":0,"o":""},"⋦":{"ha":694,"x_min":0,"x_max":0,"o":""},"⋧":{"ha":694,"x_min":0,"x_max":0,"o":""},"⋨":{"ha":694,"x_min":0,"x_max":0,"o":""},"⋩":{"ha":694,"x_min":0,"x_max":0,"o":""},"⋪":{"ha":694,"x_min":0,"x_max":0,"o":""},"⋫":{"ha":694,"x_min":0,"x_max":0,"o":""},"⋬":{"ha":694,"x_min":0,"x_max":0,"o":""},"⋭":{"ha":694,"x_min":0,"x_max":0,"o":""},"⋮":{"ha":694,"x_min":0,"x_max":0,"o":""},"⋯":{"ha":694,"x_min":0,"x_max":0,"o":""},"⋰":{"ha":694,"x_min":0,"x_max":0,"o":""},"⋱":{"ha":694,"x_min":0,"x_max":0,"o":""},"⌂":{"ha":694,"x_min":0,"x_max":0,"o":""},"⌐":{"ha":694,"x_min":0,"x_max":0,"o":""},"⌒":{"ha":1389,"x_min":0,"x_max":0,"o":""},"⌠":{"ha":694,"x_min":0,"x_max":0,"o":""},"⌡":{"ha":694,"x_min":0,"x_max":0,"o":""},"①":{"ha":1389,"x_min":0,"x_max":0,"o":""},"②":{"ha":1389,"x_min":0,"x_max":0,"o":""},"③":{"ha":1389,"x_min":0,"x_max":0,"o":""},"④":{"ha":1389,"x_min":0,"x_max":0,"o":""},"⑤":{"ha":1389,"x_min":0,"x_max":0,"o":""},"⑥":{"ha":1389,"x_min":0,"x_max":0,"o":""},"⑦":{"ha":1389,"x_min":0,"x_max":0,"o":""},"⑧":{"ha":1389,"x_min":0,"x_max":0,"o":""},"⑨":{"ha":1389,"x_min":0,"x_max":0,"o":""},"⑩":{"ha":1389,"x_min":0,"x_max":0,"o":""},"⑪":{"ha":1389,"x_min":0,"x_max":0,"o":""},"⑫":{"ha":1389,"x_min":0,"x_max":0,"o":""},"⑬":{"ha":1389,"x_min":0,"x_max":0,"o":""},"⑭":{"ha":1389,"x_min":0,"x_max":0,"o":""},"⑮":{"ha":1389,"x_min":0,"x_max":0,"o":""},"⑯":{"ha":1389,"x_min":0,"x_max":0,"o":""},"⑰":{"ha":1389,"x_min":0,"x_max":0,"o":""},"⑱":{"ha":1389,"x_min":0,"x_max":0,"o":""},"⑲":{"ha":1389,"x_min":0,"x_max":0,"o":""},"⑳":{"ha":1389,"x_min":0,"x_max":0,"o":""},"⑴":{"ha":1389,"x_min":0,"x_max":0,"o":""},"⑵":{"ha":1389,"x_min":0,"x_max":0,"o":""},"⑶":{"ha":1389,"x_min":0,"x_max":0,"o":""},"⑷":{"ha":1389,"x_min":0,"x_max":0,"o":""},"⑸":{"ha":1389,"x_min":0,"x_max":0,"o":""},"⑹":{"ha":1389,"x_min":0,"x_max":0,"o":""},"⑺":{"ha":1389,"x_min":0,"x_max":0,"o":""},"⑻":{"ha":1389,"x_min":0,"x_max":0,"o":""},"⑼":{"ha":1389,"x_min":0,"x_max":0,"o":""},"⑽":{"ha":1389,"x_min":0,"x_max":0,"o":""},"⑾":{"ha":1389,"x_min":0,"x_max":0,"o":""},"⑿":{"ha":1389,"x_min":0,"x_max":0,"o":""},"⒀":{"ha":1389,"x_min":0,"x_max":0,"o":""},"⒁":{"ha":1389,"x_min":0,"x_max":0,"o":""},"⒂":{"ha":1389,"x_min":0,"x_max":0,"o":""},"⒃":{"ha":1389,"x_min":0,"x_max":0,"o":""},"⒄":{"ha":1389,"x_min":0,"x_max":0,"o":""},"⒅":{"ha":1389,"x_min":0,"x_max":0,"o":""},"⒆":{"ha":1389,"x_min":0,"x_max":0,"o":""},"⒇":{"ha":1389,"x_min":0,"x_max":0,"o":""},"⒈":{"ha":1389,"x_min":0,"x_max":0,"o":""},"⒉":{"ha":1389,"x_min":0,"x_max":0,"o":""},"⒊":{"ha":1389,"x_min":0,"x_max":0,"o":""},"⒋":{"ha":1389,"x_min":0,"x_max":0,"o":""},"⒌":{"ha":1389,"x_min":0,"x_max":0,"o":""},"⒍":{"ha":1389,"x_min":0,"x_max":0,"o":""},"⒎":{"ha":1389,"x_min":0,"x_max":0,"o":""},"⒏":{"ha":1389,"x_min":0,"x_max":0,"o":""},"⒐":{"ha":1389,"x_min":0,"x_max":0,"o":""},"⒑":{"ha":1389,"x_min":0,"x_max":0,"o":""},"⒒":{"ha":1389,"x_min":0,"x_max":0,"o":""},"⒓":{"ha":1389,"x_min":0,"x_max":0,"o":""},"⒔":{"ha":1389,"x_min":0,"x_max":0,"o":""},"⒕":{"ha":1389,"x_min":0,"x_max":0,"o":""},"⒖":{"ha":1389,"x_min":0,"x_max":0,"o":""},"⒗":{"ha":1389,"x_min":0,"x_max":0,"o":""},"⒘":{"ha":1389,"x_min":0,"x_max":0,"o":""},"⒙":{"ha":1389,"x_min":0,"x_max":0,"o":""},"⒚":{"ha":1389,"x_min":0,"x_max":0,"o":""},"⒛":{"ha":1389,"x_min":0,"x_max":0,"o":""},"⒜":{"ha":1389,"x_min":0,"x_max":0,"o":""},"⒝":{"ha":1389,"x_min":0,"x_max":0,"o":""},"⒞":{"ha":1389,"x_min":0,"x_max":0,"o":""},"⒟":{"ha":1389,"x_min":0,"x_max":0,"o":""},"⒠":{"ha":1389,"x_min":0,"x_max":0,"o":""},"⒡":{"ha":1389,"x_min":0,"x_max":0,"o":""},"⒢":{"ha":1389,"x_min":0,"x_max":0,"o":""},"⒣":{"ha":1389,"x_min":0,"x_max":0,"o":""},"⒤":{"ha":1389,"x_min":0,"x_max":0,"o":""},"⒥":{"ha":1389,"x_min":0,"x_max":0,"o":""},"⒦":{"ha":1389,"x_min":0,"x_max":0,"o":""},"⒧":{"ha":1389,"x_min":0,"x_max":0,"o":""},"⒨":{"ha":1389,"x_min":0,"x_max":0,"o":""},"⒩":{"ha":1389,"x_min":0,"x_max":0,"o":""},"⒪":{"ha":1389,"x_min":0,"x_max":0,"o":""},"⒫":{"ha":1389,"x_min":0,"x_max":0,"o":""},"⒬":{"ha":1389,"x_min":0,"x_max":0,"o":""},"⒭":{"ha":1389,"x_min":0,"x_max":0,"o":""},"⒮":{"ha":1389,"x_min":0,"x_max":0,"o":""},"⒯":{"ha":1389,"x_min":0,"x_max":0,"o":""},"⒰":{"ha":1389,"x_min":0,"x_max":0,"o":""},"⒱":{"ha":1389,"x_min":0,"x_max":0,"o":""},"⒲":{"ha":1389,"x_min":0,"x_max":0,"o":""},"⒳":{"ha":1389,"x_min":0,"x_max":0,"o":""},"⒴":{"ha":1389,"x_min":0,"x_max":0,"o":""},"⒵":{"ha":1389,"x_min":0,"x_max":0,"o":""},"Ⓐ":{"ha":1389,"x_min":0,"x_max":0,"o":""},"Ⓑ":{"ha":1389,"x_min":0,"x_max":0,"o":""},"Ⓒ":{"ha":1389,"x_min":0,"x_max":0,"o":""},"Ⓓ":{"ha":1389,"x_min":0,"x_max":0,"o":""},"Ⓔ":{"ha":1389,"x_min":0,"x_max":0,"o":""},"Ⓕ":{"ha":1389,"x_min":0,"x_max":0,"o":""},"Ⓖ":{"ha":1389,"x_min":0,"x_max":0,"o":""},"Ⓗ":{"ha":1389,"x_min":0,"x_max":0,"o":""},"Ⓘ":{"ha":1389,"x_min":0,"x_max":0,"o":""},"Ⓙ":{"ha":1389,"x_min":0,"x_max":0,"o":""},"Ⓚ":{"ha":1389,"x_min":0,"x_max":0,"o":""},"Ⓛ":{"ha":1389,"x_min":0,"x_max":0,"o":""},"Ⓜ":{"ha":1389,"x_min":0,"x_max":0,"o":""},"Ⓝ":{"ha":1389,"x_min":0,"x_max":0,"o":""},"Ⓞ":{"ha":1389,"x_min":0,"x_max":0,"o":""},"Ⓟ":{"ha":1389,"x_min":0,"x_max":0,"o":""},"Ⓠ":{"ha":1389,"x_min":0,"x_max":0,"o":""},"Ⓡ":{"ha":1389,"x_min":0,"x_max":0,"o":""},"Ⓢ":{"ha":1389,"x_min":0,"x_max":0,"o":""},"Ⓣ":{"ha":1389,"x_min":0,"x_max":0,"o":""},"Ⓤ":{"ha":1389,"x_min":0,"x_max":0,"o":""},"Ⓥ":{"ha":1389,"x_min":0,"x_max":0,"o":""},"Ⓦ":{"ha":1389,"x_min":0,"x_max":0,"o":""},"Ⓧ":{"ha":1389,"x_min":0,"x_max":0,"o":""},"Ⓨ":{"ha":1389,"x_min":0,"x_max":0,"o":""},"Ⓩ":{"ha":1389,"x_min":0,"x_max":0,"o":""},"ⓐ":{"ha":1389,"x_min":0,"x_max":0,"o":""},"ⓑ":{"ha":1389,"x_min":0,"x_max":0,"o":""},"ⓒ":{"ha":1389,"x_min":0,"x_max":0,"o":""},"ⓓ":{"ha":1389,"x_min":0,"x_max":0,"o":""},"ⓔ":{"ha":1389,"x_min":0,"x_max":0,"o":""},"ⓕ":{"ha":1389,"x_min":0,"x_max":0,"o":""},"ⓖ":{"ha":1389,"x_min":0,"x_max":0,"o":""},"ⓗ":{"ha":1389,"x_min":0,"x_max":0,"o":""},"ⓘ":{"ha":1389,"x_min":0,"x_max":0,"o":""},"ⓙ":{"ha":1389,"x_min":0,"x_max":0,"o":""},"ⓚ":{"ha":1389,"x_min":0,"x_max":0,"o":""},"ⓛ":{"ha":1389,"x_min":0,"x_max":0,"o":""},"ⓜ":{"ha":1389,"x_min":0,"x_max":0,"o":""},"ⓝ":{"ha":1389,"x_min":0,"x_max":0,"o":""},"ⓞ":{"ha":1389,"x_min":0,"x_max":0,"o":""},"ⓟ":{"ha":1389,"x_min":0,"x_max":0,"o":""},"ⓠ":{"ha":1389,"x_min":0,"x_max":0,"o":""},"ⓡ":{"ha":1389,"x_min":0,"x_max":0,"o":""},"ⓢ":{"ha":1389,"x_min":0,"x_max":0,"o":""},"ⓣ":{"ha":1389,"x_min":0,"x_max":0,"o":""},"ⓤ":{"ha":1389,"x_min":0,"x_max":0,"o":""},"ⓥ":{"ha":1389,"x_min":0,"x_max":0,"o":""},"ⓦ":{"ha":1389,"x_min":0,"x_max":0,"o":""},"ⓧ":{"ha":1389,"x_min":0,"x_max":0,"o":""},"ⓨ":{"ha":1389,"x_min":0,"x_max":0,"o":""},"ⓩ":{"ha":1389,"x_min":0,"x_max":0,"o":""},"⓪":{"ha":1389,"x_min":0,"x_max":0,"o":""},"─":{"ha":1389,"x_min":0,"x_max":0,"o":""},"━":{"ha":1389,"x_min":0,"x_max":0,"o":""},"│":{"ha":1389,"x_min":0,"x_max":0,"o":""},"┃":{"ha":1389,"x_min":0,"x_max":0,"o":""},"┄":{"ha":694,"x_min":0,"x_max":0,"o":""},"┅":{"ha":694,"x_min":0,"x_max":0,"o":""},"┆":{"ha":694,"x_min":0,"x_max":0,"o":""},"┇":{"ha":694,"x_min":0,"x_max":0,"o":""},"┈":{"ha":694,"x_min":0,"x_max":0,"o":""},"┉":{"ha":694,"x_min":0,"x_max":0,"o":""},"┊":{"ha":694,"x_min":0,"x_max":0,"o":""},"┋":{"ha":694,"x_min":0,"x_max":0,"o":""},"┌":{"ha":1389,"x_min":0,"x_max":0,"o":""},"┍":{"ha":694,"x_min":0,"x_max":0,"o":""},"┎":{"ha":694,"x_min":0,"x_max":0,"o":""},"┏":{"ha":1389,"x_min":0,"x_max":0,"o":""},"┐":{"ha":1389,"x_min":0,"x_max":0,"o":""},"┑":{"ha":694,"x_min":0,"x_max":0,"o":""},"┒":{"ha":694,"x_min":0,"x_max":0,"o":""},"┓":{"ha":1389,"x_min":0,"x_max":0,"o":""},"└":{"ha":1389,"x_min":0,"x_max":0,"o":""},"┕":{"ha":694,"x_min":0,"x_max":0,"o":""},"┖":{"ha":694,"x_min":0,"x_max":0,"o":""},"┗":{"ha":1389,"x_min":0,"x_max":0,"o":""},"┘":{"ha":1389,"x_min":0,"x_max":0,"o":""},"┙":{"ha":694,"x_min":0,"x_max":0,"o":""},"┚":{"ha":694,"x_min":0,"x_max":0,"o":""},"┛":{"ha":1389,"x_min":0,"x_max":0,"o":""},"├":{"ha":1389,"x_min":0,"x_max":0,"o":""},"┝":{"ha":1389,"x_min":0,"x_max":0,"o":""},"┞":{"ha":694,"x_min":0,"x_max":0,"o":""},"┟":{"ha":694,"x_min":0,"x_max":0,"o":""},"┠":{"ha":1389,"x_min":0,"x_max":0,"o":""},"┡":{"ha":694,"x_min":0,"x_max":0,"o":""},"┢":{"ha":694,"x_min":0,"x_max":0,"o":""},"┣":{"ha":1389,"x_min":0,"x_max":0,"o":""},"┤":{"ha":1389,"x_min":0,"x_max":0,"o":""},"┥":{"ha":1389,"x_min":0,"x_max":0,"o":""},"┦":{"ha":694,"x_min":0,"x_max":0,"o":""},"┧":{"ha":694,"x_min":0,"x_max":0,"o":""},"┨":{"ha":1389,"x_min":0,"x_max":0,"o":""},"┩":{"ha":694,"x_min":0,"x_max":0,"o":""},"┪":{"ha":694,"x_min":0,"x_max":0,"o":""},"┫":{"ha":1389,"x_min":0,"x_max":0,"o":""},"┬":{"ha":1389,"x_min":0,"x_max":0,"o":""},"┭":{"ha":694,"x_min":0,"x_max":0,"o":""},"┮":{"ha":694,"x_min":0,"x_max":0,"o":""},"┯":{"ha":1389,"x_min":0,"x_max":0,"o":""},"┰":{"ha":1389,"x_min":0,"x_max":0,"o":""},"┱":{"ha":694,"x_min":0,"x_max":0,"o":""},"┲":{"ha":694,"x_min":0,"x_max":0,"o":""},"┳":{"ha":1389,"x_min":0,"x_max":0,"o":""},"┴":{"ha":1389,"x_min":0,"x_max":0,"o":""},"┵":{"ha":694,"x_min":0,"x_max":0,"o":""},"┶":{"ha":694,"x_min":0,"x_max":0,"o":""},"┷":{"ha":1389,"x_min":0,"x_max":0,"o":""},"┸":{"ha":1389,"x_min":0,"x_max":0,"o":""},"┹":{"ha":694,"x_min":0,"x_max":0,"o":""},"┺":{"ha":694,"x_min":0,"x_max":0,"o":""},"┻":{"ha":1389,"x_min":0,"x_max":0,"o":""},"┼":{"ha":1389,"x_min":0,"x_max":0,"o":""},"┽":{"ha":694,"x_min":0,"x_max":0,"o":""},"┾":{"ha":694,"x_min":0,"x_max":0,"o":""},"┿":{"ha":1389,"x_min":0,"x_max":0,"o":""},"╀":{"ha":694,"x_min":0,"x_max":0,"o":""},"╁":{"ha":694,"x_min":0,"x_max":0,"o":""},"╂":{"ha":1389,"x_min":0,"x_max":0,"o":""},"╃":{"ha":694,"x_min":0,"x_max":0,"o":""},"╄":{"ha":694,"x_min":0,"x_max":0,"o":""},"╅":{"ha":694,"x_min":0,"x_max":0,"o":""},"╆":{"ha":694,"x_min":0,"x_max":0,"o":""},"╇":{"ha":694,"x_min":0,"x_max":0,"o":""},"╈":{"ha":694,"x_min":0,"x_max":0,"o":""},"╉":{"ha":694,"x_min":0,"x_max":0,"o":""},"╊":{"ha":694,"x_min":0,"x_max":0,"o":""},"╋":{"ha":1389,"x_min":0,"x_max":0,"o":""},"╌":{"ha":694,"x_min":0,"x_max":0,"o":""},"╍":{"ha":694,"x_min":0,"x_max":0,"o":""},"╎":{"ha":694,"x_min":0,"x_max":0,"o":""},"╏":{"ha":694,"x_min":0,"x_max":0,"o":""},"═":{"ha":694,"x_min":0,"x_max":0,"o":""},"║":{"ha":694,"x_min":0,"x_max":0,"o":""},"╒":{"ha":694,"x_min":0,"x_max":0,"o":""},"╓":{"ha":694,"x_min":0,"x_max":0,"o":""},"╔":{"ha":694,"x_min":0,"x_max":0,"o":""},"╕":{"ha":694,"x_min":0,"x_max":0,"o":""},"╖":{"ha":694,"x_min":0,"x_max":0,"o":""},"╗":{"ha":694,"x_min":0,"x_max":0,"o":""},"╘":{"ha":694,"x_min":0,"x_max":0,"o":""},"╙":{"ha":694,"x_min":0,"x_max":0,"o":""},"╚":{"ha":694,"x_min":0,"x_max":0,"o":""},"╛":{"ha":694,"x_min":0,"x_max":0,"o":""},"╜":{"ha":694,"x_min":0,"x_max":0,"o":""},"╝":{"ha":694,"x_min":0,"x_max":0,"o":""},"╞":{"ha":694,"x_min":0,"x_max":0,"o":""},"╟":{"ha":694,"x_min":0,"x_max":0,"o":""},"╠":{"ha":694,"x_min":0,"x_max":0,"o":""},"╡":{"ha":694,"x_min":0,"x_max":0,"o":""},"╢":{"ha":694,"x_min":0,"x_max":0,"o":""},"╣":{"ha":694,"x_min":0,"x_max":0,"o":""},"╤":{"ha":694,"x_min":0,"x_max":0,"o":""},"╥":{"ha":694,"x_min":0,"x_max":0,"o":""},"╦":{"ha":694,"x_min":0,"x_max":0,"o":""},"╧":{"ha":694,"x_min":0,"x_max":0,"o":""},"╨":{"ha":694,"x_min":0,"x_max":0,"o":""},"╩":{"ha":694,"x_min":0,"x_max":0,"o":""},"╪":{"ha":694,"x_min":0,"x_max":0,"o":""},"╫":{"ha":694,"x_min":0,"x_max":0,"o":""},"╬":{"ha":694,"x_min":0,"x_max":0,"o":""},"╭":{"ha":694,"x_min":0,"x_max":0,"o":""},"╮":{"ha":694,"x_min":0,"x_max":0,"o":""},"╯":{"ha":694,"x_min":0,"x_max":0,"o":""},"╰":{"ha":694,"x_min":0,"x_max":0,"o":""},"╱":{"ha":694,"x_min":0,"x_max":0,"o":""},"╲":{"ha":694,"x_min":0,"x_max":0,"o":""},"╳":{"ha":694,"x_min":0,"x_max":0,"o":""},"╴":{"ha":694,"x_min":0,"x_max":0,"o":""},"╵":{"ha":694,"x_min":0,"x_max":0,"o":""},"╶":{"ha":694,"x_min":0,"x_max":0,"o":""},"╷":{"ha":694,"x_min":0,"x_max":0,"o":""},"╸":{"ha":694,"x_min":0,"x_max":0,"o":""},"╹":{"ha":694,"x_min":0,"x_max":0,"o":""},"╺":{"ha":694,"x_min":0,"x_max":0,"o":""},"╻":{"ha":694,"x_min":0,"x_max":0,"o":""},"╼":{"ha":694,"x_min":0,"x_max":0,"o":""},"╽":{"ha":694,"x_min":0,"x_max":0,"o":""},"╾":{"ha":694,"x_min":0,"x_max":0,"o":""},"╿":{"ha":694,"x_min":0,"x_max":0,"o":""},"▀":{"ha":694,"x_min":0,"x_max":0,"o":""},"▁":{"ha":694,"x_min":0,"x_max":0,"o":""},"▂":{"ha":694,"x_min":0,"x_max":0,"o":""},"▃":{"ha":694,"x_min":0,"x_max":0,"o":""},"▄":{"ha":694,"x_min":0,"x_max":0,"o":""},"▅":{"ha":694,"x_min":0,"x_max":0,"o":""},"▆":{"ha":694,"x_min":0,"x_max":0,"o":""},"▇":{"ha":694,"x_min":0,"x_max":0,"o":""},"█":{"ha":694,"x_min":0,"x_max":0,"o":""},"▉":{"ha":694,"x_min":0,"x_max":0,"o":""},"▊":{"ha":694,"x_min":0,"x_max":0,"o":""},"▋":{"ha":694,"x_min":0,"x_max":0,"o":""},"▌":{"ha":694,"x_min":0,"x_max":0,"o":""},"▍":{"ha":694,"x_min":0,"x_max":0,"o":""},"▎":{"ha":694,"x_min":0,"x_max":0,"o":""},"▏":{"ha":694,"x_min":0,"x_max":0,"o":""},"▐":{"ha":694,"x_min":0,"x_max":0,"o":""},"░":{"ha":694,"x_min":0,"x_max":0,"o":""},"▒":{"ha":694,"x_min":0,"x_max":0,"o":""},"▓":{"ha":694,"x_min":0,"x_max":0,"o":""},"▔":{"ha":694,"x_min":0,"x_max":0,"o":""},"▕":{"ha":694,"x_min":0,"x_max":0,"o":""},"■":{"ha":1389,"x_min":0,"x_max":1386,"o":"m 0 0 l 0 1386 l 1386 1386 l 1386 0 l 0 0 z "},"□":{"ha":1389,"x_min":0,"x_max":0,"o":""},"▢":{"ha":694,"x_min":0,"x_max":0,"o":""},"▣":{"ha":694,"x_min":0,"x_max":0,"o":""},"▤":{"ha":694,"x_min":0,"x_max":0,"o":""},"▥":{"ha":694,"x_min":0,"x_max":0,"o":""},"▦":{"ha":694,"x_min":0,"x_max":0,"o":""},"▧":{"ha":694,"x_min":0,"x_max":0,"o":""},"▨":{"ha":694,"x_min":0,"x_max":0,"o":""},"▩":{"ha":694,"x_min":0,"x_max":0,"o":""},"▪":{"ha":694,"x_min":0,"x_max":0,"o":""},"▫":{"ha":694,"x_min":0,"x_max":0,"o":""},"▬":{"ha":694,"x_min":0,"x_max":0,"o":""},"▭":{"ha":694,"x_min":0,"x_max":0,"o":""},"▮":{"ha":694,"x_min":0,"x_max":0,"o":""},"▯":{"ha":694,"x_min":0,"x_max":0,"o":""},"▰":{"ha":694,"x_min":0,"x_max":0,"o":""},"▱":{"ha":694,"x_min":0,"x_max":0,"o":""},"▲":{"ha":1389,"x_min":0,"x_max":0,"o":""},"△":{"ha":1389,"x_min":0,"x_max":0,"o":""},"▴":{"ha":694,"x_min":0,"x_max":0,"o":""},"▵":{"ha":694,"x_min":0,"x_max":0,"o":""},"▶":{"ha":694,"x_min":0,"x_max":0,"o":""},"▷":{"ha":694,"x_min":0,"x_max":0,"o":""},"▸":{"ha":694,"x_min":0,"x_max":0,"o":""},"▹":{"ha":694,"x_min":0,"x_max":0,"o":""},"►":{"ha":694,"x_min":0,"x_max":0,"o":""},"▻":{"ha":694,"x_min":0,"x_max":0,"o":""},"▼":{"ha":1389,"x_min":0,"x_max":0,"o":""},"▽":{"ha":1389,"x_min":0,"x_max":0,"o":""},"▾":{"ha":694,"x_min":0,"x_max":0,"o":""},"▿":{"ha":694,"x_min":0,"x_max":0,"o":""},"◀":{"ha":694,"x_min":0,"x_max":0,"o":""},"◁":{"ha":694,"x_min":0,"x_max":0,"o":""},"◂":{"ha":694,"x_min":0,"x_max":0,"o":""},"◃":{"ha":694,"x_min":0,"x_max":0,"o":""},"◄":{"ha":694,"x_min":0,"x_max":0,"o":""},"◅":{"ha":694,"x_min":0,"x_max":0,"o":""},"◆":{"ha":1389,"x_min":0,"x_max":0,"o":""},"◇":{"ha":1389,"x_min":0,"x_max":0,"o":""},"◈":{"ha":694,"x_min":0,"x_max":0,"o":""},"◉":{"ha":694,"x_min":0,"x_max":0,"o":""},"◊":{"ha":694,"x_min":0,"x_max":0,"o":""},"○":{"ha":1389,"x_min":0,"x_max":0,"o":""},"◌":{"ha":694,"x_min":0,"x_max":0,"o":""},"◍":{"ha":694,"x_min":0,"x_max":0,"o":""},"◎":{"ha":1389,"x_min":0,"x_max":0,"o":""},"●":{"ha":1389,"x_min":0,"x_max":0,"o":""},"◐":{"ha":694,"x_min":0,"x_max":0,"o":""},"◑":{"ha":694,"x_min":0,"x_max":0,"o":""},"◒":{"ha":694,"x_min":0,"x_max":0,"o":""},"◓":{"ha":694,"x_min":0,"x_max":0,"o":""},"◔":{"ha":694,"x_min":0,"x_max":0,"o":""},"◕":{"ha":694,"x_min":0,"x_max":0,"o":""},"◖":{"ha":694,"x_min":0,"x_max":0,"o":""},"◗":{"ha":694,"x_min":0,"x_max":0,"o":""},"◘":{"ha":694,"x_min":0,"x_max":0,"o":""},"◙":{"ha":694,"x_min":0,"x_max":0,"o":""},"◚":{"ha":694,"x_min":0,"x_max":0,"o":""},"◛":{"ha":694,"x_min":0,"x_max":0,"o":""},"◜":{"ha":694,"x_min":0,"x_max":0,"o":""},"◝":{"ha":694,"x_min":0,"x_max":0,"o":""},"◞":{"ha":694,"x_min":0,"x_max":0,"o":""},"◟":{"ha":694,"x_min":0,"x_max":0,"o":""},"◠":{"ha":694,"x_min":0,"x_max":0,"o":""},"◡":{"ha":694,"x_min":0,"x_max":0,"o":""},"◢":{"ha":694,"x_min":0,"x_max":0,"o":""},"◣":{"ha":694,"x_min":0,"x_max":0,"o":""},"◤":{"ha":694,"x_min":0,"x_max":0,"o":""},"◥":{"ha":694,"x_min":0,"x_max":0,"o":""},"◦":{"ha":694,"x_min":0,"x_max":0,"o":""},"◧":{"ha":694,"x_min":0,"x_max":0,"o":""},"◨":{"ha":694,"x_min":0,"x_max":0,"o":""},"◩":{"ha":694,"x_min":0,"x_max":0,"o":""},"◪":{"ha":694,"x_min":0,"x_max":0,"o":""},"◫":{"ha":694,"x_min":0,"x_max":0,"o":""},"◬":{"ha":694,"x_min":0,"x_max":0,"o":""},"◭":{"ha":694,"x_min":0,"x_max":0,"o":""},"◮":{"ha":694,"x_min":0,"x_max":0,"o":""},"◯":{"ha":1389,"x_min":0,"x_max":0,"o":""},"☀":{"ha":1389,"x_min":0,"x_max":0,"o":""},"☁":{"ha":1389,"x_min":0,"x_max":0,"o":""},"☂":{"ha":1389,"x_min":0,"x_max":0,"o":""},"☃":{"ha":1389,"x_min":0,"x_max":0,"o":""},"☄":{"ha":1389,"x_min":0,"x_max":0,"o":""},"★":{"ha":1389,"x_min":0,"x_max":0,"o":""},"☆":{"ha":1389,"x_min":0,"x_max":0,"o":""},"☇":{"ha":1389,"x_min":0,"x_max":0,"o":""},"☈":{"ha":1389,"x_min":0,"x_max":0,"o":""},"☉":{"ha":1389,"x_min":0,"x_max":0,"o":""},"☊":{"ha":1389,"x_min":0,"x_max":0,"o":""},"☋":{"ha":1389,"x_min":0,"x_max":0,"o":""},"☌":{"ha":1389,"x_min":0,"x_max":0,"o":""},"☍":{"ha":1389,"x_min":0,"x_max":0,"o":""},"☎":{"ha":1389,"x_min":0,"x_max":0,"o":""},"☏":{"ha":1389,"x_min":0,"x_max":0,"o":""},"☐":{"ha":1389,"x_min":0,"x_max":0,"o":""},"☑":{"ha":1389,"x_min":0,"x_max":0,"o":""},"☒":{"ha":1389,"x_min":0,"x_max":0,"o":""},"☓":{"ha":1389,"x_min":0,"x_max":0,"o":""},"☚":{"ha":1389,"x_min":0,"x_max":0,"o":""},"☛":{"ha":1389,"x_min":0,"x_max":0,"o":""},"☜":{"ha":1389,"x_min":0,"x_max":0,"o":""},"☝":{"ha":1389,"x_min":0,"x_max":0,"o":""},"☞":{"ha":1389,"x_min":0,"x_max":0,"o":""},"☟":{"ha":1389,"x_min":0,"x_max":0,"o":""},"☠":{"ha":1389,"x_min":0,"x_max":0,"o":""},"☡":{"ha":1389,"x_min":0,"x_max":0,"o":""},"☢":{"ha":1389,"x_min":0,"x_max":0,"o":""},"☣":{"ha":1389,"x_min":0,"x_max":0,"o":""},"☤":{"ha":1389,"x_min":0,"x_max":0,"o":""},"☥":{"ha":1389,"x_min":0,"x_max":0,"o":""},"☦":{"ha":1389,"x_min":0,"x_max":0,"o":""},"☧":{"ha":1389,"x_min":0,"x_max":0,"o":""},"☨":{"ha":1389,"x_min":0,"x_max":0,"o":""},"☩":{"ha":1389,"x_min":0,"x_max":0,"o":""},"☪":{"ha":1389,"x_min":0,"x_max":0,"o":""},"☫":{"ha":1389,"x_min":0,"x_max":0,"o":""},"☬":{"ha":1389,"x_min":0,"x_max":0,"o":""},"☭":{"ha":1389,"x_min":0,"x_max":0,"o":""},"☮":{"ha":1389,"x_min":0,"x_max":0,"o":""},"☯":{"ha":1389,"x_min":0,"x_max":0,"o":""},"☰":{"ha":1389,"x_min":0,"x_max":0,"o":""},"☱":{"ha":1389,"x_min":0,"x_max":0,"o":""},"☲":{"ha":1389,"x_min":0,"x_max":0,"o":""},"☳":{"ha":1389,"x_min":0,"x_max":0,"o":""},"☴":{"ha":1389,"x_min":0,"x_max":0,"o":""},"☵":{"ha":1389,"x_min":0,"x_max":0,"o":""},"☶":{"ha":1389,"x_min":0,"x_max":0,"o":""},"☷":{"ha":1389,"x_min":0,"x_max":0,"o":""},"☸":{"ha":1389,"x_min":0,"x_max":0,"o":""},"☹":{"ha":694,"x_min":0,"x_max":0,"o":""},"☺":{"ha":694,"x_min":0,"x_max":0,"o":""},"☻":{"ha":694,"x_min":0,"x_max":0,"o":""},"☼":{"ha":694,"x_min":0,"x_max":0,"o":""},"☽":{"ha":1389,"x_min":0,"x_max":0,"o":""},"☾":{"ha":1389,"x_min":0,"x_max":0,"o":""},"☿":{"ha":1389,"x_min":0,"x_max":0,"o":""},"♀":{"ha":1389,"x_min":0,"x_max":0,"o":""},"♁":{"ha":1389,"x_min":0,"x_max":0,"o":""},"♂":{"ha":1389,"x_min":0,"x_max":0,"o":""},"♃":{"ha":1389,"x_min":0,"x_max":0,"o":""},"♄":{"ha":1389,"x_min":0,"x_max":0,"o":""},"♅":{"ha":1389,"x_min":0,"x_max":0,"o":""},"♆":{"ha":1389,"x_min":0,"x_max":0,"o":""},"♇":{"ha":1389,"x_min":0,"x_max":0,"o":""},"♈":{"ha":1389,"x_min":0,"x_max":0,"o":""},"♉":{"ha":1389,"x_min":0,"x_max":0,"o":""},"♊":{"ha":1389,"x_min":0,"x_max":0,"o":""},"♋":{"ha":1389,"x_min":0,"x_max":0,"o":""},"♌":{"ha":1389,"x_min":0,"x_max":0,"o":""},"♍":{"ha":1389,"x_min":0,"x_max":0,"o":""},"♎":{"ha":1389,"x_min":0,"x_max":0,"o":""},"♏":{"ha":1389,"x_min":0,"x_max":0,"o":""},"♐":{"ha":1389,"x_min":0,"x_max":0,"o":""},"♑":{"ha":1389,"x_min":0,"x_max":0,"o":""},"♒":{"ha":1389,"x_min":0,"x_max":0,"o":""},"♓":{"ha":1389,"x_min":0,"x_max":0,"o":""},"♔":{"ha":1389,"x_min":0,"x_max":0,"o":""},"♕":{"ha":1389,"x_min":0,"x_max":0,"o":""},"♖":{"ha":1389,"x_min":0,"x_max":0,"o":""},"♗":{"ha":1389,"x_min":0,"x_max":0,"o":""},"♘":{"ha":1389,"x_min":0,"x_max":0,"o":""},"♙":{"ha":1389,"x_min":0,"x_max":0,"o":""},"♚":{"ha":1389,"x_min":0,"x_max":0,"o":""},"♛":{"ha":1389,"x_min":0,"x_max":0,"o":""},"♜":{"ha":1389,"x_min":0,"x_max":0,"o":""},"♝":{"ha":1389,"x_min":0,"x_max":0,"o":""},"♞":{"ha":1389,"x_min":0,"x_max":0,"o":""},"♟":{"ha":1389,"x_min":0,"x_max":0,"o":""},"♠":{"ha":694,"x_min":0,"x_max":0,"o":""},"♡":{"ha":694,"x_min":0,"x_max":0,"o":""},"♢":{"ha":694,"x_min":0,"x_max":0,"o":""},"♣":{"ha":694,"x_min":0,"x_max":0,"o":""},"♤":{"ha":694,"x_min":0,"x_max":0,"o":""},"♥":{"ha":694,"x_min":0,"x_max":0,"o":""},"♦":{"ha":694,"x_min":0,"x_max":0,"o":""},"♧":{"ha":694,"x_min":0,"x_max":0,"o":""},"♨":{"ha":1389,"x_min":0,"x_max":0,"o":""},"♩":{"ha":694,"x_min":0,"x_max":0,"o":""},"♪":{"ha":1389,"x_min":0,"x_max":0,"o":""},"♫":{"ha":694,"x_min":0,"x_max":0,"o":""},"♬":{"ha":694,"x_min":0,"x_max":0,"o":""},"♭":{"ha":1389,"x_min":0,"x_max":0,"o":""},"♮":{"ha":694,"x_min":0,"x_max":0,"o":""},"♯":{"ha":1389,"x_min":0,"x_max":0,"o":""},"✁":{"ha":1389,"x_min":0,"x_max":0,"o":""},"✂":{"ha":1389,"x_min":0,"x_max":0,"o":""},"✃":{"ha":1389,"x_min":0,"x_max":0,"o":""},"✄":{"ha":1389,"x_min":0,"x_max":0,"o":""},"✆":{"ha":1389,"x_min":0,"x_max":0,"o":""},"✇":{"ha":1389,"x_min":0,"x_max":0,"o":""},"✈":{"ha":1389,"x_min":0,"x_max":0,"o":""},"✉":{"ha":1389,"x_min":0,"x_max":0,"o":""},"✌":{"ha":1389,"x_min":0,"x_max":0,"o":""},"✍":{"ha":1389,"x_min":0,"x_max":0,"o":""},"✎":{"ha":1389,"x_min":0,"x_max":0,"o":""},"✏":{"ha":1389,"x_min":0,"x_max":0,"o":""},"✐":{"ha":1389,"x_min":0,"x_max":0,"o":""},"✑":{"ha":1389,"x_min":0,"x_max":0,"o":""},"✒":{"ha":1389,"x_min":0,"x_max":0,"o":""},"✓":{"ha":1389,"x_min":0,"x_max":0,"o":""},"✔":{"ha":1389,"x_min":0,"x_max":0,"o":""},"✕":{"ha":1389,"x_min":0,"x_max":0,"o":""},"✖":{"ha":1389,"x_min":0,"x_max":0,"o":""},"✗":{"ha":1389,"x_min":0,"x_max":0,"o":""},"✘":{"ha":1389,"x_min":0,"x_max":0,"o":""},"✙":{"ha":1389,"x_min":0,"x_max":0,"o":""},"✚":{"ha":1389,"x_min":0,"x_max":0,"o":""},"✛":{"ha":1389,"x_min":0,"x_max":0,"o":""},"✜":{"ha":1389,"x_min":0,"x_max":0,"o":""},"✝":{"ha":1389,"x_min":0,"x_max":0,"o":""},"✞":{"ha":1389,"x_min":0,"x_max":0,"o":""},"✟":{"ha":1389,"x_min":0,"x_max":0,"o":""},"✠":{"ha":1389,"x_min":0,"x_max":0,"o":""},"✡":{"ha":1389,"x_min":0,"x_max":0,"o":""},"✢":{"ha":1389,"x_min":0,"x_max":0,"o":""},"✣":{"ha":1389,"x_min":0,"x_max":0,"o":""},"✤":{"ha":1389,"x_min":0,"x_max":0,"o":""},"✥":{"ha":1389,"x_min":0,"x_max":0,"o":""},"✦":{"ha":1389,"x_min":0,"x_max":0,"o":""},"✧":{"ha":1389,"x_min":0,"x_max":0,"o":""},"✩":{"ha":1389,"x_min":0,"x_max":0,"o":""},"✪":{"ha":1389,"x_min":0,"x_max":0,"o":""},"✫":{"ha":1389,"x_min":0,"x_max":0,"o":""},"✬":{"ha":1389,"x_min":0,"x_max":0,"o":""},"✭":{"ha":1389,"x_min":0,"x_max":0,"o":""},"✮":{"ha":1389,"x_min":0,"x_max":0,"o":""},"✯":{"ha":1389,"x_min":0,"x_max":0,"o":""},"✰":{"ha":1389,"x_min":0,"x_max":0,"o":""},"✱":{"ha":1389,"x_min":0,"x_max":0,"o":""},"✲":{"ha":1389,"x_min":0,"x_max":0,"o":""},"✳":{"ha":1389,"x_min":0,"x_max":0,"o":""},"✴":{"ha":1389,"x_min":0,"x_max":0,"o":""},"✵":{"ha":1389,"x_min":0,"x_max":0,"o":""},"✶":{"ha":1389,"x_min":0,"x_max":0,"o":""},"✷":{"ha":1389,"x_min":0,"x_max":0,"o":""},"✸":{"ha":1389,"x_min":0,"x_max":0,"o":""},"✹":{"ha":1389,"x_min":0,"x_max":0,"o":""},"✺":{"ha":1389,"x_min":0,"x_max":0,"o":""},"✻":{"ha":1389,"x_min":0,"x_max":0,"o":""},"✼":{"ha":1389,"x_min":0,"x_max":0,"o":""},"✽":{"ha":1389,"x_min":0,"x_max":0,"o":""},"✾":{"ha":1389,"x_min":0,"x_max":0,"o":""},"✿":{"ha":1389,"x_min":0,"x_max":0,"o":""},"❀":{"ha":1389,"x_min":0,"x_max":0,"o":""},"❁":{"ha":1389,"x_min":0,"x_max":0,"o":""},"❂":{"ha":1389,"x_min":0,"x_max":0,"o":""},"❃":{"ha":1389,"x_min":0,"x_max":0,"o":""},"❄":{"ha":1389,"x_min":0,"x_max":0,"o":""},"❅":{"ha":1389,"x_min":0,"x_max":0,"o":""},"❆":{"ha":1389,"x_min":0,"x_max":0,"o":""},"❇":{"ha":1389,"x_min":0,"x_max":0,"o":""},"❈":{"ha":1389,"x_min":0,"x_max":0,"o":""},"❉":{"ha":1389,"x_min":0,"x_max":0,"o":""},"❊":{"ha":1389,"x_min":0,"x_max":0,"o":""},"❋":{"ha":1389,"x_min":0,"x_max":0,"o":""},"❍":{"ha":1389,"x_min":0,"x_max":0,"o":""},"❏":{"ha":1389,"x_min":0,"x_max":0,"o":""},"❐":{"ha":1389,"x_min":0,"x_max":0,"o":""},"❑":{"ha":1389,"x_min":0,"x_max":0,"o":""},"❒":{"ha":1389,"x_min":0,"x_max":0,"o":""},"❖":{"ha":1389,"x_min":0,"x_max":0,"o":""},"❘":{"ha":1389,"x_min":0,"x_max":0,"o":""},"❙":{"ha":1389,"x_min":0,"x_max":0,"o":""},"❚":{"ha":1389,"x_min":0,"x_max":0,"o":""},"❛":{"ha":1389,"x_min":0,"x_max":0,"o":""},"❜":{"ha":1389,"x_min":0,"x_max":0,"o":""},"❝":{"ha":1389,"x_min":0,"x_max":0,"o":""},"❞":{"ha":1389,"x_min":0,"x_max":0,"o":""},"❡":{"ha":1389,"x_min":0,"x_max":0,"o":""},"❢":{"ha":1389,"x_min":0,"x_max":0,"o":""},"❣":{"ha":1389,"x_min":0,"x_max":0,"o":""},"❤":{"ha":1389,"x_min":0,"x_max":0,"o":""},"❥":{"ha":1389,"x_min":0,"x_max":0,"o":""},"❦":{"ha":1389,"x_min":0,"x_max":0,"o":""},"❧":{"ha":1389,"x_min":0,"x_max":0,"o":""},"❶":{"ha":1389,"x_min":0,"x_max":0,"o":""},"❷":{"ha":1389,"x_min":0,"x_max":0,"o":""},"❸":{"ha":1389,"x_min":0,"x_max":0,"o":""},"❹":{"ha":1389,"x_min":0,"x_max":0,"o":""},"❺":{"ha":1389,"x_min":0,"x_max":0,"o":""},"❻":{"ha":1389,"x_min":0,"x_max":0,"o":""},"❼":{"ha":1389,"x_min":0,"x_max":0,"o":""},"❽":{"ha":1389,"x_min":0,"x_max":0,"o":""},"❾":{"ha":1389,"x_min":0,"x_max":0,"o":""},"❿":{"ha":1389,"x_min":0,"x_max":0,"o":""},"➀":{"ha":1389,"x_min":0,"x_max":0,"o":""},"➁":{"ha":1389,"x_min":0,"x_max":0,"o":""},"➂":{"ha":1389,"x_min":0,"x_max":0,"o":""},"➃":{"ha":1389,"x_min":0,"x_max":0,"o":""},"➄":{"ha":1389,"x_min":0,"x_max":0,"o":""},"➅":{"ha":1389,"x_min":0,"x_max":0,"o":""},"➆":{"ha":1389,"x_min":0,"x_max":0,"o":""},"➇":{"ha":1389,"x_min":0,"x_max":0,"o":""},"➈":{"ha":1389,"x_min":0,"x_max":0,"o":""},"➉":{"ha":1389,"x_min":0,"x_max":0,"o":""},"➊":{"ha":1389,"x_min":0,"x_max":0,"o":""},"➋":{"ha":1389,"x_min":0,"x_max":0,"o":""},"➌":{"ha":1389,"x_min":0,"x_max":0,"o":""},"➍":{"ha":1389,"x_min":0,"x_max":0,"o":""},"➎":{"ha":1389,"x_min":0,"x_max":0,"o":""},"➏":{"ha":1389,"x_min":0,"x_max":0,"o":""},"➐":{"ha":1389,"x_min":0,"x_max":0,"o":""},"➑":{"ha":1389,"x_min":0,"x_max":0,"o":""},"➒":{"ha":1389,"x_min":0,"x_max":0,"o":""},"➓":{"ha":1389,"x_min":0,"x_max":0,"o":""},"➔":{"ha":1389,"x_min":0,"x_max":0,"o":""},"➘":{"ha":1389,"x_min":0,"x_max":0,"o":""},"➙":{"ha":1389,"x_min":0,"x_max":0,"o":""},"➚":{"ha":1389,"x_min":0,"x_max":0,"o":""},"➛":{"ha":1389,"x_min":0,"x_max":0,"o":""},"➜":{"ha":1389,"x_min":0,"x_max":0,"o":""},"➝":{"ha":1389,"x_min":0,"x_max":0,"o":""},"➞":{"ha":1389,"x_min":0,"x_max":0,"o":""},"➟":{"ha":1389,"x_min":0,"x_max":0,"o":""},"➠":{"ha":1389,"x_min":0,"x_max":0,"o":""},"➡":{"ha":1389,"x_min":0,"x_max":0,"o":""},"➢":{"ha":1389,"x_min":0,"x_max":0,"o":""},"➣":{"ha":1389,"x_min":0,"x_max":0,"o":""},"➤":{"ha":1389,"x_min":0,"x_max":0,"o":""},"➥":{"ha":1389,"x_min":0,"x_max":0,"o":""},"➦":{"ha":1389,"x_min":0,"x_max":0,"o":""},"➧":{"ha":1389,"x_min":0,"x_max":0,"o":""},"➨":{"ha":1389,"x_min":0,"x_max":0,"o":""},"➩":{"ha":1389,"x_min":0,"x_max":0,"o":""},"➪":{"ha":1389,"x_min":0,"x_max":0,"o":""},"➫":{"ha":1389,"x_min":0,"x_max":0,"o":""},"➬":{"ha":1389,"x_min":0,"x_max":0,"o":""},"➭":{"ha":1389,"x_min":0,"x_max":0,"o":""},"➮":{"ha":1389,"x_min":0,"x_max":0,"o":""},"➯":{"ha":1389,"x_min":0,"x_max":0,"o":""},"➱":{"ha":1389,"x_min":0,"x_max":0,"o":""},"➲":{"ha":1389,"x_min":0,"x_max":0,"o":""},"➳":{"ha":1389,"x_min":0,"x_max":0,"o":""},"➴":{"ha":1389,"x_min":0,"x_max":0,"o":""},"➵":{"ha":1389,"x_min":0,"x_max":0,"o":""},"➶":{"ha":1389,"x_min":0,"x_max":0,"o":""},"➷":{"ha":1389,"x_min":0,"x_max":0,"o":""},"➸":{"ha":1389,"x_min":0,"x_max":0,"o":""},"➹":{"ha":1389,"x_min":0,"x_max":0,"o":""},"➺":{"ha":1389,"x_min":0,"x_max":0,"o":""},"➻":{"ha":1389,"x_min":0,"x_max":0,"o":""},"➼":{"ha":1389,"x_min":0,"x_max":0,"o":""},"➽":{"ha":1389,"x_min":0,"x_max":0,"o":""},"➾":{"ha":1389,"x_min":0,"x_max":0,"o":""},"　":{"ha":1389,"x_min":0,"x_max":0,"o":""},"、":{"ha":1389,"x_min":174,"x_max":865,"o":"m 694 0 l 694 174 l 521 174 l 521 347 l 347 347 l 347 521 l 174 521 l 174 692 l 345 692 l 345 518 l 518 518 l 518 345 l 692 345 l 692 171 l 865 171 l 865 0 l 694 0 z "},"。":{"ha":1389,"x_min":174,"x_max":865,"o":"m 347 0 l 347 174 l 174 174 l 174 518 l 347 518 l 347 692 l 692 692 l 692 518 l 865 518 l 865 174 l 692 174 l 692 0 l 347 0 m 694 176 l 694 521 l 345 521 l 345 171 l 694 171 l 694 176 z "},"〃":{"ha":1389,"x_min":0,"x_max":0,"o":""},"〄":{"ha":1389,"x_min":0,"x_max":0,"o":""},"々":{"ha":1389,"x_min":0,"x_max":0,"o":""},"〆":{"ha":1389,"x_min":0,"x_max":0,"o":""},"〇":{"ha":1389,"x_min":0,"x_max":0,"o":""},"〈":{"ha":1389,"x_min":0,"x_max":0,"o":""},"〉":{"ha":1389,"x_min":0,"x_max":0,"o":""},"《":{"ha":1389,"x_min":0,"x_max":0,"o":""},"》":{"ha":1389,"x_min":0,"x_max":0,"o":""},"「":{"ha":1389,"x_min":347,"x_max":1039,"o":"m 347 694 l 347 1386 l 1039 1386 l 1039 1215 l 518 1215 l 518 694 l 347 694 z "},"」":{"ha":1389,"x_min":0,"x_max":0,"o":""},"『":{"ha":1389,"x_min":0,"x_max":0,"o":""},"』":{"ha":1389,"x_min":0,"x_max":0,"o":""},"【":{"ha":1389,"x_min":0,"x_max":0,"o":""},"】":{"ha":1389,"x_min":0,"x_max":0,"o":""},"〒":{"ha":1389,"x_min":0,"x_max":0,"o":""},"〓":{"ha":1389,"x_min":0,"x_max":0,"o":""},"〔":{"ha":1389,"x_min":0,"x_max":0,"o":""},"〕":{"ha":1389,"x_min":0,"x_max":0,"o":""},"〖":{"ha":1389,"x_min":0,"x_max":0,"o":""},"〗":{"ha":1389,"x_min":0,"x_max":0,"o":""},"〘":{"ha":1389,"x_min":0,"x_max":0,"o":""},"〙":{"ha":1389,"x_min":0,"x_max":0,"o":""},"〚":{"ha":1389,"x_min":0,"x_max":0,"o":""},"〛":{"ha":1389,"x_min":0,"x_max":0,"o":""},"〜":{"ha":1389,"x_min":0,"x_max":0,"o":""},"〝":{"ha":1389,"x_min":0,"x_max":0,"o":""},"〞":{"ha":1389,"x_min":0,"x_max":0,"o":""},"〟":{"ha":1389,"x_min":0,"x_max":0,"o":""},"〠":{"ha":1389,"x_min":0,"x_max":0,"o":""},"〰":{"ha":1389,"x_min":0,"x_max":0,"o":""},"〱":{"ha":1389,"x_min":0,"x_max":0,"o":""},"〲":{"ha":1389,"x_min":0,"x_max":0,"o":""},"〳":{"ha":1389,"x_min":0,"x_max":0,"o":""},"〴":{"ha":1389,"x_min":0,"x_max":0,"o":""},"〵":{"ha":1389,"x_min":0,"x_max":0,"o":""},"〶":{"ha":1389,"x_min":0,"x_max":0,"o":""},"〷":{"ha":1389,"x_min":0,"x_max":0,"o":""},"ぁ":{"ha":1389,"x_min":0,"x_max":1213,"o":"m 174 0 l 174 174 l 0 174 l 0 518 l 174 518 l 174 692 l 347 692 l 347 1042 l 0 1042 l 0 1213 l 347 1213 l 347 1386 l 518 1386 l 518 1213 l 1039 1213 l 1039 1042 l 518 1042 l 518 865 l 1039 865 l 1039 692 l 1213 692 l 1213 174 l 1039 174 l 1039 0 l 868 0 l 868 171 l 1042 171 l 1042 521 l 865 521 l 865 347 l 692 347 l 692 174 l 518 174 l 518 0 l 174 0 m 521 176 l 521 347 l 347 347 l 347 521 l 171 521 l 171 171 l 521 171 l 521 176 m 694 350 l 694 518 l 868 518 l 868 694 l 518 694 l 518 345 l 694 345 l 694 350 z "},"あ":{"ha":1389,"x_min":0,"x_max":1213,"o":"m 174 0 l 174 174 l 0 174 l 0 518 l 174 518 l 174 692 l 347 692 l 347 1042 l 0 1042 l 0 1213 l 347 1213 l 347 1386 l 518 1386 l 518 1213 l 1039 1213 l 1039 1042 l 518 1042 l 518 865 l 1039 865 l 1039 692 l 1213 692 l 1213 174 l 1039 174 l 1039 0 l 868 0 l 868 171 l 1042 171 l 1042 521 l 865 521 l 865 347 l 692 347 l 692 174 l 518 174 l 518 0 l 174 0 m 521 176 l 521 347 l 347 347 l 347 521 l 171 521 l 171 171 l 521 171 l 521 176 m 694 350 l 694 518 l 868 518 l 868 694 l 518 694 l 518 345 l 694 345 l 694 350 z "},"ぃ":{"ha":1389,"x_min":0,"x_max":1213,"o":"m 174 0 l 174 174 l 0 174 l 0 1213 l 171 1213 l 171 171 l 521 171 l 521 345 l 692 345 l 692 174 l 518 174 l 518 0 l 174 0 m 1042 347 l 1042 1042 l 868 1042 l 868 1213 l 1039 1213 l 1039 1039 l 1213 1039 l 1213 347 l 1042 347 z "},"い":{"ha":1389,"x_min":0,"x_max":1213,"o":"m 174 0 l 174 174 l 0 174 l 0 1213 l 171 1213 l 171 171 l 521 171 l 521 345 l 692 345 l 692 174 l 518 174 l 518 0 l 174 0 m 1042 347 l 1042 1042 l 868 1042 l 868 1213 l 1039 1213 l 1039 1039 l 1213 1039 l 1213 347 l 1042 347 z "},"ぅ":{"ha":1389,"x_min":174,"x_max":1213,"o":"m 521 0 l 521 171 l 868 171 l 868 345 l 1042 345 l 1042 868 l 345 868 l 345 694 l 174 694 l 174 865 l 347 865 l 347 1039 l 1039 1039 l 1039 865 l 1213 865 l 1213 347 l 1039 347 l 1039 174 l 865 174 l 865 0 l 521 0 m 347 1215 l 347 1386 l 865 1386 l 865 1215 l 347 1215 z "},"う":{"ha":1389,"x_min":174,"x_max":1213,"o":"m 521 0 l 521 171 l 868 171 l 868 345 l 1042 345 l 1042 868 l 345 868 l 345 694 l 174 694 l 174 865 l 347 865 l 347 1039 l 1039 1039 l 1039 865 l 1213 865 l 1213 347 l 1039 347 l 1039 174 l 865 174 l 865 0 l 521 0 m 347 1215 l 347 1386 l 865 1386 l 865 1215 l 347 1215 z "},"ぇ":{"ha":1389,"x_min":174,"x_max":1213,"o":"m 174 0 l 174 171 l 347 171 l 347 345 l 521 345 l 521 518 l 694 518 l 694 692 l 868 692 l 868 868 l 174 868 l 174 1039 l 1213 1039 l 1213 868 l 1039 868 l 1039 694 l 865 694 l 865 171 l 1213 171 l 1213 0 l 694 0 l 694 347 l 518 347 l 518 174 l 345 174 l 345 0 l 174 0 m 347 1215 l 347 1386 l 692 1386 l 692 1215 l 347 1215 z "},"え":{"ha":1389,"x_min":174,"x_max":1213,"o":"m 174 0 l 174 171 l 347 171 l 347 345 l 521 345 l 521 518 l 694 518 l 694 692 l 868 692 l 868 868 l 174 868 l 174 1039 l 1213 1039 l 1213 868 l 1039 868 l 1039 694 l 865 694 l 865 171 l 1213 171 l 1213 0 l 694 0 l 694 347 l 518 347 l 518 174 l 345 174 l 345 0 l 174 0 m 347 1215 l 347 1386 l 692 1386 l 692 1215 l 347 1215 z "},"ぉ":{"ha":1389,"x_min":0,"x_max":1213,"o":"m 174 0 l 174 174 l 0 174 l 0 518 l 174 518 l 174 692 l 347 692 l 347 1042 l 0 1042 l 0 1213 l 347 1213 l 347 1386 l 518 1386 l 518 1213 l 865 1213 l 865 1042 l 518 1042 l 518 865 l 1039 865 l 1039 692 l 1213 692 l 1213 174 l 1039 174 l 1039 0 l 868 0 l 868 171 l 1042 171 l 1042 694 l 518 694 l 518 0 l 174 0 m 347 171 l 347 521 l 171 521 l 171 171 l 347 171 m 1042 1042 l 1042 1386 l 1213 1386 l 1213 1042 l 1042 1042 z "},"お":{"ha":1389,"x_min":0,"x_max":1213,"o":"m 174 0 l 174 174 l 0 174 l 0 518 l 174 518 l 174 692 l 347 692 l 347 1042 l 0 1042 l 0 1213 l 347 1213 l 347 1386 l 518 1386 l 518 1213 l 865 1213 l 865 1042 l 518 1042 l 518 865 l 1039 865 l 1039 692 l 1213 692 l 1213 174 l 1039 174 l 1039 0 l 868 0 l 868 171 l 1042 171 l 1042 694 l 518 694 l 518 0 l 174 0 m 347 171 l 347 521 l 171 521 l 171 171 l 347 171 m 1042 1042 l 1042 1386 l 1213 1386 l 1213 1042 l 1042 1042 z "},"か":{"ha":1389,"x_min":0,"x_max":1213,"o":"m 0 0 l 0 345 l 174 345 l 174 692 l 347 692 l 347 868 l 0 868 l 0 1039 l 347 1039 l 347 1386 l 518 1386 l 518 1039 l 692 1039 l 692 865 l 865 865 l 865 174 l 692 174 l 692 0 l 521 0 l 521 174 l 347 174 l 347 347 l 171 347 l 171 0 l 0 0 m 694 176 l 694 868 l 518 868 l 518 694 l 345 694 l 345 345 l 518 345 l 518 171 l 694 171 l 694 176 m 1042 694 l 1042 1042 l 868 1042 l 868 1213 l 1039 1213 l 1039 1039 l 1213 1039 l 1213 694 l 1042 694 z "},"が":{"ha":1389,"x_min":0,"x_max":0,"o":""},"き":{"ha":1389,"x_min":0,"x_max":1039,"o":"m 174 0 l 174 174 l 0 174 l 0 345 l 171 345 l 171 171 l 865 171 l 865 0 l 174 0 m 521 347 l 521 518 l 694 518 l 694 694 l 0 694 l 0 865 l 521 865 l 521 1042 l 0 1042 l 0 1213 l 347 1213 l 347 1386 l 518 1386 l 518 1213 l 1039 1213 l 1039 1042 l 692 1042 l 692 865 l 1039 865 l 1039 694 l 865 694 l 865 347 l 521 347 z "},"ぎ":{"ha":1389,"x_min":0,"x_max":0,"o":""},"く":{"ha":1389,"x_min":347,"x_max":1039,"o":"m 868 0 l 868 174 l 694 174 l 694 347 l 521 347 l 521 521 l 347 521 l 347 865 l 521 865 l 521 1039 l 694 1039 l 694 1213 l 868 1213 l 868 1386 l 1039 1386 l 1039 1215 l 865 1215 l 865 1042 l 692 1042 l 692 868 l 518 868 l 518 518 l 692 518 l 692 345 l 865 345 l 865 171 l 1039 171 l 1039 0 l 868 0 z "},"ぐ":{"ha":1389,"x_min":0,"x_max":0,"o":""},"け":{"ha":1389,"x_min":0,"x_max":1213,"o":"m 694 0 l 694 171 l 868 171 l 868 868 l 521 868 l 521 1039 l 868 1039 l 868 1386 l 1039 1386 l 1039 1039 l 1213 1039 l 1213 868 l 1039 868 l 1039 174 l 865 174 l 865 0 l 694 0 m 0 174 l 0 1213 l 171 1213 l 171 174 l 0 174 z "},"げ":{"ha":1389,"x_min":0,"x_max":0,"o":""},"こ":{"ha":1389,"x_min":0,"x_max":1039,"o":"m 174 0 l 174 174 l 0 174 l 0 345 l 174 345 l 174 518 l 345 518 l 345 347 l 171 347 l 171 171 l 1039 171 l 1039 0 l 174 0 m 868 868 l 868 1042 l 174 1042 l 174 1213 l 865 1213 l 865 1039 l 1039 1039 l 1039 868 l 868 868 z "},"ご":{"ha":1389,"x_min":0,"x_max":0,"o":""},"さ":{"ha":1389,"x_min":0,"x_max":1213,"o":"m 347 0 l 347 174 l 174 174 l 174 347 l 0 347 l 0 518 l 171 518 l 171 345 l 345 345 l 345 171 l 1039 171 l 1039 0 l 347 0 m 694 521 l 694 868 l 0 868 l 0 1039 l 521 1039 l 521 1215 l 347 1215 l 347 1386 l 518 1386 l 518 1213 l 692 1213 l 692 1039 l 1213 1039 l 1213 868 l 865 868 l 865 692 l 1039 692 l 1039 521 l 694 521 z "},"ざ":{"ha":1389,"x_min":0,"x_max":0,"o":""},"し":{"ha":1389,"x_min":174,"x_max":1039,"o":"m 347 0 l 347 174 l 174 174 l 174 1386 l 345 1386 l 345 171 l 868 171 l 868 518 l 1039 518 l 1039 174 l 865 174 l 865 0 l 347 0 z "},"じ":{"ha":1389,"x_min":174,"x_max":1213,"o":"m 347 0 l 347 174 l 174 174 l 174 1386 l 345 1386 l 345 171 l 868 171 l 868 518 l 1039 518 l 1039 174 l 865 174 l 865 0 l 347 0 m 694 694 l 694 868 l 521 868 l 521 1039 l 692 1039 l 692 865 l 865 865 l 865 694 l 694 694 m 1042 868 l 1042 1042 l 868 1042 l 868 1213 l 1039 1213 l 1039 1039 l 1213 1039 l 1213 868 l 1042 868 z "},"す":{"ha":1389,"x_min":0,"x_max":1213,"o":"m 521 0 l 521 171 l 694 171 l 694 347 l 347 347 l 347 521 l 174 521 l 174 865 l 694 865 l 694 1042 l 0 1042 l 0 1213 l 694 1213 l 694 1386 l 865 1386 l 865 1213 l 1213 1213 l 1213 1042 l 865 1042 l 865 174 l 692 174 l 692 0 l 521 0 m 694 518 l 694 694 l 345 694 l 345 518 l 694 518 z "},"ず":{"ha":1389,"x_min":0,"x_max":0,"o":""},"せ":{"ha":1389,"x_min":0,"x_max":1213,"o":"m 347 0 l 347 174 l 174 174 l 174 868 l 0 868 l 0 1039 l 174 1039 l 174 1386 l 345 1386 l 345 1039 l 868 1039 l 868 1386 l 1039 1386 l 1039 1039 l 1213 1039 l 1213 868 l 1039 868 l 1039 521 l 865 521 l 865 347 l 694 347 l 694 518 l 868 518 l 868 868 l 345 868 l 345 171 l 1039 171 l 1039 0 l 347 0 z "},"ぜ":{"ha":1389,"x_min":0,"x_max":0,"o":""},"そ":{"ha":1389,"x_min":0,"x_max":1213,"o":"m 521 0 l 521 174 l 347 174 l 347 518 l 521 518 l 521 694 l 0 694 l 0 865 l 347 865 l 347 1039 l 521 1039 l 521 1215 l 174 1215 l 174 1386 l 865 1386 l 865 1215 l 692 1215 l 692 1042 l 518 1042 l 518 865 l 1213 865 l 1213 694 l 692 694 l 692 521 l 518 521 l 518 171 l 1039 171 l 1039 0 l 521 0 z "},"ぞ":{"ha":1389,"x_min":0,"x_max":0,"o":""},"た":{"ha":1389,"x_min":0,"x_max":1213,"o":"m 0 0 l 0 345 l 174 345 l 174 692 l 347 692 l 347 868 l 0 868 l 0 1039 l 347 1039 l 347 1386 l 518 1386 l 518 1039 l 1039 1039 l 1039 868 l 518 868 l 518 694 l 345 694 l 345 347 l 171 347 l 171 0 l 0 0 m 694 0 l 694 174 l 521 174 l 521 345 l 692 345 l 692 171 l 1213 171 l 1213 0 l 694 0 m 694 521 l 694 692 l 1213 692 l 1213 521 l 694 521 z "},"だ":{"ha":1389,"x_min":0,"x_max":1386,"o":"m 0 0 l 0 345 l 174 345 l 174 692 l 347 692 l 347 868 l 0 868 l 0 1039 l 347 1039 l 347 1386 l 518 1386 l 518 1039 l 868 1039 l 868 1215 l 694 1215 l 694 1386 l 865 1386 l 865 1213 l 1042 1213 l 1042 1386 l 1213 1386 l 1213 1213 l 1386 1213 l 1386 1042 l 1215 1042 l 1215 1215 l 1039 1215 l 1039 1042 l 865 1042 l 865 868 l 518 868 l 518 694 l 345 694 l 345 347 l 171 347 l 171 0 l 0 0 m 694 0 l 694 174 l 521 174 l 521 345 l 692 345 l 692 171 l 1213 171 l 1213 0 l 694 0 m 694 521 l 694 692 l 1213 692 l 1213 521 l 694 521 z "},"ち":{"ha":1389,"x_min":0,"x_max":1213,"o":"m 347 0 l 347 171 l 1042 171 l 1042 521 l 345 521 l 345 347 l 174 347 l 174 518 l 347 518 l 347 868 l 0 868 l 0 1039 l 347 1039 l 347 1386 l 518 1386 l 518 1039 l 1039 1039 l 1039 868 l 518 868 l 518 692 l 1039 692 l 1039 518 l 1213 518 l 1213 174 l 1039 174 l 1039 0 l 347 0 z "},"ぢ":{"ha":1389,"x_min":0,"x_max":0,"o":""},"っ":{"ha":1389,"x_min":0,"x_max":865,"o":"m 174 0 l 174 171 l 521 171 l 521 345 l 694 345 l 694 694 l 0 694 l 0 865 l 692 865 l 692 692 l 865 692 l 865 347 l 692 347 l 692 174 l 518 174 l 518 0 l 174 0 z "},"つ":{"ha":1389,"x_min":0,"x_max":1213,"o":"m 347 0 l 347 171 l 694 171 l 694 345 l 1042 345 l 1042 868 l 0 868 l 0 1039 l 1039 1039 l 1039 865 l 1213 865 l 1213 347 l 1039 347 l 1039 174 l 692 174 l 692 0 l 347 0 z "},"づ":{"ha":1389,"x_min":0,"x_max":0,"o":""},"て":{"ha":1389,"x_min":0,"x_max":1213,"o":"m 694 0 l 694 174 l 521 174 l 521 347 l 347 347 l 347 692 l 521 692 l 521 865 l 694 865 l 694 1042 l 0 1042 l 0 1213 l 1213 1213 l 1213 1042 l 1039 1042 l 1039 868 l 692 868 l 692 694 l 518 694 l 518 345 l 692 345 l 692 171 l 1039 171 l 1039 0 l 694 0 z "},"で":{"ha":1389,"x_min":0,"x_max":0,"o":""},"と":{"ha":1389,"x_min":0,"x_max":1213,"o":"m 174 0 l 174 174 l 0 174 l 0 518 l 174 518 l 174 692 l 347 692 l 347 1386 l 518 1386 l 518 865 l 694 865 l 694 1039 l 1039 1039 l 1039 868 l 692 868 l 692 694 l 345 694 l 345 521 l 171 521 l 171 171 l 1213 171 l 1213 0 l 174 0 z "},"ど":{"ha":1389,"x_min":0,"x_max":1386,"o":"m 174 0 l 174 174 l 0 174 l 0 518 l 174 518 l 174 692 l 347 692 l 347 1386 l 518 1386 l 518 865 l 1039 865 l 1039 694 l 345 694 l 345 521 l 171 521 l 171 171 l 1213 171 l 1213 0 l 174 0 m 868 1042 l 868 1215 l 694 1215 l 694 1386 l 865 1386 l 865 1213 l 1042 1213 l 1042 1386 l 1213 1386 l 1213 1213 l 1386 1213 l 1386 1042 l 1215 1042 l 1215 1215 l 1039 1215 l 1039 1042 l 868 1042 z "},"な":{"ha":1389,"x_min":0,"x_max":1213,"o":"m 347 0 l 347 174 l 174 174 l 174 345 l 347 345 l 347 518 l 694 518 l 694 692 l 865 692 l 865 345 l 1039 345 l 1039 174 l 865 174 l 865 0 l 347 0 m 694 171 l 694 347 l 345 347 l 345 171 l 694 171 m 0 521 l 0 692 l 174 692 l 174 868 l 0 868 l 0 1039 l 347 1039 l 347 1386 l 518 1386 l 518 1039 l 692 1039 l 692 868 l 345 868 l 345 694 l 171 694 l 171 521 l 0 521 m 1042 868 l 1042 1042 l 868 1042 l 868 1213 l 1039 1213 l 1039 1039 l 1213 1039 l 1213 868 l 1042 868 z "},"に":{"ha":1389,"x_min":0,"x_max":1213,"o":"m 0 0 l 0 1213 l 171 1213 l 171 0 l 0 0 m 521 0 l 521 174 l 347 174 l 347 345 l 518 345 l 518 171 l 1213 171 l 1213 0 l 521 0 m 521 1042 l 521 1213 l 1213 1213 l 1213 1042 l 521 1042 z "},"ぬ":{"ha":1389,"x_min":0,"x_max":1386,"o":"m 174 0 l 174 174 l 0 174 l 0 692 l 174 692 l 174 1213 l 345 1213 l 345 865 l 521 865 l 521 1039 l 694 1039 l 694 1386 l 865 1386 l 865 1039 l 1039 1039 l 1039 865 l 1213 865 l 1213 171 l 1386 171 l 1386 0 l 1215 0 l 1215 174 l 1039 174 l 1039 0 l 694 0 l 694 521 l 518 521 l 518 174 l 345 174 l 345 0 l 174 0 m 347 176 l 347 521 l 171 521 l 171 171 l 347 171 l 347 176 m 1042 176 l 1042 347 l 865 347 l 865 171 l 1042 171 l 1042 176 m 1042 518 l 1042 868 l 865 868 l 865 694 l 692 694 l 692 518 l 1042 518 m 521 524 l 521 694 l 345 694 l 345 518 l 521 518 l 521 524 m 694 697 l 694 868 l 518 868 l 518 692 l 694 692 l 694 697 z "},"ね":{"ha":1389,"x_min":0,"x_max":1213,"o":"m 347 0 l 347 347 l 171 347 l 171 174 l 0 174 l 0 345 l 174 345 l 174 518 l 347 518 l 347 868 l 0 868 l 0 1039 l 347 1039 l 347 1386 l 518 1386 l 518 865 l 694 865 l 694 1039 l 1039 1039 l 1039 865 l 1213 865 l 1213 0 l 694 0 l 694 345 l 868 345 l 868 518 l 1042 518 l 1042 868 l 692 868 l 692 694 l 518 694 l 518 0 l 347 0 m 1042 171 l 1042 347 l 865 347 l 865 171 l 1042 171 z "},"の":{"ha":1389,"x_min":0,"x_max":1213,"o":"m 174 0 l 174 174 l 0 174 l 0 865 l 174 865 l 174 1039 l 347 1039 l 347 1213 l 865 1213 l 865 1039 l 1039 1039 l 1039 865 l 1213 865 l 1213 174 l 1039 174 l 1039 0 l 868 0 l 868 171 l 1042 171 l 1042 868 l 868 868 l 868 1042 l 692 1042 l 692 174 l 518 174 l 518 0 l 174 0 m 521 176 l 521 1042 l 345 1042 l 345 868 l 171 868 l 171 171 l 521 171 l 521 176 z "},"は":{"ha":1389,"x_min":0,"x_max":1213,"o":"m 0 0 l 0 1213 l 171 1213 l 171 0 l 0 0 m 521 0 l 521 174 l 347 174 l 347 345 l 521 345 l 521 518 l 868 518 l 868 868 l 521 868 l 521 1042 l 868 1042 l 868 1386 l 1039 1386 l 1039 1042 l 1213 1042 l 1213 868 l 1039 868 l 1039 518 l 1213 518 l 1213 347 l 1039 347 l 1039 0 l 521 0 m 868 171 l 868 347 l 518 347 l 518 171 l 868 171 z "},"ば":{"ha":1389,"x_min":0,"x_max":0,"o":""},"ぱ":{"ha":1389,"x_min":0,"x_max":0,"o":""},"ひ":{"ha":1389,"x_min":0,"x_max":1213,"o":"m 174 0 l 174 174 l 0 174 l 0 865 l 174 865 l 174 1039 l 347 1039 l 347 1215 l 0 1215 l 0 1386 l 692 1386 l 692 1215 l 518 1215 l 518 1042 l 345 1042 l 345 868 l 171 868 l 171 171 l 694 171 l 694 518 l 868 518 l 868 1213 l 1039 1213 l 1039 1039 l 1213 1039 l 1213 868 l 1039 868 l 1039 521 l 865 521 l 865 174 l 692 174 l 692 0 l 174 0 z "},"び":{"ha":1389,"x_min":0,"x_max":0,"o":""},"ぴ":{"ha":1389,"x_min":0,"x_max":0,"o":""},"ふ":{"ha":1389,"x_min":0,"x_max":1213,"o":"m 347 0 l 347 171 l 694 171 l 694 694 l 521 694 l 521 865 l 692 865 l 692 692 l 865 692 l 865 174 l 692 174 l 692 0 l 347 0 m 0 174 l 0 518 l 174 518 l 174 692 l 345 692 l 345 521 l 171 521 l 171 174 l 0 174 m 1042 174 l 1042 518 l 1213 518 l 1213 174 l 1042 174 m 694 1042 l 694 1215 l 347 1215 l 347 1386 l 692 1386 l 692 1213 l 865 1213 l 865 1042 l 694 1042 z "},"ぶ":{"ha":1389,"x_min":0,"x_max":1386,"o":"m 521 0 l 521 171 l 694 171 l 694 694 l 521 694 l 521 865 l 692 865 l 692 692 l 865 692 l 865 174 l 692 174 l 692 0 l 521 0 m 0 174 l 0 518 l 174 518 l 174 692 l 345 692 l 345 521 l 171 521 l 171 174 l 0 174 m 1042 174 l 1042 518 l 1213 518 l 1213 174 l 1042 174 m 1215 694 l 1215 868 l 1042 868 l 1042 1039 l 1215 1039 l 1215 1215 l 1042 1215 l 1042 1386 l 1213 1386 l 1213 1213 l 1386 1213 l 1386 1042 l 1213 1042 l 1213 865 l 1386 865 l 1386 694 l 1215 694 m 694 1042 l 694 1215 l 347 1215 l 347 1386 l 692 1386 l 692 1213 l 865 1213 l 865 1042 l 694 1042 z "},"ぷ":{"ha":1389,"x_min":0,"x_max":0,"o":""},"へ":{"ha":1389,"x_min":0,"x_max":1213,"o":"m 1042 347 l 1042 521 l 868 521 l 868 694 l 694 694 l 694 868 l 521 868 l 521 1042 l 345 1042 l 345 868 l 171 868 l 171 694 l 0 694 l 0 865 l 174 865 l 174 1039 l 347 1039 l 347 1213 l 518 1213 l 518 1039 l 692 1039 l 692 865 l 865 865 l 865 692 l 1039 692 l 1039 518 l 1213 518 l 1213 347 l 1042 347 z "},"べ":{"ha":1389,"x_min":0,"x_max":0,"o":""},"ぺ":{"ha":1389,"x_min":0,"x_max":0,"o":""},"ほ":{"ha":1389,"x_min":0,"x_max":1213,"o":"m 0 0 l 0 1386 l 171 1386 l 171 0 l 0 0 m 521 0 l 521 174 l 347 174 l 347 518 l 521 518 l 521 692 l 868 692 l 868 868 l 521 868 l 521 1039 l 868 1039 l 868 1215 l 521 1215 l 521 1386 l 1213 1386 l 1213 1215 l 1039 1215 l 1039 1039 l 1213 1039 l 1213 868 l 1039 868 l 1039 518 l 1213 518 l 1213 347 l 1039 347 l 1039 0 l 521 0 m 868 171 l 868 521 l 518 521 l 518 171 l 868 171 z "},"ぼ":{"ha":1389,"x_min":0,"x_max":0,"o":""},"ぽ":{"ha":1389,"x_min":0,"x_max":0,"o":""},"ま":{"ha":1389,"x_min":174,"x_max":1213,"o":"m 347 0 l 347 174 l 174 174 l 174 345 l 347 345 l 347 518 l 694 518 l 694 694 l 347 694 l 347 865 l 694 865 l 694 1042 l 347 1042 l 347 1213 l 694 1213 l 694 1386 l 865 1386 l 865 1213 l 1213 1213 l 1213 1042 l 865 1042 l 865 865 l 1213 865 l 1213 694 l 865 694 l 865 518 l 1039 518 l 1039 345 l 1213 345 l 1213 174 l 1042 174 l 1042 347 l 865 347 l 865 0 l 347 0 m 694 171 l 694 347 l 345 347 l 345 171 l 694 171 z "},"み":{"ha":1389,"x_min":0,"x_max":1213,"o":"m 174 0 l 174 174 l 0 174 l 0 518 l 174 518 l 174 692 l 521 692 l 521 1215 l 174 1215 l 174 1386 l 865 1386 l 865 1215 l 692 1215 l 692 692 l 1042 692 l 1042 1039 l 1213 1039 l 1213 347 l 1039 347 l 1039 174 l 865 174 l 865 0 l 694 0 l 694 171 l 868 171 l 868 345 l 1042 345 l 1042 521 l 518 521 l 518 174 l 345 174 l 345 0 l 174 0 m 347 176 l 347 521 l 171 521 l 171 171 l 347 171 l 347 176 z "},"む":{"ha":1389,"x_min":0,"x_max":1213,"o":"m 347 0 l 347 174 l 0 174 l 0 518 l 174 518 l 174 692 l 347 692 l 347 1042 l 0 1042 l 0 1213 l 347 1213 l 347 1386 l 518 1386 l 518 1213 l 692 1213 l 692 1042 l 518 1042 l 518 171 l 1042 171 l 1042 518 l 1213 518 l 1213 174 l 1039 174 l 1039 0 l 347 0 m 347 345 l 347 521 l 171 521 l 171 345 l 347 345 m 1042 868 l 1042 1213 l 1213 1213 l 1213 868 l 1042 868 z "},"め":{"ha":1389,"x_min":0,"x_max":1213,"o":"m 174 0 l 174 174 l 0 174 l 0 692 l 174 692 l 174 1213 l 345 1213 l 345 865 l 521 865 l 521 1039 l 694 1039 l 694 1386 l 865 1386 l 865 865 l 1039 865 l 1039 692 l 1213 692 l 1213 174 l 1039 174 l 1039 0 l 868 0 l 868 171 l 1042 171 l 1042 694 l 865 694 l 865 521 l 692 521 l 692 174 l 518 174 l 518 0 l 174 0 m 521 176 l 521 347 l 347 347 l 347 521 l 171 521 l 171 171 l 521 171 l 521 176 m 694 524 l 694 868 l 518 868 l 518 694 l 345 694 l 345 518 l 694 518 l 694 524 z "},"も":{"ha":1389,"x_min":0,"x_max":1213,"o":"m 521 0 l 521 174 l 347 174 l 347 521 l 0 521 l 0 692 l 347 692 l 347 868 l 0 868 l 0 1039 l 347 1039 l 347 1386 l 518 1386 l 518 1039 l 865 1039 l 865 868 l 518 868 l 518 692 l 865 692 l 865 521 l 518 521 l 518 171 l 1042 171 l 1042 345 l 1213 345 l 1213 174 l 1039 174 l 1039 0 l 521 0 z "},"ゃ":{"ha":1389,"x_min":0,"x_max":1039,"o":"m 347 0 l 347 521 l 174 521 l 174 694 l 0 694 l 0 865 l 174 865 l 174 1213 l 345 1213 l 345 1039 l 521 1039 l 521 1213 l 692 1213 l 692 1039 l 1039 1039 l 1039 521 l 865 521 l 865 347 l 518 347 l 518 0 l 347 0 m 868 524 l 868 868 l 692 868 l 692 694 l 521 694 l 521 868 l 345 868 l 345 518 l 868 518 l 868 524 z "},"や":{"ha":1389,"x_min":0,"x_max":1213,"o":"m 347 0 l 347 174 l 174 174 l 174 868 l 0 868 l 0 1039 l 174 1039 l 174 1386 l 345 1386 l 345 1039 l 694 1039 l 694 1386 l 865 1386 l 865 1039 l 1039 1039 l 1039 865 l 1213 865 l 1213 521 l 1039 521 l 1039 347 l 694 347 l 694 521 l 521 521 l 521 692 l 692 692 l 692 518 l 1042 518 l 1042 868 l 345 868 l 345 171 l 518 171 l 518 0 l 347 0 z "},"ゅ":{"ha":1389,"x_min":0,"x_max":1039,"o":"m 521 0 l 521 174 l 347 174 l 347 345 l 521 345 l 521 868 l 345 868 l 345 694 l 171 694 l 171 347 l 0 347 l 0 1039 l 171 1039 l 171 865 l 347 865 l 347 1039 l 521 1039 l 521 1213 l 692 1213 l 692 1039 l 865 1039 l 865 865 l 1039 865 l 1039 347 l 865 347 l 865 174 l 692 174 l 692 0 l 521 0 m 868 350 l 868 868 l 692 868 l 692 345 l 868 345 l 868 350 z "},"ゆ":{"ha":1389,"x_min":0,"x_max":1213,"o":"m 347 0 l 347 171 l 521 171 l 521 347 l 347 347 l 347 518 l 518 518 l 518 345 l 694 345 l 694 1042 l 345 1042 l 345 868 l 171 868 l 171 347 l 0 347 l 0 1213 l 171 1213 l 171 1039 l 347 1039 l 347 1213 l 694 1213 l 694 1386 l 865 1386 l 865 1213 l 1039 1213 l 1039 1039 l 1213 1039 l 1213 347 l 1039 347 l 1039 174 l 692 174 l 692 0 l 347 0 m 1042 350 l 1042 1042 l 865 1042 l 865 345 l 1042 345 l 1042 350 z "},"ょ":{"ha":1389,"x_min":0,"x_max":865,"o":"m 174 0 l 174 174 l 0 174 l 0 345 l 174 345 l 174 518 l 347 518 l 347 1039 l 518 1039 l 518 865 l 865 865 l 865 694 l 518 694 l 518 345 l 692 345 l 692 171 l 865 171 l 865 0 l 694 0 l 694 174 l 518 174 l 518 0 l 174 0 m 347 171 l 347 347 l 171 347 l 171 171 l 347 171 z "},"よ":{"ha":1389,"x_min":0,"x_max":1039,"o":"m 174 0 l 174 174 l 0 174 l 0 345 l 174 345 l 174 518 l 521 518 l 521 1386 l 692 1386 l 692 1213 l 1039 1213 l 1039 1042 l 692 1042 l 692 345 l 865 345 l 865 171 l 1039 171 l 1039 0 l 868 0 l 868 174 l 692 174 l 692 0 l 174 0 m 521 171 l 521 347 l 171 347 l 171 171 l 521 171 z "},"ら":{"ha":1389,"x_min":174,"x_max":1213,"o":"m 521 0 l 521 171 l 868 171 l 868 345 l 1042 345 l 1042 694 l 518 694 l 518 521 l 174 521 l 174 1039 l 345 1039 l 345 692 l 521 692 l 521 865 l 1039 865 l 1039 692 l 1213 692 l 1213 347 l 1039 347 l 1039 174 l 865 174 l 865 0 l 521 0 m 694 1042 l 694 1215 l 347 1215 l 347 1386 l 692 1386 l 692 1213 l 865 1213 l 865 1042 l 694 1042 z "},"り":{"ha":1389,"x_min":174,"x_max":1039,"o":"m 521 0 l 521 171 l 694 171 l 694 345 l 868 345 l 868 1386 l 1039 1386 l 1039 347 l 865 347 l 865 174 l 692 174 l 692 0 l 521 0 m 347 521 l 347 694 l 174 694 l 174 1386 l 345 1386 l 345 692 l 518 692 l 518 521 l 347 521 z "},"る":{"ha":1389,"x_min":0,"x_max":1213,"o":"m 347 0 l 347 174 l 174 174 l 174 345 l 347 345 l 347 518 l 692 518 l 692 171 l 1042 171 l 1042 694 l 171 694 l 171 521 l 0 521 l 0 692 l 174 692 l 174 865 l 347 865 l 347 1039 l 694 1039 l 694 1215 l 174 1215 l 174 1386 l 1039 1386 l 1039 1215 l 865 1215 l 865 1042 l 692 1042 l 692 865 l 1039 865 l 1039 692 l 1213 692 l 1213 174 l 1039 174 l 1039 0 l 347 0 m 521 171 l 521 347 l 345 347 l 345 171 l 521 171 z "},"れ":{"ha":1389,"x_min":0,"x_max":1213,"o":"m 347 0 l 347 347 l 171 347 l 171 174 l 0 174 l 0 345 l 174 345 l 174 518 l 347 518 l 347 868 l 0 868 l 0 1039 l 347 1039 l 347 1386 l 518 1386 l 518 865 l 694 865 l 694 1039 l 1039 1039 l 1039 865 l 1213 865 l 1213 521 l 1039 521 l 1039 171 l 1213 171 l 1213 0 l 1042 0 l 1042 174 l 868 174 l 868 518 l 1042 518 l 1042 868 l 692 868 l 692 694 l 518 694 l 518 0 l 347 0 z "},"ろ":{"ha":1389,"x_min":174,"x_max":1213,"o":"m 347 0 l 347 171 l 1042 171 l 1042 694 l 345 694 l 345 521 l 174 521 l 174 692 l 347 692 l 347 865 l 521 865 l 521 1039 l 694 1039 l 694 1215 l 174 1215 l 174 1386 l 1039 1386 l 1039 1215 l 865 1215 l 865 1042 l 692 1042 l 692 865 l 1039 865 l 1039 692 l 1213 692 l 1213 174 l 1039 174 l 1039 0 l 347 0 z "},"ゎ":{"ha":1389,"x_min":0,"x_max":0,"o":""},"わ":{"ha":1389,"x_min":0,"x_max":1213,"o":"m 347 0 l 347 347 l 171 347 l 171 174 l 0 174 l 0 345 l 174 345 l 174 518 l 347 518 l 347 868 l 0 868 l 0 1039 l 347 1039 l 347 1386 l 518 1386 l 518 865 l 694 865 l 694 1039 l 1039 1039 l 1039 865 l 1213 865 l 1213 174 l 1039 174 l 1039 0 l 868 0 l 868 171 l 1042 171 l 1042 868 l 692 868 l 692 694 l 518 694 l 518 0 l 347 0 z "},"ゐ":{"ha":1389,"x_min":0,"x_max":0,"o":""},"ゑ":{"ha":1389,"x_min":0,"x_max":0,"o":""},"を":{"ha":1389,"x_min":174,"x_max":1039,"o":"m 521 0 l 521 174 l 347 174 l 347 521 l 174 521 l 174 692 l 347 692 l 347 1042 l 174 1042 l 174 1213 l 521 1213 l 521 1386 l 692 1386 l 692 1213 l 865 1213 l 865 1042 l 518 1042 l 518 865 l 692 865 l 692 692 l 868 692 l 868 865 l 1039 865 l 1039 694 l 865 694 l 865 347 l 694 347 l 694 521 l 518 521 l 518 171 l 1039 171 l 1039 0 l 521 0 m 521 524 l 521 694 l 345 694 l 345 518 l 521 518 l 521 524 z "},"ん":{"ha":1389,"x_min":174,"x_max":1213,"o":"m 174 0 l 174 345 l 347 345 l 347 692 l 521 692 l 521 1039 l 694 1039 l 694 1386 l 865 1386 l 865 1042 l 692 1042 l 692 692 l 865 692 l 865 171 l 1213 171 l 1213 0 l 868 0 l 868 174 l 694 174 l 694 521 l 518 521 l 518 347 l 345 347 l 345 0 l 174 0 z "},"ゔ":{"ha":1389,"x_min":0,"x_max":0,"o":""},"゛":{"ha":1389,"x_min":0,"x_max":1039,"o":"m 347 868 l 347 1042 l 174 1042 l 174 1215 l 0 1215 l 0 1386 l 171 1386 l 171 1213 l 345 1213 l 345 1039 l 518 1039 l 518 868 l 347 868 m 868 868 l 868 1042 l 694 1042 l 694 1215 l 521 1215 l 521 1386 l 692 1386 l 692 1213 l 865 1213 l 865 1039 l 1039 1039 l 1039 868 l 868 868 z "},"゜":{"ha":1389,"x_min":0,"x_max":518,"o":"m 0 868 l 0 1386 l 518 1386 l 518 868 l 0 868 m 347 1039 l 347 1215 l 171 1215 l 171 1039 l 347 1039 z "},"ゝ":{"ha":1389,"x_min":0,"x_max":0,"o":""},"ゞ":{"ha":1389,"x_min":0,"x_max":0,"o":""},"ァ":{"ha":1389,"x_min":0,"x_max":1213,"o":"m 174 0 l 174 171 l 347 171 l 347 692 l 521 692 l 521 1215 l 0 1215 l 0 1386 l 1213 1386 l 1213 868 l 1039 868 l 1039 694 l 865 694 l 865 521 l 694 521 l 694 694 l 518 694 l 518 174 l 345 174 l 345 0 l 174 0 m 868 697 l 868 865 l 1042 865 l 1042 1215 l 692 1215 l 692 692 l 868 692 l 868 697 z "},"ア":{"ha":1389,"x_min":0,"x_max":1213,"o":"m 174 0 l 174 171 l 347 171 l 347 692 l 521 692 l 521 1215 l 0 1215 l 0 1386 l 1213 1386 l 1213 868 l 1039 868 l 1039 694 l 865 694 l 865 521 l 694 521 l 694 694 l 518 694 l 518 174 l 345 174 l 345 0 l 174 0 m 868 697 l 868 865 l 1042 865 l 1042 1215 l 692 1215 l 692 692 l 868 692 l 868 697 z "},"ィ":{"ha":1389,"x_min":0,"x_max":1039,"o":"m 521 0 l 521 694 l 345 694 l 345 521 l 0 521 l 0 692 l 347 692 l 347 865 l 521 865 l 521 1039 l 694 1039 l 694 1213 l 868 1213 l 868 1386 l 1039 1386 l 1039 1215 l 865 1215 l 865 1042 l 692 1042 l 692 0 l 521 0 z "},"イ":{"ha":1389,"x_min":0,"x_max":1039,"o":"m 521 0 l 521 694 l 345 694 l 345 521 l 0 521 l 0 692 l 347 692 l 347 865 l 521 865 l 521 1039 l 694 1039 l 694 1213 l 868 1213 l 868 1386 l 1039 1386 l 1039 1215 l 865 1215 l 865 1042 l 692 1042 l 692 0 l 521 0 z "},"ゥ":{"ha":1389,"x_min":0,"x_max":1213,"o":"m 347 0 l 347 171 l 868 171 l 868 345 l 1042 345 l 1042 868 l 171 868 l 171 521 l 0 521 l 0 1039 l 521 1039 l 521 1386 l 692 1386 l 692 1039 l 1213 1039 l 1213 347 l 1039 347 l 1039 174 l 865 174 l 865 0 l 347 0 z "},"ウ":{"ha":1389,"x_min":0,"x_max":1213,"o":"m 347 0 l 347 171 l 868 171 l 868 345 l 1042 345 l 1042 868 l 171 868 l 171 521 l 0 521 l 0 1039 l 521 1039 l 521 1386 l 692 1386 l 692 1039 l 1213 1039 l 1213 347 l 1039 347 l 1039 174 l 865 174 l 865 0 l 347 0 z "},"ェ":{"ha":1389,"x_min":0,"x_max":1213,"o":"m 0 0 l 0 171 l 521 171 l 521 1042 l 174 1042 l 174 1213 l 1039 1213 l 1039 1042 l 692 1042 l 692 171 l 1213 171 l 1213 0 l 0 0 z "},"エ":{"ha":1389,"x_min":0,"x_max":1213,"o":"m 0 0 l 0 171 l 521 171 l 521 1042 l 174 1042 l 174 1213 l 1039 1213 l 1039 1042 l 692 1042 l 692 171 l 1213 171 l 1213 0 l 0 0 z "},"ォ":{"ha":1389,"x_min":0,"x_max":1213,"o":"m 521 0 l 521 171 l 694 171 l 694 694 l 518 694 l 518 347 l 345 347 l 345 174 l 174 174 l 174 345 l 347 345 l 347 692 l 521 692 l 521 868 l 0 868 l 0 1039 l 694 1039 l 694 1386 l 865 1386 l 865 1039 l 1213 1039 l 1213 868 l 865 868 l 865 0 l 521 0 z "},"オ":{"ha":1389,"x_min":0,"x_max":1213,"o":"m 521 0 l 521 171 l 694 171 l 694 694 l 518 694 l 518 347 l 345 347 l 345 174 l 174 174 l 174 345 l 347 345 l 347 692 l 521 692 l 521 868 l 0 868 l 0 1039 l 694 1039 l 694 1386 l 865 1386 l 865 1039 l 1213 1039 l 1213 868 l 865 868 l 865 0 l 521 0 z "},"カ":{"ha":1389,"x_min":0,"x_max":1213,"o":"m 0 0 l 0 171 l 174 171 l 174 345 l 347 345 l 347 518 l 521 518 l 521 868 l 0 868 l 0 1039 l 521 1039 l 521 1386 l 692 1386 l 692 1039 l 1213 1039 l 1213 174 l 1039 174 l 1039 0 l 868 0 l 868 174 l 694 174 l 694 345 l 865 345 l 865 171 l 1042 171 l 1042 868 l 692 868 l 692 521 l 518 521 l 518 347 l 345 347 l 345 174 l 171 174 l 171 0 l 0 0 z "},"ガ":{"ha":1389,"x_min":0,"x_max":0,"o":""},"キ":{"ha":1389,"x_min":0,"x_max":1213,"o":"m 521 0 l 521 521 l 0 521 l 0 692 l 521 692 l 521 868 l 0 868 l 0 1039 l 521 1039 l 521 1386 l 692 1386 l 692 1039 l 1213 1039 l 1213 868 l 692 868 l 692 692 l 1213 692 l 1213 521 l 692 521 l 692 0 l 521 0 z "},"ギ":{"ha":1389,"x_min":0,"x_max":0,"o":""},"ク":{"ha":1389,"x_min":174,"x_max":1213,"o":"m 347 0 l 347 171 l 694 171 l 694 518 l 868 518 l 868 865 l 1042 865 l 1042 1215 l 518 1215 l 518 1042 l 345 1042 l 345 868 l 174 868 l 174 1039 l 347 1039 l 347 1386 l 1213 1386 l 1213 694 l 1039 694 l 1039 521 l 865 521 l 865 174 l 692 174 l 692 0 l 347 0 z "},"グ":{"ha":1389,"x_min":0,"x_max":0,"o":""},"ケ":{"ha":1389,"x_min":0,"x_max":0,"o":""},"ゲ":{"ha":1389,"x_min":0,"x_max":0,"o":""},"コ":{"ha":1389,"x_min":174,"x_max":1213,"o":"m 174 0 l 174 171 l 1042 171 l 1042 1042 l 174 1042 l 174 1213 l 1213 1213 l 1213 0 l 174 0 z "},"ゴ":{"ha":1389,"x_min":0,"x_max":0,"o":""},"サ":{"ha":1389,"x_min":0,"x_max":1213,"o":"m 347 0 l 347 171 l 694 171 l 694 518 l 868 518 l 868 868 l 518 868 l 518 521 l 347 521 l 347 868 l 0 868 l 0 1039 l 347 1039 l 347 1386 l 518 1386 l 518 1039 l 868 1039 l 868 1386 l 1039 1386 l 1039 1039 l 1213 1039 l 1213 868 l 1039 868 l 1039 347 l 865 347 l 865 174 l 692 174 l 692 0 l 347 0 z "},"ザ":{"ha":1389,"x_min":0,"x_max":0,"o":""},"シ":{"ha":1389,"x_min":174,"x_max":1213,"o":"m 174 0 l 174 171 l 694 171 l 694 345 l 868 345 l 868 518 l 1042 518 l 1042 1039 l 1213 1039 l 1213 521 l 1039 521 l 1039 347 l 865 347 l 865 174 l 692 174 l 692 0 l 174 0 m 174 694 l 174 865 l 692 865 l 692 694 l 174 694 m 174 1042 l 174 1213 l 692 1213 l 692 1042 l 174 1042 z "},"ジ":{"ha":1389,"x_min":0,"x_max":0,"o":""},"ス":{"ha":1389,"x_min":0,"x_max":1213,"o":"m 0 0 l 0 171 l 174 171 l 174 345 l 347 345 l 347 518 l 521 518 l 521 692 l 694 692 l 694 865 l 868 865 l 868 1042 l 0 1042 l 0 1213 l 1213 1213 l 1213 1042 l 1039 1042 l 1039 868 l 865 868 l 865 694 l 692 694 l 692 518 l 865 518 l 865 345 l 1039 345 l 1039 171 l 1213 171 l 1213 0 l 1042 0 l 1042 174 l 868 174 l 868 347 l 694 347 l 694 521 l 518 521 l 518 347 l 345 347 l 345 174 l 171 174 l 171 0 l 0 0 z "},"ズ":{"ha":1389,"x_min":0,"x_max":0,"o":""},"セ":{"ha":1389,"x_min":0,"x_max":0,"o":""},"ゼ":{"ha":1389,"x_min":0,"x_max":0,"o":""},"ソ":{"ha":1389,"x_min":174,"x_max":1213,"o":"m 347 0 l 347 171 l 694 171 l 694 345 l 868 345 l 868 692 l 1042 692 l 1042 1213 l 1213 1213 l 1213 694 l 1039 694 l 1039 347 l 865 347 l 865 174 l 692 174 l 692 0 l 347 0 m 347 694 l 347 868 l 174 868 l 174 1213 l 345 1213 l 345 865 l 518 865 l 518 694 l 347 694 z "},"ゾ":{"ha":1389,"x_min":0,"x_max":0,"o":""},"タ":{"ha":1389,"x_min":174,"x_max":1213,"o":"m 347 0 l 347 171 l 694 171 l 694 345 l 868 345 l 868 694 l 521 694 l 521 868 l 345 868 l 345 694 l 174 694 l 174 865 l 347 865 l 347 1386 l 1213 1386 l 1213 521 l 1039 521 l 1039 347 l 865 347 l 865 174 l 692 174 l 692 0 l 347 0 m 1042 692 l 1042 1215 l 518 1215 l 518 865 l 865 865 l 865 692 l 1042 692 z "},"ダ":{"ha":1389,"x_min":0,"x_max":0,"o":""},"チ":{"ha":1389,"x_min":0,"x_max":0,"o":""},"ヂ":{"ha":1389,"x_min":0,"x_max":0,"o":""},"ッ":{"ha":1389,"x_min":0,"x_max":865,"o":"m 174 0 l 174 171 l 521 171 l 521 345 l 694 345 l 694 865 l 865 865 l 865 174 l 518 174 l 518 0 l 174 0 m 0 521 l 0 865 l 171 865 l 171 521 l 0 521 m 347 521 l 347 865 l 518 865 l 518 521 l 347 521 z "},"ツ":{"ha":1389,"x_min":0,"x_max":0,"o":""},"ヅ":{"ha":1389,"x_min":0,"x_max":0,"o":""},"テ":{"ha":1389,"x_min":0,"x_max":1213,"o":"m 347 0 l 347 171 l 521 171 l 521 345 l 694 345 l 694 694 l 0 694 l 0 865 l 1213 865 l 1213 694 l 865 694 l 865 347 l 692 347 l 692 174 l 518 174 l 518 0 l 347 0 m 174 1215 l 174 1386 l 1039 1386 l 1039 1215 l 174 1215 z "},"デ":{"ha":1389,"x_min":0,"x_max":0,"o":""},"ト":{"ha":1389,"x_min":521,"x_max":1039,"o":"m 521 0 l 521 1213 l 692 1213 l 692 692 l 865 692 l 865 518 l 1039 518 l 1039 347 l 868 347 l 868 521 l 692 521 l 692 0 l 521 0 z "},"ド":{"ha":1389,"x_min":174,"x_max":1213,"o":"m 174 0 l 174 1386 l 345 1386 l 345 865 l 518 865 l 518 692 l 692 692 l 692 521 l 521 521 l 521 694 l 345 694 l 345 0 l 174 0 m 694 868 l 694 1042 l 521 1042 l 521 1213 l 692 1213 l 692 1039 l 865 1039 l 865 868 l 694 868 m 1042 1042 l 1042 1215 l 868 1215 l 868 1386 l 1039 1386 l 1039 1213 l 1213 1213 l 1213 1042 l 1042 1042 z "},"ナ":{"ha":1389,"x_min":0,"x_max":1213,"o":"m 174 0 l 174 171 l 521 171 l 521 518 l 694 518 l 694 868 l 0 868 l 0 1039 l 694 1039 l 694 1386 l 865 1386 l 865 1039 l 1213 1039 l 1213 868 l 865 868 l 865 521 l 692 521 l 692 174 l 518 174 l 518 0 l 174 0 z "},"ニ":{"ha":1389,"x_min":0,"x_max":1213,"o":"m 0 0 l 0 171 l 1213 171 l 1213 0 l 0 0 m 174 1042 l 174 1213 l 1039 1213 l 1039 1042 l 174 1042 z "},"ヌ":{"ha":1389,"x_min":174,"x_max":1213,"o":"m 174 0 l 174 171 l 521 171 l 521 345 l 694 345 l 694 521 l 521 521 l 521 692 l 692 692 l 692 518 l 868 518 l 868 865 l 1042 865 l 1042 1042 l 174 1042 l 174 1213 l 1213 1213 l 1213 868 l 1039 868 l 1039 521 l 865 521 l 865 345 l 1039 345 l 1039 171 l 1213 171 l 1213 0 l 1042 0 l 1042 174 l 868 174 l 868 347 l 692 347 l 692 174 l 518 174 l 518 0 l 174 0 z "},"ネ":{"ha":1389,"x_min":0,"x_max":1213,"o":"m 521 0 l 521 347 l 171 347 l 171 174 l 0 174 l 0 345 l 174 345 l 174 518 l 521 518 l 521 692 l 868 692 l 868 868 l 0 868 l 0 1039 l 521 1039 l 521 1386 l 692 1386 l 692 1039 l 1213 1039 l 1213 868 l 1039 868 l 1039 694 l 865 694 l 865 518 l 1039 518 l 1039 345 l 1213 345 l 1213 174 l 1042 174 l 1042 347 l 868 347 l 868 521 l 692 521 l 692 0 l 521 0 z "},"ノ":{"ha":1389,"x_min":0,"x_max":1213,"o":"m 0 0 l 0 171 l 347 171 l 347 345 l 521 345 l 521 518 l 694 518 l 694 692 l 868 692 l 868 1039 l 1042 1039 l 1042 1386 l 1213 1386 l 1213 1042 l 1039 1042 l 1039 694 l 865 694 l 865 521 l 692 521 l 692 347 l 518 347 l 518 174 l 345 174 l 345 0 l 0 0 z "},"ハ":{"ha":1389,"x_min":0,"x_max":1213,"o":"m 1042 174 l 1042 694 l 868 694 l 868 1042 l 694 1042 l 694 1213 l 865 1213 l 865 1039 l 1039 1039 l 1039 692 l 1213 692 l 1213 174 l 1042 174 m 0 347 l 0 518 l 174 518 l 174 1039 l 345 1039 l 345 521 l 171 521 l 171 347 l 0 347 z "},"バ":{"ha":1389,"x_min":0,"x_max":0,"o":""},"パ":{"ha":1389,"x_min":0,"x_max":0,"o":""},"ヒ":{"ha":1389,"x_min":174,"x_max":1213,"o":"m 347 0 l 347 174 l 174 174 l 174 1386 l 345 1386 l 345 865 l 694 865 l 694 1039 l 1213 1039 l 1213 868 l 865 868 l 865 694 l 345 694 l 345 171 l 1213 171 l 1213 0 l 347 0 z "},"ビ":{"ha":1389,"x_min":0,"x_max":0,"o":""},"ピ":{"ha":1389,"x_min":0,"x_max":0,"o":""},"フ":{"ha":1389,"x_min":174,"x_max":1213,"o":"m 347 0 l 347 171 l 694 171 l 694 345 l 868 345 l 868 692 l 1042 692 l 1042 1042 l 174 1042 l 174 1213 l 1213 1213 l 1213 694 l 1039 694 l 1039 347 l 865 347 l 865 174 l 692 174 l 692 0 l 347 0 z "},"ブ":{"ha":1389,"x_min":0,"x_max":0,"o":""},"プ":{"ha":1389,"x_min":0,"x_max":0,"o":""},"ヘ":{"ha":1389,"x_min":0,"x_max":1213,"o":"m 1042 347 l 1042 521 l 868 521 l 868 694 l 694 694 l 694 868 l 521 868 l 521 1042 l 345 1042 l 345 868 l 171 868 l 171 694 l 0 694 l 0 865 l 174 865 l 174 1039 l 347 1039 l 347 1213 l 518 1213 l 518 1039 l 692 1039 l 692 865 l 865 865 l 865 692 l 1039 692 l 1039 518 l 1213 518 l 1213 347 l 1042 347 z "},"ベ":{"ha":1389,"x_min":0,"x_max":0,"o":""},"ペ":{"ha":1389,"x_min":0,"x_max":0,"o":""},"ホ":{"ha":1389,"x_min":0,"x_max":1213,"o":"m 521 0 l 521 868 l 0 868 l 0 1039 l 521 1039 l 521 1386 l 692 1386 l 692 1039 l 1213 1039 l 1213 868 l 692 868 l 692 0 l 521 0 m 0 174 l 0 345 l 174 345 l 174 692 l 345 692 l 345 347 l 171 347 l 171 174 l 0 174 m 1042 174 l 1042 521 l 868 521 l 868 692 l 1039 692 l 1039 518 l 1213 518 l 1213 174 l 1042 174 z "},"ボ":{"ha":1389,"x_min":0,"x_max":0,"o":""},"ポ":{"ha":1389,"x_min":0,"x_max":0,"o":""},"マ":{"ha":1389,"x_min":0,"x_max":1213,"o":"m 694 0 l 694 174 l 521 174 l 521 347 l 347 347 l 347 518 l 518 518 l 518 345 l 694 345 l 694 518 l 868 518 l 868 692 l 1042 692 l 1042 1042 l 0 1042 l 0 1213 l 1213 1213 l 1213 694 l 1039 694 l 1039 521 l 865 521 l 865 347 l 692 347 l 692 171 l 865 171 l 865 0 l 694 0 z "},"ミ":{"ha":1389,"x_min":174,"x_max":1213,"o":"m 1042 0 l 1042 174 l 174 174 l 174 345 l 1039 345 l 1039 171 l 1213 171 l 1213 0 l 1042 0 m 347 694 l 347 865 l 1039 865 l 1039 694 l 347 694 m 347 1215 l 347 1386 l 1039 1386 l 1039 1215 l 347 1215 z "},"ム":{"ha":1389,"x_min":0,"x_max":1213,"o":"m 1042 0 l 1042 174 l 0 174 l 0 518 l 174 518 l 174 692 l 347 692 l 347 865 l 521 865 l 521 1039 l 694 1039 l 694 1213 l 865 1213 l 865 1042 l 692 1042 l 692 868 l 518 868 l 518 694 l 345 694 l 345 521 l 171 521 l 171 345 l 1042 345 l 1042 518 l 1213 518 l 1213 0 l 1042 0 z "},"メ":{"ha":1389,"x_min":0,"x_max":1039,"o":"m 0 0 l 0 171 l 347 171 l 347 345 l 521 345 l 521 694 l 347 694 l 347 865 l 518 865 l 518 692 l 694 692 l 694 865 l 868 865 l 868 1386 l 1039 1386 l 1039 868 l 865 868 l 865 518 l 1039 518 l 1039 347 l 868 347 l 868 521 l 692 521 l 692 347 l 518 347 l 518 174 l 345 174 l 345 0 l 0 0 z "},"モ":{"ha":1389,"x_min":0,"x_max":1213,"o":"m 347 0 l 347 521 l 0 521 l 0 692 l 347 692 l 347 1042 l 0 1042 l 0 1213 l 1039 1213 l 1039 1042 l 518 1042 l 518 692 l 1213 692 l 1213 521 l 518 521 l 518 171 l 1213 171 l 1213 0 l 347 0 z "},"ャ":{"ha":1389,"x_min":174,"x_max":1039,"o":"m 521 0 l 521 521 l 174 521 l 174 692 l 347 692 l 347 865 l 518 865 l 518 692 l 1039 692 l 1039 347 l 868 347 l 868 521 l 692 521 l 692 0 l 521 0 z "},"ヤ":{"ha":1389,"x_min":0,"x_max":0,"o":""},"ュ":{"ha":1389,"x_min":0,"x_max":0,"o":""},"ユ":{"ha":1389,"x_min":0,"x_max":0,"o":""},"ョ":{"ha":1389,"x_min":0,"x_max":0,"o":""},"ヨ":{"ha":1389,"x_min":0,"x_max":0,"o":""},"ラ":{"ha":1389,"x_min":0,"x_max":1213,"o":"m 347 0 l 347 171 l 694 171 l 694 345 l 868 345 l 868 518 l 1042 518 l 1042 694 l 0 694 l 0 865 l 1213 865 l 1213 521 l 1039 521 l 1039 347 l 865 347 l 865 174 l 692 174 l 692 0 l 347 0 m 174 1042 l 174 1213 l 1039 1213 l 1039 1042 l 174 1042 z "},"リ":{"ha":1389,"x_min":174,"x_max":1039,"o":"m 521 0 l 521 171 l 694 171 l 694 345 l 868 345 l 868 1386 l 1039 1386 l 1039 347 l 865 347 l 865 174 l 692 174 l 692 0 l 521 0 m 347 521 l 347 694 l 174 694 l 174 1386 l 345 1386 l 345 692 l 518 692 l 518 521 l 347 521 z "},"ル":{"ha":1389,"x_min":0,"x_max":1213,"o":"m 0 0 l 0 171 l 174 171 l 174 1213 l 345 1213 l 345 174 l 171 174 l 171 0 l 0 0 m 521 0 l 521 1213 l 692 1213 l 692 171 l 1042 171 l 1042 345 l 1213 345 l 1213 174 l 1039 174 l 1039 0 l 521 0 z "},"レ":{"ha":1389,"x_min":174,"x_max":1213,"o":"m 174 0 l 174 1213 l 345 1213 l 345 171 l 521 171 l 521 345 l 868 345 l 868 518 l 1042 518 l 1042 692 l 1213 692 l 1213 521 l 1039 521 l 1039 347 l 865 347 l 865 174 l 518 174 l 518 0 l 174 0 z "},"ロ":{"ha":1389,"x_min":174,"x_max":1213,"o":"m 174 174 l 174 1213 l 1213 1213 l 1213 174 l 174 174 m 1042 345 l 1042 1042 l 345 1042 l 345 345 l 1042 345 z "},"ヮ":{"ha":1389,"x_min":0,"x_max":0,"o":""},"ワ":{"ha":1389,"x_min":0,"x_max":0,"o":""},"ヰ":{"ha":1389,"x_min":0,"x_max":0,"o":""},"ヱ":{"ha":1389,"x_min":0,"x_max":0,"o":""},"ヲ":{"ha":1389,"x_min":0,"x_max":0,"o":""},"ン":{"ha":1389,"x_min":174,"x_max":1213,"o":"m 174 0 l 174 171 l 694 171 l 694 345 l 868 345 l 868 518 l 1042 518 l 1042 1039 l 1213 1039 l 1213 521 l 1039 521 l 1039 347 l 865 347 l 865 174 l 692 174 l 692 0 l 174 0 m 174 868 l 174 1039 l 692 1039 l 692 868 l 174 868 z "},"ヴ":{"ha":1389,"x_min":0,"x_max":0,"o":""},"ヵ":{"ha":1389,"x_min":0,"x_max":0,"o":""},"ヶ":{"ha":1389,"x_min":0,"x_max":0,"o":""},"ヷ":{"ha":1389,"x_min":0,"x_max":0,"o":""},"ヸ":{"ha":1389,"x_min":0,"x_max":0,"o":""},"ヹ":{"ha":1389,"x_min":0,"x_max":0,"o":""},"ヺ":{"ha":1389,"x_min":0,"x_max":0,"o":""},"・":{"ha":1389,"x_min":0,"x_max":0,"o":""},"ー":{"ha":1389,"x_min":0,"x_max":1386,"o":"m 0 521 l 0 692 l 1386 692 l 1386 521 l 0 521 z "},"ヽ":{"ha":1389,"x_min":0,"x_max":0,"o":""},"ヾ":{"ha":1389,"x_min":0,"x_max":0,"o":""},"㈠":{"ha":1389,"x_min":0,"x_max":0,"o":""},"㈡":{"ha":1389,"x_min":0,"x_max":0,"o":""},"㈢":{"ha":1389,"x_min":0,"x_max":0,"o":""},"㈣":{"ha":1389,"x_min":0,"x_max":0,"o":""},"㈤":{"ha":1389,"x_min":0,"x_max":0,"o":""},"㈥":{"ha":1389,"x_min":0,"x_max":0,"o":""},"㈦":{"ha":1389,"x_min":0,"x_max":0,"o":""},"㈧":{"ha":1389,"x_min":0,"x_max":0,"o":""},"㈨":{"ha":1389,"x_min":0,"x_max":0,"o":""},"㈩":{"ha":1389,"x_min":0,"x_max":0,"o":""},"㈪":{"ha":1389,"x_min":0,"x_max":0,"o":""},"㈫":{"ha":1389,"x_min":0,"x_max":0,"o":""},"㈬":{"ha":1389,"x_min":0,"x_max":0,"o":""},"㈭":{"ha":1389,"x_min":0,"x_max":0,"o":""},"㈮":{"ha":1389,"x_min":0,"x_max":0,"o":""},"㈯":{"ha":1389,"x_min":0,"x_max":0,"o":""},"㈰":{"ha":1389,"x_min":0,"x_max":0,"o":""},"㈱":{"ha":1389,"x_min":0,"x_max":0,"o":""},"㈲":{"ha":1389,"x_min":0,"x_max":0,"o":""},"㈳":{"ha":1389,"x_min":0,"x_max":0,"o":""},"㈴":{"ha":1389,"x_min":0,"x_max":0,"o":""},"㈵":{"ha":1389,"x_min":0,"x_max":0,"o":""},"㈶":{"ha":1389,"x_min":0,"x_max":0,"o":""},"㈷":{"ha":1389,"x_min":0,"x_max":0,"o":""},"㈸":{"ha":1389,"x_min":0,"x_max":0,"o":""},"㈹":{"ha":1389,"x_min":0,"x_max":0,"o":""},"㈺":{"ha":1389,"x_min":0,"x_max":0,"o":""},"㈻":{"ha":1389,"x_min":0,"x_max":0,"o":""},"㈼":{"ha":1389,"x_min":0,"x_max":0,"o":""},"㈽":{"ha":1389,"x_min":0,"x_max":0,"o":""},"㈾":{"ha":1389,"x_min":0,"x_max":0,"o":""},"㈿":{"ha":1389,"x_min":0,"x_max":0,"o":""},"㉀":{"ha":1389,"x_min":0,"x_max":0,"o":""},"㉁":{"ha":1389,"x_min":0,"x_max":0,"o":""},"㉂":{"ha":1389,"x_min":0,"x_max":0,"o":""},"㉃":{"ha":1389,"x_min":0,"x_max":0,"o":""},"㊀":{"ha":1389,"x_min":0,"x_max":0,"o":""},"㊁":{"ha":1389,"x_min":0,"x_max":0,"o":""},"㊂":{"ha":1389,"x_min":0,"x_max":0,"o":""},"㊃":{"ha":1389,"x_min":0,"x_max":0,"o":""},"㊄":{"ha":1389,"x_min":0,"x_max":0,"o":""},"㊅":{"ha":1389,"x_min":0,"x_max":0,"o":""},"㊆":{"ha":1389,"x_min":0,"x_max":0,"o":""},"㊇":{"ha":1389,"x_min":0,"x_max":0,"o":""},"㊈":{"ha":1389,"x_min":0,"x_max":0,"o":""},"㊉":{"ha":1389,"x_min":0,"x_max":0,"o":""},"㊊":{"ha":1389,"x_min":0,"x_max":0,"o":""},"㊋":{"ha":1389,"x_min":0,"x_max":0,"o":""},"㊌":{"ha":1389,"x_min":0,"x_max":0,"o":""},"㊍":{"ha":1389,"x_min":0,"x_max":0,"o":""},"㊎":{"ha":1389,"x_min":0,"x_max":0,"o":""},"㊏":{"ha":1389,"x_min":0,"x_max":0,"o":""},"㊐":{"ha":1389,"x_min":0,"x_max":0,"o":""},"㊑":{"ha":1389,"x_min":0,"x_max":0,"o":""},"㊒":{"ha":1389,"x_min":0,"x_max":0,"o":""},"㊓":{"ha":1389,"x_min":0,"x_max":0,"o":""},"㊔":{"ha":1389,"x_min":0,"x_max":0,"o":""},"㊕":{"ha":1389,"x_min":0,"x_max":0,"o":""},"㊖":{"ha":1389,"x_min":0,"x_max":0,"o":""},"㊗":{"ha":1389,"x_min":0,"x_max":0,"o":""},"㊘":{"ha":1389,"x_min":0,"x_max":0,"o":""},"㊙":{"ha":1389,"x_min":0,"x_max":0,"o":""},"㊚":{"ha":1389,"x_min":0,"x_max":0,"o":""},"㊛":{"ha":1389,"x_min":0,"x_max":0,"o":""},"㊜":{"ha":1389,"x_min":0,"x_max":0,"o":""},"㊝":{"ha":1389,"x_min":0,"x_max":0,"o":""},"㊞":{"ha":1389,"x_min":0,"x_max":0,"o":""},"㊟":{"ha":1389,"x_min":0,"x_max":0,"o":""},"㊠":{"ha":1389,"x_min":0,"x_max":0,"o":""},"㊡":{"ha":1389,"x_min":0,"x_max":0,"o":""},"㊢":{"ha":1389,"x_min":0,"x_max":0,"o":""},"㊣":{"ha":1389,"x_min":0,"x_max":0,"o":""},"㊤":{"ha":1389,"x_min":0,"x_max":0,"o":""},"㊥":{"ha":1389,"x_min":0,"x_max":0,"o":""},"㊦":{"ha":1389,"x_min":0,"x_max":0,"o":""},"㊧":{"ha":1389,"x_min":0,"x_max":0,"o":""},"㊨":{"ha":1389,"x_min":0,"x_max":0,"o":""},"㊩":{"ha":1389,"x_min":0,"x_max":0,"o":""},"㊪":{"ha":1389,"x_min":0,"x_max":0,"o":""},"㊫":{"ha":1389,"x_min":0,"x_max":0,"o":""},"㊬":{"ha":1389,"x_min":0,"x_max":0,"o":""},"㊭":{"ha":1389,"x_min":0,"x_max":0,"o":""},"㊮":{"ha":1389,"x_min":0,"x_max":0,"o":""},"㊯":{"ha":1389,"x_min":0,"x_max":0,"o":""},"㊰":{"ha":1389,"x_min":0,"x_max":0,"o":""},"㋀":{"ha":1389,"x_min":0,"x_max":0,"o":""},"㋁":{"ha":1389,"x_min":0,"x_max":0,"o":""},"㋂":{"ha":1389,"x_min":0,"x_max":0,"o":""},"㋃":{"ha":1389,"x_min":0,"x_max":0,"o":""},"㋄":{"ha":1389,"x_min":0,"x_max":0,"o":""},"㋅":{"ha":1389,"x_min":0,"x_max":0,"o":""},"㋆":{"ha":1389,"x_min":0,"x_max":0,"o":""},"㋇":{"ha":1389,"x_min":0,"x_max":0,"o":""},"㋈":{"ha":1389,"x_min":0,"x_max":0,"o":""},"㋉":{"ha":1389,"x_min":0,"x_max":0,"o":""},"㋊":{"ha":1389,"x_min":0,"x_max":0,"o":""},"㋋":{"ha":1389,"x_min":0,"x_max":0,"o":""},"㋐":{"ha":1389,"x_min":0,"x_max":0,"o":""},"㋑":{"ha":1389,"x_min":0,"x_max":0,"o":""},"㋒":{"ha":1389,"x_min":0,"x_max":0,"o":""},"㋓":{"ha":1389,"x_min":0,"x_max":0,"o":""},"㋔":{"ha":1389,"x_min":0,"x_max":0,"o":""},"㋕":{"ha":1389,"x_min":0,"x_max":0,"o":""},"㋖":{"ha":1389,"x_min":0,"x_max":0,"o":""},"㋗":{"ha":1389,"x_min":0,"x_max":0,"o":""},"㋘":{"ha":1389,"x_min":0,"x_max":0,"o":""},"㋙":{"ha":1389,"x_min":0,"x_max":0,"o":""},"㋚":{"ha":1389,"x_min":0,"x_max":0,"o":""},"㋛":{"ha":1389,"x_min":0,"x_max":0,"o":""},"㋜":{"ha":1389,"x_min":0,"x_max":0,"o":""},"㋝":{"ha":1389,"x_min":0,"x_max":0,"o":""},"㋞":{"ha":1389,"x_min":0,"x_max":0,"o":""},"㋟":{"ha":1389,"x_min":0,"x_max":0,"o":""},"㋠":{"ha":1389,"x_min":0,"x_max":0,"o":""},"㋡":{"ha":1389,"x_min":0,"x_max":0,"o":""},"㋢":{"ha":1389,"x_min":0,"x_max":0,"o":""},"㋣":{"ha":1389,"x_min":0,"x_max":0,"o":""},"㋤":{"ha":1389,"x_min":0,"x_max":0,"o":""},"㋥":{"ha":1389,"x_min":0,"x_max":0,"o":""},"㋦":{"ha":1389,"x_min":0,"x_max":0,"o":""},"㋧":{"ha":1389,"x_min":0,"x_max":0,"o":""},"㋨":{"ha":1389,"x_min":0,"x_max":0,"o":""},"㋩":{"ha":1389,"x_min":0,"x_max":0,"o":""},"㋪":{"ha":1389,"x_min":0,"x_max":0,"o":""},"㋫":{"ha":1389,"x_min":0,"x_max":0,"o":""},"㋬":{"ha":1389,"x_min":0,"x_max":0,"o":""},"㋭":{"ha":1389,"x_min":0,"x_max":0,"o":""},"㋮":{"ha":1389,"x_min":0,"x_max":0,"o":""},"㋯":{"ha":1389,"x_min":0,"x_max":0,"o":""},"㋰":{"ha":1389,"x_min":0,"x_max":0,"o":""},"㋱":{"ha":1389,"x_min":0,"x_max":0,"o":""},"㋲":{"ha":1389,"x_min":0,"x_max":0,"o":""},"㋳":{"ha":1389,"x_min":0,"x_max":0,"o":""},"㋴":{"ha":1389,"x_min":0,"x_max":0,"o":""},"㋵":{"ha":1389,"x_min":0,"x_max":0,"o":""},"㋶":{"ha":1389,"x_min":0,"x_max":0,"o":""},"㋷":{"ha":1389,"x_min":0,"x_max":0,"o":""},"㋸":{"ha":1389,"x_min":0,"x_max":0,"o":""},"㋹":{"ha":1389,"x_min":0,"x_max":0,"o":""},"㋺":{"ha":1389,"x_min":0,"x_max":0,"o":""},"㋻":{"ha":1389,"x_min":0,"x_max":0,"o":""},"㋼":{"ha":1389,"x_min":0,"x_max":0,"o":""},"㋽":{"ha":1389,"x_min":0,"x_max":0,"o":""},"㋾":{"ha":1389,"x_min":0,"x_max":0,"o":""},"㌀":{"ha":1389,"x_min":0,"x_max":0,"o":""},"㌁":{"ha":1389,"x_min":0,"x_max":0,"o":""},"㌂":{"ha":1389,"x_min":0,"x_max":0,"o":""},"㌃":{"ha":1389,"x_min":0,"x_max":0,"o":""},"㌄":{"ha":1389,"x_min":0,"x_max":0,"o":""},"㌅":{"ha":1389,"x_min":0,"x_max":0,"o":""},"㌆":{"ha":1389,"x_min":0,"x_max":0,"o":""},"㌇":{"ha":1389,"x_min":0,"x_max":0,"o":""},"㌈":{"ha":1389,"x_min":0,"x_max":0,"o":""},"㌉":{"ha":1389,"x_min":0,"x_max":0,"o":""},"㌊":{"ha":1389,"x_min":0,"x_max":0,"o":""},"㌋":{"ha":1389,"x_min":0,"x_max":0,"o":""},"㌌":{"ha":1389,"x_min":0,"x_max":0,"o":""},"㌍":{"ha":1389,"x_min":0,"x_max":0,"o":""},"㌎":{"ha":1389,"x_min":0,"x_max":0,"o":""},"㌏":{"ha":1389,"x_min":0,"x_max":0,"o":""},"㌐":{"ha":1389,"x_min":0,"x_max":0,"o":""},"㌑":{"ha":1389,"x_min":0,"x_max":0,"o":""},"㌒":{"ha":1389,"x_min":0,"x_max":0,"o":""},"㌓":{"ha":1389,"x_min":0,"x_max":0,"o":""},"㌔":{"ha":1389,"x_min":0,"x_max":0,"o":""},"㌕":{"ha":1389,"x_min":0,"x_max":0,"o":""},"㌖":{"ha":1389,"x_min":0,"x_max":0,"o":""},"㌗":{"ha":1389,"x_min":0,"x_max":0,"o":""},"㌘":{"ha":1389,"x_min":0,"x_max":0,"o":""},"㌙":{"ha":1389,"x_min":0,"x_max":0,"o":""},"㌚":{"ha":1389,"x_min":0,"x_max":0,"o":""},"㌛":{"ha":1389,"x_min":0,"x_max":0,"o":""},"㌜":{"ha":1389,"x_min":0,"x_max":0,"o":""},"㌝":{"ha":1389,"x_min":0,"x_max":0,"o":""},"㌞":{"ha":1389,"x_min":0,"x_max":0,"o":""},"㌟":{"ha":1389,"x_min":0,"x_max":0,"o":""},"㌠":{"ha":1389,"x_min":0,"x_max":0,"o":""},"㌡":{"ha":1389,"x_min":0,"x_max":0,"o":""},"㌢":{"ha":1389,"x_min":0,"x_max":0,"o":""},"㌣":{"ha":1389,"x_min":0,"x_max":0,"o":""},"㌤":{"ha":1389,"x_min":0,"x_max":0,"o":""},"㌥":{"ha":1389,"x_min":0,"x_max":0,"o":""},"㌦":{"ha":1389,"x_min":0,"x_max":0,"o":""},"㌧":{"ha":1389,"x_min":0,"x_max":0,"o":""},"㌨":{"ha":1389,"x_min":0,"x_max":0,"o":""},"㌩":{"ha":1389,"x_min":0,"x_max":0,"o":""},"㌪":{"ha":1389,"x_min":0,"x_max":0,"o":""},"㌫":{"ha":1389,"x_min":0,"x_max":0,"o":""},"㌬":{"ha":1389,"x_min":0,"x_max":0,"o":""},"㌭":{"ha":1389,"x_min":0,"x_max":0,"o":""},"㌮":{"ha":1389,"x_min":0,"x_max":0,"o":""},"㌯":{"ha":1389,"x_min":0,"x_max":0,"o":""},"㌰":{"ha":1389,"x_min":0,"x_max":0,"o":""},"㌱":{"ha":1389,"x_min":0,"x_max":0,"o":""},"㌲":{"ha":1389,"x_min":0,"x_max":0,"o":""},"㌳":{"ha":1389,"x_min":0,"x_max":0,"o":""},"㌴":{"ha":1389,"x_min":0,"x_max":0,"o":""},"㌵":{"ha":1389,"x_min":0,"x_max":0,"o":""},"㌶":{"ha":1389,"x_min":0,"x_max":0,"o":""},"㌷":{"ha":1389,"x_min":0,"x_max":0,"o":""},"㌸":{"ha":1389,"x_min":0,"x_max":0,"o":""},"㌹":{"ha":1389,"x_min":0,"x_max":0,"o":""},"㌺":{"ha":1389,"x_min":0,"x_max":0,"o":""},"㌻":{"ha":1389,"x_min":0,"x_max":0,"o":""},"㌼":{"ha":1389,"x_min":0,"x_max":0,"o":""},"㌽":{"ha":1389,"x_min":0,"x_max":0,"o":""},"㌾":{"ha":1389,"x_min":0,"x_max":0,"o":""},"㌿":{"ha":1389,"x_min":0,"x_max":0,"o":""},"㍀":{"ha":1389,"x_min":0,"x_max":0,"o":""},"㍁":{"ha":1389,"x_min":0,"x_max":0,"o":""},"㍂":{"ha":1389,"x_min":0,"x_max":0,"o":""},"㍃":{"ha":1389,"x_min":0,"x_max":0,"o":""},"㍄":{"ha":1389,"x_min":0,"x_max":0,"o":""},"㍅":{"ha":1389,"x_min":0,"x_max":0,"o":""},"㍆":{"ha":1389,"x_min":0,"x_max":0,"o":""},"㍇":{"ha":1389,"x_min":0,"x_max":0,"o":""},"㍈":{"ha":1389,"x_min":0,"x_max":0,"o":""},"㍉":{"ha":1389,"x_min":0,"x_max":0,"o":""},"㍊":{"ha":1389,"x_min":0,"x_max":0,"o":""},"㍋":{"ha":1389,"x_min":0,"x_max":0,"o":""},"㍌":{"ha":1389,"x_min":0,"x_max":0,"o":""},"㍍":{"ha":1389,"x_min":0,"x_max":0,"o":""},"㍎":{"ha":1389,"x_min":0,"x_max":0,"o":""},"㍏":{"ha":1389,"x_min":0,"x_max":0,"o":""},"㍐":{"ha":1389,"x_min":0,"x_max":0,"o":""},"㍑":{"ha":1389,"x_min":0,"x_max":0,"o":""},"㍒":{"ha":1389,"x_min":0,"x_max":0,"o":""},"㍓":{"ha":1389,"x_min":0,"x_max":0,"o":""},"㍔":{"ha":1389,"x_min":0,"x_max":0,"o":""},"㍕":{"ha":1389,"x_min":0,"x_max":0,"o":""},"㍖":{"ha":1389,"x_min":0,"x_max":0,"o":""},"㍗":{"ha":1389,"x_min":0,"x_max":0,"o":""},"㍘":{"ha":1389,"x_min":0,"x_max":0,"o":""},"㍙":{"ha":1389,"x_min":0,"x_max":0,"o":""},"㍚":{"ha":1389,"x_min":0,"x_max":0,"o":""},"㍛":{"ha":1389,"x_min":0,"x_max":0,"o":""},"㍜":{"ha":1389,"x_min":0,"x_max":0,"o":""},"㍝":{"ha":1389,"x_min":0,"x_max":0,"o":""},"㍞":{"ha":1389,"x_min":0,"x_max":0,"o":""},"㍟":{"ha":1389,"x_min":0,"x_max":0,"o":""},"㍠":{"ha":1389,"x_min":0,"x_max":0,"o":""},"㍡":{"ha":1389,"x_min":0,"x_max":0,"o":""},"㍢":{"ha":1389,"x_min":0,"x_max":0,"o":""},"㍣":{"ha":1389,"x_min":0,"x_max":0,"o":""},"㍤":{"ha":1389,"x_min":0,"x_max":0,"o":""},"㍥":{"ha":1389,"x_min":0,"x_max":0,"o":""},"㍦":{"ha":1389,"x_min":0,"x_max":0,"o":""},"㍧":{"ha":1389,"x_min":0,"x_max":0,"o":""},"㍨":{"ha":1389,"x_min":0,"x_max":0,"o":""},"㍩":{"ha":1389,"x_min":0,"x_max":0,"o":""},"㍪":{"ha":1389,"x_min":0,"x_max":0,"o":""},"㍫":{"ha":1389,"x_min":0,"x_max":0,"o":""},"㍬":{"ha":1389,"x_min":0,"x_max":0,"o":""},"㍭":{"ha":1389,"x_min":0,"x_max":0,"o":""},"㍮":{"ha":1389,"x_min":0,"x_max":0,"o":""},"㍯":{"ha":1389,"x_min":0,"x_max":0,"o":""},"㍰":{"ha":1389,"x_min":0,"x_max":0,"o":""},"㍱":{"ha":1389,"x_min":0,"x_max":0,"o":""},"㍲":{"ha":1389,"x_min":0,"x_max":0,"o":""},"㍳":{"ha":1389,"x_min":0,"x_max":0,"o":""},"㍴":{"ha":1389,"x_min":0,"x_max":0,"o":""},"㍵":{"ha":1389,"x_min":0,"x_max":0,"o":""},"㍶":{"ha":1389,"x_min":0,"x_max":0,"o":""},"㍻":{"ha":1389,"x_min":0,"x_max":0,"o":""},"㍼":{"ha":1389,"x_min":0,"x_max":0,"o":""},"㍽":{"ha":1389,"x_min":0,"x_max":0,"o":""},"㍾":{"ha":1389,"x_min":0,"x_max":0,"o":""},"㍿":{"ha":1389,"x_min":0,"x_max":0,"o":""},"㎀":{"ha":1389,"x_min":0,"x_max":0,"o":""},"㎁":{"ha":1389,"x_min":0,"x_max":0,"o":""},"㎂":{"ha":1389,"x_min":0,"x_max":0,"o":""},"㎃":{"ha":1389,"x_min":0,"x_max":0,"o":""},"㎄":{"ha":1389,"x_min":0,"x_max":0,"o":""},"㎅":{"ha":1389,"x_min":0,"x_max":0,"o":""},"㎆":{"ha":1389,"x_min":0,"x_max":0,"o":""},"㎇":{"ha":1389,"x_min":0,"x_max":0,"o":""},"㎈":{"ha":1389,"x_min":0,"x_max":0,"o":""},"㎉":{"ha":1389,"x_min":0,"x_max":0,"o":""},"㎊":{"ha":1389,"x_min":0,"x_max":0,"o":""},"㎋":{"ha":1389,"x_min":0,"x_max":0,"o":""},"㎌":{"ha":1389,"x_min":0,"x_max":0,"o":""},"㎍":{"ha":1389,"x_min":0,"x_max":0,"o":""},"㎎":{"ha":1389,"x_min":0,"x_max":0,"o":""},"㎏":{"ha":1389,"x_min":0,"x_max":0,"o":""},"㎐":{"ha":1389,"x_min":0,"x_max":0,"o":""},"㎑":{"ha":1389,"x_min":0,"x_max":0,"o":""},"㎒":{"ha":1389,"x_min":0,"x_max":0,"o":""},"㎓":{"ha":1389,"x_min":0,"x_max":0,"o":""},"㎔":{"ha":1389,"x_min":0,"x_max":0,"o":""},"㎕":{"ha":1389,"x_min":0,"x_max":0,"o":""},"㎖":{"ha":1389,"x_min":0,"x_max":0,"o":""},"㎗":{"ha":1389,"x_min":0,"x_max":0,"o":""},"㎘":{"ha":1389,"x_min":0,"x_max":0,"o":""},"㎙":{"ha":1389,"x_min":0,"x_max":0,"o":""},"㎚":{"ha":1389,"x_min":0,"x_max":0,"o":""},"㎛":{"ha":1389,"x_min":0,"x_max":0,"o":""},"㎜":{"ha":1389,"x_min":0,"x_max":0,"o":""},"㎝":{"ha":1389,"x_min":0,"x_max":0,"o":""},"㎞":{"ha":1389,"x_min":0,"x_max":0,"o":""},"㎟":{"ha":1389,"x_min":0,"x_max":0,"o":""},"㎠":{"ha":1389,"x_min":0,"x_max":0,"o":""},"㎡":{"ha":1389,"x_min":0,"x_max":0,"o":""},"㎢":{"ha":1389,"x_min":0,"x_max":0,"o":""},"㎣":{"ha":1389,"x_min":0,"x_max":0,"o":""},"㎤":{"ha":1389,"x_min":0,"x_max":0,"o":""},"㎥":{"ha":1389,"x_min":0,"x_max":0,"o":""},"㎦":{"ha":1389,"x_min":0,"x_max":0,"o":""},"㎧":{"ha":1389,"x_min":0,"x_max":0,"o":""},"㎨":{"ha":1389,"x_min":0,"x_max":0,"o":""},"㎩":{"ha":1389,"x_min":0,"x_max":0,"o":""},"㎪":{"ha":1389,"x_min":0,"x_max":0,"o":""},"㎫":{"ha":1389,"x_min":0,"x_max":0,"o":""},"㎬":{"ha":1389,"x_min":0,"x_max":0,"o":""},"㎭":{"ha":1389,"x_min":0,"x_max":0,"o":""},"㎮":{"ha":1389,"x_min":0,"x_max":0,"o":""},"㎯":{"ha":1389,"x_min":0,"x_max":0,"o":""},"㎰":{"ha":1389,"x_min":0,"x_max":0,"o":""},"㎱":{"ha":1389,"x_min":0,"x_max":0,"o":""},"㎲":{"ha":1389,"x_min":0,"x_max":0,"o":""},"㎳":{"ha":1389,"x_min":0,"x_max":0,"o":""},"㎴":{"ha":1389,"x_min":0,"x_max":0,"o":""},"㎵":{"ha":1389,"x_min":0,"x_max":0,"o":""},"㎶":{"ha":1389,"x_min":0,"x_max":0,"o":""},"㎷":{"ha":1389,"x_min":0,"x_max":0,"o":""},"㎸":{"ha":1389,"x_min":0,"x_max":0,"o":""},"㎹":{"ha":1389,"x_min":0,"x_max":0,"o":""},"㎺":{"ha":1389,"x_min":0,"x_max":0,"o":""},"㎻":{"ha":1389,"x_min":0,"x_max":0,"o":""},"㎼":{"ha":1389,"x_min":0,"x_max":0,"o":""},"㎽":{"ha":1389,"x_min":0,"x_max":0,"o":""},"㎾":{"ha":1389,"x_min":0,"x_max":0,"o":""},"㎿":{"ha":1389,"x_min":0,"x_max":0,"o":""},"㏀":{"ha":1389,"x_min":0,"x_max":0,"o":""},"㏁":{"ha":1389,"x_min":0,"x_max":0,"o":""},"㏂":{"ha":1389,"x_min":0,"x_max":0,"o":""},"㏃":{"ha":1389,"x_min":0,"x_max":0,"o":""},"㏄":{"ha":1389,"x_min":0,"x_max":0,"o":""},"㏅":{"ha":1389,"x_min":0,"x_max":0,"o":""},"㏆":{"ha":1389,"x_min":0,"x_max":0,"o":""},"㏇":{"ha":1389,"x_min":0,"x_max":0,"o":""},"㏈":{"ha":1389,"x_min":0,"x_max":0,"o":""},"㏉":{"ha":1389,"x_min":0,"x_max":0,"o":""},"㏊":{"ha":1389,"x_min":0,"x_max":0,"o":""},"㏋":{"ha":1389,"x_min":0,"x_max":0,"o":""},"㏌":{"ha":1389,"x_min":0,"x_max":0,"o":""},"㏍":{"ha":1389,"x_min":0,"x_max":0,"o":""},"㏎":{"ha":1389,"x_min":0,"x_max":0,"o":""},"㏏":{"ha":1389,"x_min":0,"x_max":0,"o":""},"㏐":{"ha":1389,"x_min":0,"x_max":0,"o":""},"㏑":{"ha":1389,"x_min":0,"x_max":0,"o":""},"㏒":{"ha":1389,"x_min":0,"x_max":0,"o":""},"㏓":{"ha":1389,"x_min":0,"x_max":0,"o":""},"㏔":{"ha":1389,"x_min":0,"x_max":0,"o":""},"㏕":{"ha":1389,"x_min":0,"x_max":0,"o":""},"㏖":{"ha":1389,"x_min":0,"x_max":0,"o":""},"㏗":{"ha":1389,"x_min":0,"x_max":0,"o":""},"㏘":{"ha":1389,"x_min":0,"x_max":0,"o":""},"㏙":{"ha":1389,"x_min":0,"x_max":0,"o":""},"㏚":{"ha":1389,"x_min":0,"x_max":0,"o":""},"㏛":{"ha":1389,"x_min":0,"x_max":0,"o":""},"㏜":{"ha":1389,"x_min":0,"x_max":0,"o":""},"㏝":{"ha":1389,"x_min":0,"x_max":0,"o":""},"㏠":{"ha":1389,"x_min":0,"x_max":0,"o":""},"㏡":{"ha":1389,"x_min":0,"x_max":0,"o":""},"㏢":{"ha":1389,"x_min":0,"x_max":0,"o":""},"㏣":{"ha":1389,"x_min":0,"x_max":0,"o":""},"㏤":{"ha":1389,"x_min":0,"x_max":0,"o":""},"㏥":{"ha":1389,"x_min":0,"x_max":0,"o":""},"㏦":{"ha":1389,"x_min":0,"x_max":0,"o":""},"㏧":{"ha":1389,"x_min":0,"x_max":0,"o":""},"㏨":{"ha":1389,"x_min":0,"x_max":0,"o":""},"㏩":{"ha":1389,"x_min":0,"x_max":0,"o":""},"㏪":{"ha":1389,"x_min":0,"x_max":0,"o":""},"㏫":{"ha":1389,"x_min":0,"x_max":0,"o":""},"㏬":{"ha":1389,"x_min":0,"x_max":0,"o":""},"㏭":{"ha":1389,"x_min":0,"x_max":0,"o":""},"㏮":{"ha":1389,"x_min":0,"x_max":0,"o":""},"㏯":{"ha":1389,"x_min":0,"x_max":0,"o":""},"㏰":{"ha":1389,"x_min":0,"x_max":0,"o":""},"㏱":{"ha":1389,"x_min":0,"x_max":0,"o":""},"㏲":{"ha":1389,"x_min":0,"x_max":0,"o":""},"㏳":{"ha":1389,"x_min":0,"x_max":0,"o":""},"㏴":{"ha":1389,"x_min":0,"x_max":0,"o":""},"㏵":{"ha":1389,"x_min":0,"x_max":0,"o":""},"㏶":{"ha":1389,"x_min":0,"x_max":0,"o":""},"㏷":{"ha":1389,"x_min":0,"x_max":0,"o":""},"㏸":{"ha":1389,"x_min":0,"x_max":0,"o":""},"㏹":{"ha":1389,"x_min":0,"x_max":0,"o":""},"㏺":{"ha":1389,"x_min":0,"x_max":0,"o":""},"㏻":{"ha":1389,"x_min":0,"x_max":0,"o":""},"㏼":{"ha":1389,"x_min":0,"x_max":0,"o":""},"㏽":{"ha":1389,"x_min":0,"x_max":0,"o":""},"㏾":{"ha":1389,"x_min":0,"x_max":0,"o":""},"一":{"ha":1389,"x_min":0,"x_max":1386,"o":"m 0 521 l 0 692 l 1386 692 l 1386 521 l 0 521 z "},"丁":{"ha":1389,"x_min":0,"x_max":0,"o":""},"丂":{"ha":1389,"x_min":0,"x_max":0,"o":""},"七":{"ha":1389,"x_min":0,"x_max":0,"o":""},"丄":{"ha":1389,"x_min":0,"x_max":0,"o":""},"丅":{"ha":1389,"x_min":0,"x_max":0,"o":""},"万":{"ha":1389,"x_min":0,"x_max":0,"o":""},"丈":{"ha":1389,"x_min":0,"x_max":0,"o":""},"三":{"ha":1389,"x_min":0,"x_max":0,"o":""},"上":{"ha":1389,"x_min":0,"x_max":0,"o":""},"下":{"ha":1389,"x_min":0,"x_max":0,"o":""},"丌":{"ha":1389,"x_min":0,"x_max":0,"o":""},"不":{"ha":1389,"x_min":0,"x_max":0,"o":""},"与":{"ha":1389,"x_min":0,"x_max":0,"o":""},"丐":{"ha":1389,"x_min":0,"x_max":0,"o":""},"丑":{"ha":1389,"x_min":0,"x_max":0,"o":""},"丒":{"ha":1389,"x_min":0,"x_max":0,"o":""},"且":{"ha":1389,"x_min":0,"x_max":0,"o":""},"丕":{"ha":1389,"x_min":0,"x_max":0,"o":""},"世":{"ha":1389,"x_min":0,"x_max":0,"o":""},"丗":{"ha":1389,"x_min":0,"x_max":0,"o":""},"丘":{"ha":1389,"x_min":0,"x_max":0,"o":""},"丙":{"ha":1389,"x_min":0,"x_max":0,"o":""},"丞":{"ha":1389,"x_min":0,"x_max":0,"o":""},"丟":{"ha":1389,"x_min":0,"x_max":0,"o":""},"両":{"ha":1389,"x_min":0,"x_max":0,"o":""},"丣":{"ha":1389,"x_min":0,"x_max":0,"o":""},"两":{"ha":1389,"x_min":0,"x_max":0,"o":""},"並":{"ha":1389,"x_min":0,"x_max":0,"o":""},"丨":{"ha":1389,"x_min":0,"x_max":0,"o":""},"个":{"ha":1389,"x_min":0,"x_max":0,"o":""},"丫":{"ha":1389,"x_min":0,"x_max":0,"o":""},"中":{"ha":1389,"x_min":0,"x_max":0,"o":""},"丮":{"ha":1389,"x_min":0,"x_max":0,"o":""},"丯":{"ha":1389,"x_min":0,"x_max":0,"o":""},"丰":{"ha":1389,"x_min":0,"x_max":0,"o":""},"丱":{"ha":1389,"x_min":0,"x_max":0,"o":""},"串":{"ha":1389,"x_min":0,"x_max":0,"o":""},"丵":{"ha":1389,"x_min":0,"x_max":0,"o":""},"丶":{"ha":1389,"x_min":0,"x_max":0,"o":""},"丸":{"ha":1389,"x_min":0,"x_max":0,"o":""},"丹":{"ha":1389,"x_min":0,"x_max":0,"o":""},"主":{"ha":1389,"x_min":0,"x_max":0,"o":""},"丼":{"ha":1389,"x_min":0,"x_max":0,"o":""},"丿":{"ha":1389,"x_min":0,"x_max":0,"o":""},"乀":{"ha":1389,"x_min":0,"x_max":0,"o":""},"乁":{"ha":1389,"x_min":0,"x_max":0,"o":""},"乂":{"ha":1389,"x_min":0,"x_max":0,"o":""},"乃":{"ha":1389,"x_min":0,"x_max":0,"o":""},"乄":{"ha":1389,"x_min":0,"x_max":0,"o":""},"久":{"ha":1389,"x_min":0,"x_max":0,"o":""},"乇":{"ha":1389,"x_min":0,"x_max":0,"o":""},"之":{"ha":1389,"x_min":0,"x_max":0,"o":""},"乍":{"ha":1389,"x_min":0,"x_max":0,"o":""},"乎":{"ha":1389,"x_min":0,"x_max":0,"o":""},"乏":{"ha":1389,"x_min":0,"x_max":0,"o":""},"乑":{"ha":1389,"x_min":0,"x_max":0,"o":""},"乕":{"ha":1389,"x_min":0,"x_max":0,"o":""},"乖":{"ha":1389,"x_min":0,"x_max":0,"o":""},"乗":{"ha":1389,"x_min":0,"x_max":0,"o":""},"乘":{"ha":1389,"x_min":0,"x_max":0,"o":""},"乙":{"ha":1389,"x_min":0,"x_max":0,"o":""},"乚":{"ha":1389,"x_min":0,"x_max":0,"o":""},"乜":{"ha":1389,"x_min":0,"x_max":0,"o":""},"九":{"ha":1389,"x_min":0,"x_max":0,"o":""},"乞":{"ha":1389,"x_min":0,"x_max":0,"o":""},"也":{"ha":1389,"x_min":0,"x_max":0,"o":""},"乢":{"ha":1389,"x_min":0,"x_max":0,"o":""},"乣":{"ha":1389,"x_min":0,"x_max":0,"o":""},"乨":{"ha":1389,"x_min":0,"x_max":0,"o":""},"乩":{"ha":1389,"x_min":0,"x_max":0,"o":""},"乱":{"ha":1389,"x_min":0,"x_max":0,"o":""},"乳":{"ha":1389,"x_min":0,"x_max":0,"o":""},"乴":{"ha":1389,"x_min":0,"x_max":0,"o":""},"乵":{"ha":1389,"x_min":0,"x_max":0,"o":""},"乹":{"ha":1389,"x_min":0,"x_max":0,"o":""},"乾":{"ha":1389,"x_min":0,"x_max":0,"o":""},"乿":{"ha":1389,"x_min":0,"x_max":0,"o":""},"亀":{"ha":1389,"x_min":0,"x_max":0,"o":""},"亂":{"ha":1389,"x_min":0,"x_max":0,"o":""},"亅":{"ha":1389,"x_min":0,"x_max":0,"o":""},"了":{"ha":1389,"x_min":0,"x_max":0,"o":""},"予":{"ha":1389,"x_min":0,"x_max":0,"o":""},"争":{"ha":1389,"x_min":0,"x_max":0,"o":""},"亊":{"ha":1389,"x_min":0,"x_max":0,"o":""},"事":{"ha":1389,"x_min":0,"x_max":0,"o":""},"二":{"ha":1389,"x_min":0,"x_max":0,"o":""},"亍":{"ha":1389,"x_min":0,"x_max":0,"o":""},"于":{"ha":1389,"x_min":0,"x_max":0,"o":""},"云":{"ha":1389,"x_min":0,"x_max":0,"o":""},"互":{"ha":1389,"x_min":0,"x_max":0,"o":""},"五":{"ha":1389,"x_min":0,"x_max":0,"o":""},"井":{"ha":1389,"x_min":0,"x_max":0,"o":""},"亖":{"ha":1389,"x_min":0,"x_max":0,"o":""},"亗":{"ha":1389,"x_min":0,"x_max":0,"o":""},"亘":{"ha":1389,"x_min":0,"x_max":0,"o":""},"亙":{"ha":1389,"x_min":0,"x_max":0,"o":""},"些":{"ha":1389,"x_min":0,"x_max":0,"o":""},"亜":{"ha":1389,"x_min":0,"x_max":0,"o":""},"亝":{"ha":1389,"x_min":0,"x_max":0,"o":""},"亞":{"ha":1389,"x_min":0,"x_max":0,"o":""},"亟":{"ha":1389,"x_min":0,"x_max":0,"o":""},"亠":{"ha":1389,"x_min":0,"x_max":0,"o":""},"亡":{"ha":1389,"x_min":0,"x_max":0,"o":""},"亢":{"ha":1389,"x_min":0,"x_max":0,"o":""},"交":{"ha":1389,"x_min":0,"x_max":0,"o":""},"亥":{"ha":1389,"x_min":0,"x_max":0,"o":""},"亦":{"ha":1389,"x_min":0,"x_max":0,"o":""},"亨":{"ha":1389,"x_min":0,"x_max":0,"o":""},"享":{"ha":1389,"x_min":0,"x_max":0,"o":""},"京":{"ha":1389,"x_min":0,"x_max":0,"o":""},"亭":{"ha":1389,"x_min":0,"x_max":0,"o":""},"亮":{"ha":1389,"x_min":0,"x_max":0,"o":""},"亯":{"ha":1389,"x_min":0,"x_max":0,"o":""},"亰":{"ha":1389,"x_min":0,"x_max":0,"o":""},"亳":{"ha":1389,"x_min":0,"x_max":0,"o":""},"亶":{"ha":1389,"x_min":0,"x_max":0,"o":""},"亹":{"ha":1389,"x_min":0,"x_max":0,"o":""},"人":{"ha":1389,"x_min":0,"x_max":0,"o":""},"什":{"ha":1389,"x_min":0,"x_max":0,"o":""},"仁":{"ha":1389,"x_min":0,"x_max":0,"o":""},"仂":{"ha":1389,"x_min":0,"x_max":0,"o":""},"仃":{"ha":1389,"x_min":0,"x_max":0,"o":""},"仄":{"ha":1389,"x_min":0,"x_max":0,"o":""},"仆":{"ha":1389,"x_min":0,"x_max":0,"o":""},"仇":{"ha":1389,"x_min":0,"x_max":0,"o":""},"今":{"ha":1389,"x_min":0,"x_max":0,"o":""},"介":{"ha":1389,"x_min":0,"x_max":0,"o":""},"仍":{"ha":1389,"x_min":0,"x_max":0,"o":""},"从":{"ha":1389,"x_min":0,"x_max":0,"o":""},"仏":{"ha":1389,"x_min":0,"x_max":0,"o":""},"仐":{"ha":1389,"x_min":0,"x_max":0,"o":""},"仔":{"ha":1389,"x_min":0,"x_max":0,"o":""},"仕":{"ha":1389,"x_min":0,"x_max":0,"o":""},"他":{"ha":1389,"x_min":0,"x_max":0,"o":""},"仗":{"ha":1389,"x_min":0,"x_max":0,"o":""},"付":{"ha":1389,"x_min":0,"x_max":0,"o":""},"仙":{"ha":1389,"x_min":0,"x_max":0,"o":""},"仚":{"ha":1389,"x_min":0,"x_max":0,"o":""},"仛":{"ha":1389,"x_min":0,"x_max":0,"o":""},"仝":{"ha":1389,"x_min":0,"x_max":0,"o":""},"仞":{"ha":1389,"x_min":0,"x_max":0,"o":""},"仟":{"ha":1389,"x_min":0,"x_max":0,"o":""},"仠":{"ha":1389,"x_min":0,"x_max":0,"o":""},"仡":{"ha":1389,"x_min":0,"x_max":0,"o":""},"仢":{"ha":1389,"x_min":0,"x_max":0,"o":""},"代":{"ha":1389,"x_min":0,"x_max":0,"o":""},"令":{"ha":1389,"x_min":0,"x_max":0,"o":""},"以":{"ha":1389,"x_min":0,"x_max":0,"o":""},"仨":{"ha":1389,"x_min":0,"x_max":0,"o":""},"仭":{"ha":1389,"x_min":0,"x_max":0,"o":""},"仮":{"ha":1389,"x_min":0,"x_max":0,"o":""},"仯":{"ha":1389,"x_min":0,"x_max":0,"o":""},"仰":{"ha":1389,"x_min":0,"x_max":0,"o":""},"仱":{"ha":1389,"x_min":0,"x_max":0,"o":""},"仲":{"ha":1389,"x_min":0,"x_max":0,"o":""},"仳":{"ha":1389,"x_min":0,"x_max":0,"o":""},"仵":{"ha":1389,"x_min":0,"x_max":0,"o":""},"件":{"ha":1389,"x_min":0,"x_max":0,"o":""},"价":{"ha":1389,"x_min":0,"x_max":0,"o":""},"任":{"ha":1389,"x_min":0,"x_max":0,"o":""},"仼":{"ha":1389,"x_min":0,"x_max":0,"o":""},"份":{"ha":1389,"x_min":0,"x_max":0,"o":""},"仾":{"ha":1389,"x_min":0,"x_max":0,"o":""},"仿":{"ha":1389,"x_min":0,"x_max":0,"o":""},"伀":{"ha":1389,"x_min":0,"x_max":0,"o":""},"企":{"ha":1389,"x_min":0,"x_max":0,"o":""},"伂":{"ha":1389,"x_min":0,"x_max":0,"o":""},"伃":{"ha":1389,"x_min":0,"x_max":0,"o":""},"伈":{"ha":1389,"x_min":0,"x_max":0,"o":""},"伉":{"ha":1389,"x_min":0,"x_max":0,"o":""},"伊":{"ha":1389,"x_min":0,"x_max":0,"o":""},"伋":{"ha":1389,"x_min":0,"x_max":0,"o":""},"伌":{"ha":1389,"x_min":0,"x_max":0,"o":""},"伍":{"ha":1389,"x_min":0,"x_max":0,"o":""},"伎":{"ha":1389,"x_min":0,"x_max":0,"o":""},"伏":{"ha":1389,"x_min":0,"x_max":0,"o":""},"伐":{"ha":1389,"x_min":0,"x_max":0,"o":""},"休":{"ha":1389,"x_min":0,"x_max":0,"o":""},"伒":{"ha":1389,"x_min":0,"x_max":0,"o":""},"伕":{"ha":1389,"x_min":0,"x_max":0,"o":""},"伖":{"ha":1389,"x_min":0,"x_max":0,"o":""},"众":{"ha":1389,"x_min":0,"x_max":0,"o":""},"伙":{"ha":1389,"x_min":0,"x_max":0,"o":""},"会":{"ha":1389,"x_min":0,"x_max":0,"o":""},"伜":{"ha":1389,"x_min":0,"x_max":0,"o":""},"伝":{"ha":1389,"x_min":0,"x_max":0,"o":""},"伮":{"ha":1389,"x_min":0,"x_max":0,"o":""},"伯":{"ha":1389,"x_min":0,"x_max":0,"o":""},"估":{"ha":1389,"x_min":0,"x_max":0,"o":""},"伱":{"ha":1389,"x_min":0,"x_max":0,"o":""},"伳":{"ha":1389,"x_min":0,"x_max":0,"o":""},"伴":{"ha":1389,"x_min":0,"x_max":0,"o":""},"伵":{"ha":1389,"x_min":0,"x_max":0,"o":""},"伶":{"ha":1389,"x_min":0,"x_max":0,"o":""},"伷":{"ha":1389,"x_min":0,"x_max":0,"o":""},"伸":{"ha":1389,"x_min":0,"x_max":0,"o":""},"伹":{"ha":1389,"x_min":0,"x_max":0,"o":""},"伺":{"ha":1389,"x_min":0,"x_max":0,"o":""},"伻":{"ha":1389,"x_min":0,"x_max":0,"o":""},"似":{"ha":1389,"x_min":0,"x_max":0,"o":""},"伽":{"ha":1389,"x_min":0,"x_max":0,"o":""},"伾":{"ha":1389,"x_min":0,"x_max":0,"o":""},"佀":{"ha":1389,"x_min":0,"x_max":0,"o":""},"佂":{"ha":1389,"x_min":0,"x_max":0,"o":""},"佃":{"ha":1389,"x_min":0,"x_max":0,"o":""},"但":{"ha":1389,"x_min":0,"x_max":0,"o":""},"佇":{"ha":1389,"x_min":0,"x_max":0,"o":""},"佈":{"ha":1389,"x_min":0,"x_max":0,"o":""},"佉":{"ha":1389,"x_min":0,"x_max":0,"o":""},"佋":{"ha":1389,"x_min":0,"x_max":0,"o":""},"佌":{"ha":1389,"x_min":0,"x_max":0,"o":""},"位":{"ha":1389,"x_min":0,"x_max":0,"o":""},"低":{"ha":1389,"x_min":0,"x_max":0,"o":""},"住":{"ha":1389,"x_min":0,"x_max":0,"o":""},"佐":{"ha":1389,"x_min":0,"x_max":0,"o":""},"佑":{"ha":1389,"x_min":0,"x_max":0,"o":""},"佒":{"ha":1389,"x_min":0,"x_max":0,"o":""},"体":{"ha":1389,"x_min":0,"x_max":0,"o":""},"佔":{"ha":1389,"x_min":0,"x_max":0,"o":""},"何":{"ha":1389,"x_min":0,"x_max":0,"o":""},"佖":{"ha":1389,"x_min":0,"x_max":0,"o":""},"佗":{"ha":1389,"x_min":0,"x_max":0,"o":""},"佘":{"ha":1389,"x_min":0,"x_max":0,"o":""},"余":{"ha":1389,"x_min":0,"x_max":0,"o":""},"佚":{"ha":1389,"x_min":0,"x_max":0,"o":""},"佛":{"ha":1389,"x_min":0,"x_max":0,"o":""},"作":{"ha":1389,"x_min":0,"x_max":0,"o":""},"佝":{"ha":1389,"x_min":0,"x_max":0,"o":""},"佞":{"ha":1389,"x_min":0,"x_max":0,"o":""},"佟":{"ha":1389,"x_min":0,"x_max":0,"o":""},"你":{"ha":1389,"x_min":0,"x_max":0,"o":""},"佣":{"ha":1389,"x_min":0,"x_max":0,"o":""},"佩":{"ha":1389,"x_min":0,"x_max":0,"o":""},"佪":{"ha":1389,"x_min":0,"x_max":0,"o":""},"佬":{"ha":1389,"x_min":0,"x_max":0,"o":""},"佮":{"ha":1389,"x_min":0,"x_max":0,"o":""},"佯":{"ha":1389,"x_min":0,"x_max":0,"o":""},"佰":{"ha":1389,"x_min":0,"x_max":0,"o":""},"佱":{"ha":1389,"x_min":0,"x_max":0,"o":""},"佳":{"ha":1389,"x_min":0,"x_max":0,"o":""},"併":{"ha":1389,"x_min":0,"x_max":0,"o":""},"佶":{"ha":1389,"x_min":0,"x_max":0,"o":""},"佷":{"ha":1389,"x_min":0,"x_max":0,"o":""},"佸":{"ha":1389,"x_min":0,"x_max":0,"o":""},"佹":{"ha":1389,"x_min":0,"x_max":0,"o":""},"佺":{"ha":1389,"x_min":0,"x_max":0,"o":""},"佻":{"ha":1389,"x_min":0,"x_max":0,"o":""},"佼":{"ha":1389,"x_min":0,"x_max":0,"o":""},"佽":{"ha":1389,"x_min":0,"x_max":0,"o":""},"佾":{"ha":1389,"x_min":0,"x_max":0,"o":""},"使":{"ha":1389,"x_min":0,"x_max":0,"o":""},"侁":{"ha":1389,"x_min":0,"x_max":0,"o":""},"侂":{"ha":1389,"x_min":0,"x_max":0,"o":""},"侃":{"ha":1389,"x_min":0,"x_max":0,"o":""},"侄":{"ha":1389,"x_min":0,"x_max":0,"o":""},"侅":{"ha":1389,"x_min":0,"x_max":0,"o":""},"來":{"ha":1389,"x_min":0,"x_max":0,"o":""},"侈":{"ha":1389,"x_min":0,"x_max":0,"o":""},"侉":{"ha":1389,"x_min":0,"x_max":0,"o":""},"侊":{"ha":1389,"x_min":0,"x_max":0,"o":""},"例":{"ha":1389,"x_min":0,"x_max":0,"o":""},"侌":{"ha":1389,"x_min":0,"x_max":0,"o":""},"侍":{"ha":1389,"x_min":0,"x_max":0,"o":""},"侎":{"ha":1389,"x_min":0,"x_max":0,"o":""},"侏":{"ha":1389,"x_min":0,"x_max":0,"o":""},"侐":{"ha":1389,"x_min":0,"x_max":0,"o":""},"侑":{"ha":1389,"x_min":0,"x_max":0,"o":""},"侒":{"ha":1389,"x_min":0,"x_max":0,"o":""},"侓":{"ha":1389,"x_min":0,"x_max":0,"o":""},"侔":{"ha":1389,"x_min":0,"x_max":0,"o":""},"侖":{"ha":1389,"x_min":0,"x_max":0,"o":""},"侗":{"ha":1389,"x_min":0,"x_max":0,"o":""},"侘":{"ha":1389,"x_min":0,"x_max":0,"o":""},"侙":{"ha":1389,"x_min":0,"x_max":0,"o":""},"侚":{"ha":1389,"x_min":0,"x_max":0,"o":""},"供":{"ha":1389,"x_min":0,"x_max":0,"o":""},"依":{"ha":1389,"x_min":0,"x_max":0,"o":""},"侞":{"ha":1389,"x_min":0,"x_max":0,"o":""},"侟":{"ha":1389,"x_min":0,"x_max":0,"o":""},"侠":{"ha":1389,"x_min":0,"x_max":0,"o":""},"価":{"ha":1389,"x_min":0,"x_max":0,"o":""},"侫":{"ha":1389,"x_min":0,"x_max":0,"o":""},"侭":{"ha":1389,"x_min":0,"x_max":0,"o":""},"侮":{"ha":1389,"x_min":0,"x_max":0,"o":""},"侯":{"ha":1389,"x_min":0,"x_max":0,"o":""},"侲":{"ha":1389,"x_min":0,"x_max":0,"o":""},"侵":{"ha":1389,"x_min":0,"x_max":0,"o":""},"侶":{"ha":1389,"x_min":0,"x_max":0,"o":""},"侷":{"ha":1389,"x_min":0,"x_max":0,"o":""},"侹":{"ha":1389,"x_min":0,"x_max":0,"o":""},"侻":{"ha":1389,"x_min":0,"x_max":0,"o":""},"侼":{"ha":1389,"x_min":0,"x_max":0,"o":""},"侽":{"ha":1389,"x_min":0,"x_max":0,"o":""},"侾":{"ha":1389,"x_min":0,"x_max":0,"o":""},"便":{"ha":1389,"x_min":0,"x_max":0,"o":""},"俀":{"ha":1389,"x_min":0,"x_max":0,"o":""},"俁":{"ha":1389,"x_min":0,"x_max":0,"o":""},"係":{"ha":1389,"x_min":0,"x_max":0,"o":""},"促":{"ha":1389,"x_min":0,"x_max":0,"o":""},"俄":{"ha":1389,"x_min":0,"x_max":0,"o":""},"俅":{"ha":1389,"x_min":0,"x_max":0,"o":""},"俆":{"ha":1389,"x_min":0,"x_max":0,"o":""},"俈":{"ha":1389,"x_min":0,"x_max":0,"o":""},"俉":{"ha":1389,"x_min":0,"x_max":0,"o":""},"俊":{"ha":1389,"x_min":0,"x_max":0,"o":""},"俋":{"ha":1389,"x_min":0,"x_max":0,"o":""},"俌":{"ha":1389,"x_min":0,"x_max":0,"o":""},"俍":{"ha":1389,"x_min":0,"x_max":0,"o":""},"俎":{"ha":1389,"x_min":0,"x_max":0,"o":""},"俏":{"ha":1389,"x_min":0,"x_max":0,"o":""},"俐":{"ha":1389,"x_min":0,"x_max":0,"o":""},"俑":{"ha":1389,"x_min":0,"x_max":0,"o":""},"俒":{"ha":1389,"x_min":0,"x_max":0,"o":""},"俔":{"ha":1389,"x_min":0,"x_max":0,"o":""},"俗":{"ha":1389,"x_min":0,"x_max":0,"o":""},"俘":{"ha":1389,"x_min":0,"x_max":0,"o":""},"俚":{"ha":1389,"x_min":0,"x_max":0,"o":""},"俛":{"ha":1389,"x_min":0,"x_max":0,"o":""},"俜":{"ha":1389,"x_min":0,"x_max":0,"o":""},"保":{"ha":1389,"x_min":0,"x_max":0,"o":""},"俟":{"ha":1389,"x_min":0,"x_max":0,"o":""},"俠":{"ha":1389,"x_min":0,"x_max":0,"o":""},"信":{"ha":1389,"x_min":0,"x_max":0,"o":""},"俢":{"ha":1389,"x_min":0,"x_max":0,"o":""},"俣":{"ha":1389,"x_min":0,"x_max":0,"o":""},"俤":{"ha":1389,"x_min":0,"x_max":0,"o":""},"俥":{"ha":1389,"x_min":0,"x_max":0,"o":""},"修":{"ha":1389,"x_min":0,"x_max":0,"o":""},"俯":{"ha":1389,"x_min":0,"x_max":0,"o":""},"俰":{"ha":1389,"x_min":0,"x_max":0,"o":""},"俲":{"ha":1389,"x_min":0,"x_max":0,"o":""},"俳":{"ha":1389,"x_min":0,"x_max":0,"o":""},"俵":{"ha":1389,"x_min":0,"x_max":0,"o":""},"俶":{"ha":1389,"x_min":0,"x_max":0,"o":""},"俸":{"ha":1389,"x_min":0,"x_max":0,"o":""},"俺":{"ha":1389,"x_min":0,"x_max":0,"o":""},"俼":{"ha":1389,"x_min":0,"x_max":0,"o":""},"俽":{"ha":1389,"x_min":0,"x_max":0,"o":""},"俾":{"ha":1389,"x_min":0,"x_max":0,"o":""},"俿":{"ha":1389,"x_min":0,"x_max":0,"o":""},"倀":{"ha":1389,"x_min":0,"x_max":0,"o":""},"倁":{"ha":1389,"x_min":0,"x_max":0,"o":""},"倄":{"ha":1389,"x_min":0,"x_max":0,"o":""},"倅":{"ha":1389,"x_min":0,"x_max":0,"o":""},"倆":{"ha":1389,"x_min":0,"x_max":0,"o":""},"倇":{"ha":1389,"x_min":0,"x_max":0,"o":""},"倉":{"ha":1389,"x_min":0,"x_max":0,"o":""},"倊":{"ha":1389,"x_min":0,"x_max":0,"o":""},"個":{"ha":1389,"x_min":0,"x_max":0,"o":""},"倌":{"ha":1389,"x_min":0,"x_max":0,"o":""},"倍":{"ha":1389,"x_min":0,"x_max":0,"o":""},"倎":{"ha":1389,"x_min":0,"x_max":0,"o":""},"倏":{"ha":1389,"x_min":0,"x_max":0,"o":""},"倐":{"ha":1389,"x_min":0,"x_max":0,"o":""},"們":{"ha":1389,"x_min":0,"x_max":0,"o":""},"倒":{"ha":1389,"x_min":0,"x_max":0,"o":""},"倓":{"ha":1389,"x_min":0,"x_max":0,"o":""},"倔":{"ha":1389,"x_min":0,"x_max":0,"o":""},"倖":{"ha":1389,"x_min":0,"x_max":0,"o":""},"倗":{"ha":1389,"x_min":0,"x_max":0,"o":""},"倘":{"ha":1389,"x_min":0,"x_max":0,"o":""},"候":{"ha":1389,"x_min":0,"x_max":0,"o":""},"倚":{"ha":1389,"x_min":0,"x_max":0,"o":""},"倛":{"ha":1389,"x_min":0,"x_max":0,"o":""},"倜":{"ha":1389,"x_min":0,"x_max":0,"o":""},"倝":{"ha":1389,"x_min":0,"x_max":0,"o":""},"倞":{"ha":1389,"x_min":0,"x_max":0,"o":""},"借":{"ha":1389,"x_min":0,"x_max":0,"o":""},"倡":{"ha":1389,"x_min":0,"x_max":0,"o":""},"倢":{"ha":1389,"x_min":0,"x_max":0,"o":""},"倣":{"ha":1389,"x_min":0,"x_max":0,"o":""},"値":{"ha":1389,"x_min":0,"x_max":0,"o":""},"倥":{"ha":1389,"x_min":0,"x_max":0,"o":""},"倦":{"ha":1389,"x_min":0,"x_max":0,"o":""},"倧":{"ha":1389,"x_min":0,"x_max":0,"o":""},"倨":{"ha":1389,"x_min":0,"x_max":0,"o":""},"倩":{"ha":1389,"x_min":0,"x_max":0,"o":""},"倪":{"ha":1389,"x_min":0,"x_max":0,"o":""},"倫":{"ha":1389,"x_min":0,"x_max":0,"o":""},"倬":{"ha":1389,"x_min":0,"x_max":0,"o":""},"倭":{"ha":1389,"x_min":0,"x_max":0,"o":""},"倮":{"ha":1389,"x_min":0,"x_max":0,"o":""},"倰":{"ha":1389,"x_min":0,"x_max":0,"o":""},"倲":{"ha":1389,"x_min":0,"x_max":0,"o":""},"倳":{"ha":1389,"x_min":0,"x_max":0,"o":""},"倵":{"ha":1389,"x_min":0,"x_max":0,"o":""},"倶":{"ha":1389,"x_min":0,"x_max":0,"o":""},"倹":{"ha":1389,"x_min":0,"x_max":0,"o":""},"倻":{"ha":1389,"x_min":0,"x_max":0,"o":""},"偀":{"ha":1389,"x_min":0,"x_max":0,"o":""},"偁":{"ha":1389,"x_min":0,"x_max":0,"o":""},"偂":{"ha":1389,"x_min":0,"x_max":0,"o":""},"偃":{"ha":1389,"x_min":0,"x_max":0,"o":""},"偅":{"ha":1389,"x_min":0,"x_max":0,"o":""},"偆":{"ha":1389,"x_min":0,"x_max":0,"o":""},"假":{"ha":1389,"x_min":0,"x_max":0,"o":""},"偈":{"ha":1389,"x_min":0,"x_max":0,"o":""},"偉":{"ha":1389,"x_min":0,"x_max":0,"o":""},"偊":{"ha":1389,"x_min":0,"x_max":0,"o":""},"偌":{"ha":1389,"x_min":0,"x_max":0,"o":""},"偎":{"ha":1389,"x_min":0,"x_max":0,"o":""},"偏":{"ha":1389,"x_min":0,"x_max":0,"o":""},"偐":{"ha":1389,"x_min":0,"x_max":0,"o":""},"偑":{"ha":1389,"x_min":0,"x_max":0,"o":""},"偒":{"ha":1389,"x_min":0,"x_max":0,"o":""},"偓":{"ha":1389,"x_min":0,"x_max":0,"o":""},"偕":{"ha":1389,"x_min":0,"x_max":0,"o":""},"偖":{"ha":1389,"x_min":0,"x_max":0,"o":""},"偗":{"ha":1389,"x_min":0,"x_max":0,"o":""},"偙":{"ha":1389,"x_min":0,"x_max":0,"o":""},"做":{"ha":1389,"x_min":0,"x_max":0,"o":""},"停":{"ha":1389,"x_min":0,"x_max":0,"o":""},"偟":{"ha":1389,"x_min":0,"x_max":0,"o":""},"偠":{"ha":1389,"x_min":0,"x_max":0,"o":""},"偢":{"ha":1389,"x_min":0,"x_max":0,"o":""},"偣":{"ha":1389,"x_min":0,"x_max":0,"o":""},"健":{"ha":1389,"x_min":0,"x_max":0,"o":""},"偦":{"ha":1389,"x_min":0,"x_max":0,"o":""},"偧":{"ha":1389,"x_min":0,"x_max":0,"o":""},"偪":{"ha":1389,"x_min":0,"x_max":0,"o":""},"偬":{"ha":1389,"x_min":0,"x_max":0,"o":""},"偭":{"ha":1389,"x_min":0,"x_max":0,"o":""},"偰":{"ha":1389,"x_min":0,"x_max":0,"o":""},"偱":{"ha":1389,"x_min":0,"x_max":0,"o":""},"偲":{"ha":1389,"x_min":0,"x_max":0,"o":""},"側":{"ha":1389,"x_min":0,"x_max":0,"o":""},"偵":{"ha":1389,"x_min":0,"x_max":0,"o":""},"偶":{"ha":1389,"x_min":0,"x_max":0,"o":""},"偸":{"ha":1389,"x_min":0,"x_max":0,"o":""},"偽":{"ha":1389,"x_min":0,"x_max":0,"o":""},"傀":{"ha":1389,"x_min":0,"x_max":0,"o":""},"傁":{"ha":1389,"x_min":0,"x_max":0,"o":""},"傃":{"ha":1389,"x_min":0,"x_max":0,"o":""},"傄":{"ha":1389,"x_min":0,"x_max":0,"o":""},"傅":{"ha":1389,"x_min":0,"x_max":0,"o":""},"傆":{"ha":1389,"x_min":0,"x_max":0,"o":""},"傊":{"ha":1389,"x_min":0,"x_max":0,"o":""},"傍":{"ha":1389,"x_min":0,"x_max":0,"o":""},"傎":{"ha":1389,"x_min":0,"x_max":0,"o":""},"傏":{"ha":1389,"x_min":0,"x_max":0,"o":""},"傐":{"ha":1389,"x_min":0,"x_max":0,"o":""},"傑":{"ha":1389,"x_min":0,"x_max":0,"o":""},"傒":{"ha":1389,"x_min":0,"x_max":0,"o":""},"傓":{"ha":1389,"x_min":0,"x_max":0,"o":""},"傔":{"ha":1389,"x_min":0,"x_max":0,"o":""},"傖":{"ha":1389,"x_min":0,"x_max":0,"o":""},"傘":{"ha":1389,"x_min":0,"x_max":0,"o":""},"備":{"ha":1389,"x_min":0,"x_max":0,"o":""},"傚":{"ha":1389,"x_min":0,"x_max":0,"o":""},"傛":{"ha":1389,"x_min":0,"x_max":0,"o":""},"傜":{"ha":1389,"x_min":0,"x_max":0,"o":""},"傞":{"ha":1389,"x_min":0,"x_max":0,"o":""},"傟":{"ha":1389,"x_min":0,"x_max":0,"o":""},"傠":{"ha":1389,"x_min":0,"x_max":0,"o":""},"傡":{"ha":1389,"x_min":0,"x_max":0,"o":""},"傢":{"ha":1389,"x_min":0,"x_max":0,"o":""},"傪":{"ha":1389,"x_min":0,"x_max":0,"o":""},"催":{"ha":1389,"x_min":0,"x_max":0,"o":""},"傭":{"ha":1389,"x_min":0,"x_max":0,"o":""},"傯":{"ha":1389,"x_min":0,"x_max":0,"o":""},"傰":{"ha":1389,"x_min":0,"x_max":0,"o":""},"傲":{"ha":1389,"x_min":0,"x_max":0,"o":""},"傳":{"ha":1389,"x_min":0,"x_max":0,"o":""},"傴":{"ha":1389,"x_min":0,"x_max":0,"o":""},"債":{"ha":1389,"x_min":0,"x_max":0,"o":""},"傷":{"ha":1389,"x_min":0,"x_max":0,"o":""},"傹":{"ha":1389,"x_min":0,"x_max":0,"o":""},"傺":{"ha":1389,"x_min":0,"x_max":0,"o":""},"傽":{"ha":1389,"x_min":0,"x_max":0,"o":""},"傾":{"ha":1389,"x_min":0,"x_max":0,"o":""},"僀":{"ha":1389,"x_min":0,"x_max":0,"o":""},"僂":{"ha":1389,"x_min":0,"x_max":0,"o":""},"僃":{"ha":1389,"x_min":0,"x_max":0,"o":""},"僄":{"ha":1389,"x_min":0,"x_max":0,"o":""},"僅":{"ha":1389,"x_min":0,"x_max":0,"o":""},"僇":{"ha":1389,"x_min":0,"x_max":0,"o":""},"僉":{"ha":1389,"x_min":0,"x_max":0,"o":""},"僊":{"ha":1389,"x_min":0,"x_max":0,"o":""},"僌":{"ha":1389,"x_min":0,"x_max":0,"o":""},"働":{"ha":1389,"x_min":0,"x_max":0,"o":""},"僎":{"ha":1389,"x_min":0,"x_max":0,"o":""},"像":{"ha":1389,"x_min":0,"x_max":0,"o":""},"僐":{"ha":1389,"x_min":0,"x_max":0,"o":""},"僑":{"ha":1389,"x_min":0,"x_max":0,"o":""},"僓":{"ha":1389,"x_min":0,"x_max":0,"o":""},"僔":{"ha":1389,"x_min":0,"x_max":0,"o":""},"僕":{"ha":1389,"x_min":0,"x_max":0,"o":""},"僖":{"ha":1389,"x_min":0,"x_max":0,"o":""},"僘":{"ha":1389,"x_min":0,"x_max":0,"o":""},"僚":{"ha":1389,"x_min":0,"x_max":0,"o":""},"僜":{"ha":1389,"x_min":0,"x_max":0,"o":""},"僝":{"ha":1389,"x_min":0,"x_max":0,"o":""},"僞":{"ha":1389,"x_min":0,"x_max":0,"o":""},"僟":{"ha":1389,"x_min":0,"x_max":0,"o":""},"僢":{"ha":1389,"x_min":0,"x_max":0,"o":""},"僣":{"ha":1389,"x_min":0,"x_max":0,"o":""},"僤":{"ha":1389,"x_min":0,"x_max":0,"o":""},"僥":{"ha":1389,"x_min":0,"x_max":0,"o":""},"僦":{"ha":1389,"x_min":0,"x_max":0,"o":""},"僧":{"ha":1389,"x_min":0,"x_max":0,"o":""},"僨":{"ha":1389,"x_min":0,"x_max":0,"o":""},"僩":{"ha":1389,"x_min":0,"x_max":0,"o":""},"僭":{"ha":1389,"x_min":0,"x_max":0,"o":""},"僮":{"ha":1389,"x_min":0,"x_max":0,"o":""},"僯":{"ha":1389,"x_min":0,"x_max":0,"o":""},"僱":{"ha":1389,"x_min":0,"x_max":0,"o":""},"僲":{"ha":1389,"x_min":0,"x_max":0,"o":""},"僴":{"ha":1389,"x_min":0,"x_max":0,"o":""},"僵":{"ha":1389,"x_min":0,"x_max":0,"o":""},"僶":{"ha":1389,"x_min":0,"x_max":0,"o":""},"價":{"ha":1389,"x_min":0,"x_max":0,"o":""},"僺":{"ha":1389,"x_min":0,"x_max":0,"o":""},"僻":{"ha":1389,"x_min":0,"x_max":0,"o":""},"僾":{"ha":1389,"x_min":0,"x_max":0,"o":""},"儀":{"ha":1389,"x_min":0,"x_max":0,"o":""},"儁":{"ha":1389,"x_min":0,"x_max":0,"o":""},"儂":{"ha":1389,"x_min":0,"x_max":0,"o":""},"儃":{"ha":1389,"x_min":0,"x_max":0,"o":""},"億":{"ha":1389,"x_min":0,"x_max":0,"o":""},"儆":{"ha":1389,"x_min":0,"x_max":0,"o":""},"儇":{"ha":1389,"x_min":0,"x_max":0,"o":""},"儈":{"ha":1389,"x_min":0,"x_max":0,"o":""},"儉":{"ha":1389,"x_min":0,"x_max":0,"o":""},"儋":{"ha":1389,"x_min":0,"x_max":0,"o":""},"儌":{"ha":1389,"x_min":0,"x_max":0,"o":""},"儍":{"ha":1389,"x_min":0,"x_max":0,"o":""},"儎":{"ha":1389,"x_min":0,"x_max":0,"o":""},"儐":{"ha":1389,"x_min":0,"x_max":0,"o":""},"儒":{"ha":1389,"x_min":0,"x_max":0,"o":""},"儔":{"ha":1389,"x_min":0,"x_max":0,"o":""},"儕":{"ha":1389,"x_min":0,"x_max":0,"o":""},"儖":{"ha":1389,"x_min":0,"x_max":0,"o":""},"儗":{"ha":1389,"x_min":0,"x_max":0,"o":""},"儘":{"ha":1389,"x_min":0,"x_max":0,"o":""},"儙":{"ha":1389,"x_min":0,"x_max":0,"o":""},"儚":{"ha":1389,"x_min":0,"x_max":0,"o":""},"儛":{"ha":1389,"x_min":0,"x_max":0,"o":""},"儜":{"ha":1389,"x_min":0,"x_max":0,"o":""},"儝":{"ha":1389,"x_min":0,"x_max":0,"o":""},"儞":{"ha":1389,"x_min":0,"x_max":0,"o":""},"償":{"ha":1389,"x_min":0,"x_max":0,"o":""},"儡":{"ha":1389,"x_min":0,"x_max":0,"o":""},"儣":{"ha":1389,"x_min":0,"x_max":0,"o":""},"儧":{"ha":1389,"x_min":0,"x_max":0,"o":""},"儨":{"ha":1389,"x_min":0,"x_max":0,"o":""},"優":{"ha":1389,"x_min":0,"x_max":0,"o":""},"儬":{"ha":1389,"x_min":0,"x_max":0,"o":""},"儭":{"ha":1389,"x_min":0,"x_max":0,"o":""},"儯":{"ha":1389,"x_min":0,"x_max":0,"o":""},"儱":{"ha":1389,"x_min":0,"x_max":0,"o":""},"儲":{"ha":1389,"x_min":0,"x_max":0,"o":""},"儳":{"ha":1389,"x_min":0,"x_max":0,"o":""},"儴":{"ha":1389,"x_min":0,"x_max":0,"o":""},"儵":{"ha":1389,"x_min":0,"x_max":0,"o":""},"儷":{"ha":1389,"x_min":0,"x_max":0,"o":""},"儸":{"ha":1389,"x_min":0,"x_max":0,"o":""},"儹":{"ha":1389,"x_min":0,"x_max":0,"o":""},"儺":{"ha":1389,"x_min":0,"x_max":0,"o":""},"儻":{"ha":1389,"x_min":0,"x_max":0,"o":""},"儼":{"ha":1389,"x_min":0,"x_max":0,"o":""},"儿":{"ha":1389,"x_min":0,"x_max":0,"o":""},"兀":{"ha":1389,"x_min":0,"x_max":0,"o":""},"允":{"ha":1389,"x_min":0,"x_max":0,"o":""},"兂":{"ha":1389,"x_min":0,"x_max":0,"o":""},"元":{"ha":1389,"x_min":0,"x_max":0,"o":""},"兄":{"ha":1389,"x_min":0,"x_max":0,"o":""},"充":{"ha":1389,"x_min":0,"x_max":0,"o":""},"兆":{"ha":1389,"x_min":0,"x_max":0,"o":""},"兇":{"ha":1389,"x_min":0,"x_max":0,"o":""},"先":{"ha":1389,"x_min":0,"x_max":0,"o":""},"光":{"ha":1389,"x_min":0,"x_max":0,"o":""},"兊":{"ha":1389,"x_min":0,"x_max":0,"o":""},"克":{"ha":1389,"x_min":0,"x_max":0,"o":""},"兌":{"ha":1389,"x_min":0,"x_max":0,"o":""},"免":{"ha":1389,"x_min":0,"x_max":0,"o":""},"兎":{"ha":1389,"x_min":0,"x_max":0,"o":""},"兏":{"ha":1389,"x_min":0,"x_max":0,"o":""},"児":{"ha":1389,"x_min":0,"x_max":0,"o":""},"兒":{"ha":1389,"x_min":0,"x_max":0,"o":""},"兓":{"ha":1389,"x_min":0,"x_max":0,"o":""},"兔":{"ha":1389,"x_min":0,"x_max":0,"o":""},"兕":{"ha":1389,"x_min":0,"x_max":0,"o":""},"兗":{"ha":1389,"x_min":0,"x_max":0,"o":""},"兘":{"ha":1389,"x_min":0,"x_max":0,"o":""},"党":{"ha":1389,"x_min":0,"x_max":0,"o":""},"兜":{"ha":1389,"x_min":0,"x_max":0,"o":""},"兟":{"ha":1389,"x_min":0,"x_max":0,"o":""},"兢":{"ha":1389,"x_min":0,"x_max":0,"o":""},"兤":{"ha":1389,"x_min":0,"x_max":0,"o":""},"入":{"ha":1389,"x_min":0,"x_max":0,"o":""},"兦":{"ha":1389,"x_min":0,"x_max":0,"o":""},"全":{"ha":1389,"x_min":0,"x_max":0,"o":""},"兩":{"ha":1389,"x_min":0,"x_max":0,"o":""},"兪":{"ha":1389,"x_min":0,"x_max":0,"o":""},"八":{"ha":1389,"x_min":0,"x_max":0,"o":""},"公":{"ha":1389,"x_min":0,"x_max":0,"o":""},"六":{"ha":1389,"x_min":0,"x_max":0,"o":""},"兮":{"ha":1389,"x_min":0,"x_max":0,"o":""},"共":{"ha":1389,"x_min":0,"x_max":0,"o":""},"兵":{"ha":1389,"x_min":0,"x_max":0,"o":""},"其":{"ha":1389,"x_min":0,"x_max":0,"o":""},"具":{"ha":1389,"x_min":0,"x_max":0,"o":""},"典":{"ha":1389,"x_min":0,"x_max":0,"o":""},"兼":{"ha":1389,"x_min":0,"x_max":0,"o":""},"兾":{"ha":1389,"x_min":0,"x_max":0,"o":""},"冀":{"ha":1389,"x_min":0,"x_max":0,"o":""},"冂":{"ha":1389,"x_min":0,"x_max":0,"o":""},"冃":{"ha":1389,"x_min":0,"x_max":0,"o":""},"冄":{"ha":1389,"x_min":0,"x_max":0,"o":""},"内":{"ha":1389,"x_min":0,"x_max":0,"o":""},"円":{"ha":1389,"x_min":0,"x_max":0,"o":""},"冉":{"ha":1389,"x_min":0,"x_max":0,"o":""},"冊":{"ha":1389,"x_min":0,"x_max":0,"o":""},"冋":{"ha":1389,"x_min":0,"x_max":0,"o":""},"册":{"ha":1389,"x_min":0,"x_max":0,"o":""},"再":{"ha":1389,"x_min":0,"x_max":0,"o":""},"冎":{"ha":1389,"x_min":0,"x_max":0,"o":""},"冏":{"ha":1389,"x_min":0,"x_max":0,"o":""},"冐":{"ha":1389,"x_min":0,"x_max":0,"o":""},"冑":{"ha":1389,"x_min":0,"x_max":0,"o":""},"冒":{"ha":1389,"x_min":0,"x_max":0,"o":""},"冓":{"ha":1389,"x_min":0,"x_max":0,"o":""},"冕":{"ha":1389,"x_min":0,"x_max":0,"o":""},"冖":{"ha":1389,"x_min":0,"x_max":0,"o":""},"冗":{"ha":1389,"x_min":0,"x_max":0,"o":""},"冘":{"ha":1389,"x_min":0,"x_max":0,"o":""},"写":{"ha":1389,"x_min":0,"x_max":0,"o":""},"冝":{"ha":1389,"x_min":0,"x_max":0,"o":""},"冠":{"ha":1389,"x_min":0,"x_max":0,"o":""},"冡":{"ha":1389,"x_min":0,"x_max":0,"o":""},"冢":{"ha":1389,"x_min":0,"x_max":0,"o":""},"冣":{"ha":1389,"x_min":0,"x_max":0,"o":""},"冤":{"ha":1389,"x_min":0,"x_max":0,"o":""},"冥":{"ha":1389,"x_min":0,"x_max":0,"o":""},"冦":{"ha":1389,"x_min":0,"x_max":0,"o":""},"冨":{"ha":1389,"x_min":0,"x_max":0,"o":""},"冩":{"ha":1389,"x_min":0,"x_max":0,"o":""},"冪":{"ha":1389,"x_min":0,"x_max":0,"o":""},"冫":{"ha":1389,"x_min":0,"x_max":0,"o":""},"冬":{"ha":1389,"x_min":0,"x_max":0,"o":""},"冭":{"ha":1389,"x_min":0,"x_max":0,"o":""},"冰":{"ha":1389,"x_min":0,"x_max":0,"o":""},"冱":{"ha":1389,"x_min":0,"x_max":0,"o":""},"冲":{"ha":1389,"x_min":0,"x_max":0,"o":""},"决":{"ha":1389,"x_min":0,"x_max":0,"o":""},"冴":{"ha":1389,"x_min":0,"x_max":0,"o":""},"况":{"ha":1389,"x_min":0,"x_max":0,"o":""},"冶":{"ha":1389,"x_min":0,"x_max":0,"o":""},"冷":{"ha":1389,"x_min":0,"x_max":0,"o":""},"冸":{"ha":1389,"x_min":0,"x_max":0,"o":""},"冺":{"ha":1389,"x_min":0,"x_max":0,"o":""},"冼":{"ha":1389,"x_min":0,"x_max":0,"o":""},"冽":{"ha":1389,"x_min":0,"x_max":0,"o":""},"冾":{"ha":1389,"x_min":0,"x_max":0,"o":""},"冿":{"ha":1389,"x_min":0,"x_max":0,"o":""},"凂":{"ha":1389,"x_min":0,"x_max":0,"o":""},"凄":{"ha":1389,"x_min":0,"x_max":0,"o":""},"凅":{"ha":1389,"x_min":0,"x_max":0,"o":""},"准":{"ha":1389,"x_min":0,"x_max":0,"o":""},"凈":{"ha":1389,"x_min":0,"x_max":0,"o":""},"凉":{"ha":1389,"x_min":0,"x_max":0,"o":""},"凋":{"ha":1389,"x_min":0,"x_max":0,"o":""},"凌":{"ha":1389,"x_min":0,"x_max":0,"o":""},"凍":{"ha":1389,"x_min":0,"x_max":0,"o":""},"减":{"ha":1389,"x_min":0,"x_max":0,"o":""},"凑":{"ha":1389,"x_min":0,"x_max":0,"o":""},"凒":{"ha":1389,"x_min":0,"x_max":0,"o":""},"凓":{"ha":1389,"x_min":0,"x_max":0,"o":""},"凕":{"ha":1389,"x_min":0,"x_max":0,"o":""},"凖":{"ha":1389,"x_min":0,"x_max":0,"o":""},"凘":{"ha":1389,"x_min":0,"x_max":0,"o":""},"凛":{"ha":1389,"x_min":0,"x_max":0,"o":""},"凜":{"ha":1389,"x_min":0,"x_max":0,"o":""},"凝":{"ha":1389,"x_min":0,"x_max":0,"o":""},"凞":{"ha":1389,"x_min":0,"x_max":0,"o":""},"几":{"ha":1389,"x_min":0,"x_max":0,"o":""},"凡":{"ha":1389,"x_min":0,"x_max":0,"o":""},"凢":{"ha":1389,"x_min":0,"x_max":0,"o":""},"凥":{"ha":1389,"x_min":0,"x_max":0,"o":""},"処":{"ha":1389,"x_min":0,"x_max":0,"o":""},"凧":{"ha":1389,"x_min":0,"x_max":0,"o":""},"凩":{"ha":1389,"x_min":0,"x_max":0,"o":""},"凪":{"ha":1389,"x_min":0,"x_max":0,"o":""},"凬":{"ha":1389,"x_min":0,"x_max":0,"o":""},"凭":{"ha":1389,"x_min":0,"x_max":0,"o":""},"凮":{"ha":1389,"x_min":0,"x_max":0,"o":""},"凰":{"ha":1389,"x_min":0,"x_max":0,"o":""},"凱":{"ha":1389,"x_min":0,"x_max":0,"o":""},"凲":{"ha":1389,"x_min":0,"x_max":0,"o":""},"凳":{"ha":1389,"x_min":0,"x_max":0,"o":""},"凴":{"ha":1389,"x_min":0,"x_max":0,"o":""},"凵":{"ha":1389,"x_min":0,"x_max":0,"o":""},"凶":{"ha":1389,"x_min":0,"x_max":0,"o":""},"凷":{"ha":1389,"x_min":0,"x_max":0,"o":""},"凸":{"ha":1389,"x_min":0,"x_max":0,"o":""},"凹":{"ha":1389,"x_min":0,"x_max":0,"o":""},"出":{"ha":1389,"x_min":0,"x_max":0,"o":""},"函":{"ha":1389,"x_min":0,"x_max":0,"o":""},"凾":{"ha":1389,"x_min":0,"x_max":0,"o":""},"刀":{"ha":1389,"x_min":0,"x_max":0,"o":""},"刁":{"ha":1389,"x_min":0,"x_max":0,"o":""},"刂":{"ha":1389,"x_min":0,"x_max":0,"o":""},"刃":{"ha":1389,"x_min":0,"x_max":0,"o":""},"刄":{"ha":1389,"x_min":0,"x_max":0,"o":""},"刅":{"ha":1389,"x_min":0,"x_max":0,"o":""},"分":{"ha":1389,"x_min":0,"x_max":0,"o":""},"切":{"ha":1389,"x_min":0,"x_max":0,"o":""},"刈":{"ha":1389,"x_min":0,"x_max":0,"o":""},"刊":{"ha":1389,"x_min":0,"x_max":0,"o":""},"刋":{"ha":1389,"x_min":0,"x_max":0,"o":""},"刎":{"ha":1389,"x_min":0,"x_max":0,"o":""},"刑":{"ha":1389,"x_min":0,"x_max":0,"o":""},"划":{"ha":1389,"x_min":0,"x_max":0,"o":""},"刓":{"ha":1389,"x_min":0,"x_max":0,"o":""},"刔":{"ha":1389,"x_min":0,"x_max":0,"o":""},"刕":{"ha":1389,"x_min":0,"x_max":0,"o":""},"刖":{"ha":1389,"x_min":0,"x_max":0,"o":""},"列":{"ha":1389,"x_min":0,"x_max":0,"o":""},"刘":{"ha":1389,"x_min":0,"x_max":0,"o":""},"初":{"ha":1389,"x_min":0,"x_max":0,"o":""},"刢":{"ha":1389,"x_min":0,"x_max":0,"o":""},"判":{"ha":1389,"x_min":0,"x_max":0,"o":""},"別":{"ha":1389,"x_min":0,"x_max":0,"o":""},"刧":{"ha":1389,"x_min":0,"x_max":0,"o":""},"刨":{"ha":1389,"x_min":0,"x_max":0,"o":""},"利":{"ha":1389,"x_min":0,"x_max":0,"o":""},"刪":{"ha":1389,"x_min":0,"x_max":0,"o":""},"刮":{"ha":1389,"x_min":0,"x_max":0,"o":""},"到":{"ha":1389,"x_min":0,"x_max":0,"o":""},"刱":{"ha":1389,"x_min":0,"x_max":0,"o":""},"刲":{"ha":1389,"x_min":0,"x_max":0,"o":""},"刳":{"ha":1389,"x_min":0,"x_max":0,"o":""},"刵":{"ha":1389,"x_min":0,"x_max":0,"o":""},"制":{"ha":1389,"x_min":0,"x_max":0,"o":""},"刷":{"ha":1389,"x_min":0,"x_max":0,"o":""},"券":{"ha":1389,"x_min":0,"x_max":0,"o":""},"刹":{"ha":1389,"x_min":0,"x_max":0,"o":""},"刺":{"ha":1389,"x_min":0,"x_max":0,"o":""},"刻":{"ha":1389,"x_min":0,"x_max":0,"o":""},"刼":{"ha":1389,"x_min":0,"x_max":0,"o":""},"剃":{"ha":1389,"x_min":0,"x_max":0,"o":""},"剄":{"ha":1389,"x_min":0,"x_max":0,"o":""},"剅":{"ha":1389,"x_min":0,"x_max":0,"o":""},"則":{"ha":1389,"x_min":0,"x_max":0,"o":""},"剉":{"ha":1389,"x_min":0,"x_max":0,"o":""},"削":{"ha":1389,"x_min":0,"x_max":0,"o":""},"剋":{"ha":1389,"x_min":0,"x_max":0,"o":""},"剌":{"ha":1389,"x_min":0,"x_max":0,"o":""},"前":{"ha":1389,"x_min":0,"x_max":0,"o":""},"剏":{"ha":1389,"x_min":0,"x_max":0,"o":""},"剔":{"ha":1389,"x_min":0,"x_max":0,"o":""},"剕":{"ha":1389,"x_min":0,"x_max":0,"o":""},"剖":{"ha":1389,"x_min":0,"x_max":0,"o":""},"剗":{"ha":1389,"x_min":0,"x_max":0,"o":""},"剘":{"ha":1389,"x_min":0,"x_max":0,"o":""},"剚":{"ha":1389,"x_min":0,"x_max":0,"o":""},"剛":{"ha":1389,"x_min":0,"x_max":0,"o":""},"剜":{"ha":1389,"x_min":0,"x_max":0,"o":""},"剞":{"ha":1389,"x_min":0,"x_max":0,"o":""},"剟":{"ha":1389,"x_min":0,"x_max":0,"o":""},"剠":{"ha":1389,"x_min":0,"x_max":0,"o":""},"剡":{"ha":1389,"x_min":0,"x_max":0,"o":""},"剣":{"ha":1389,"x_min":0,"x_max":0,"o":""},"剤":{"ha":1389,"x_min":0,"x_max":0,"o":""},"剥":{"ha":1389,"x_min":0,"x_max":0,"o":""},"剦":{"ha":1389,"x_min":0,"x_max":0,"o":""},"剩":{"ha":1389,"x_min":0,"x_max":0,"o":""},"剪":{"ha":1389,"x_min":0,"x_max":0,"o":""},"剮":{"ha":1389,"x_min":0,"x_max":0,"o":""},"副":{"ha":1389,"x_min":0,"x_max":0,"o":""},"剰":{"ha":1389,"x_min":0,"x_max":0,"o":""},"剱":{"ha":1389,"x_min":0,"x_max":0,"o":""},"割":{"ha":1389,"x_min":0,"x_max":0,"o":""},"剳":{"ha":1389,"x_min":0,"x_max":0,"o":""},"剴":{"ha":1389,"x_min":0,"x_max":0,"o":""},"創":{"ha":1389,"x_min":0,"x_max":0,"o":""},"剷":{"ha":1389,"x_min":0,"x_max":0,"o":""},"剸":{"ha":1389,"x_min":0,"x_max":0,"o":""},"剹":{"ha":1389,"x_min":0,"x_max":0,"o":""},"剽":{"ha":1389,"x_min":0,"x_max":0,"o":""},"剿":{"ha":1389,"x_min":0,"x_max":0,"o":""},"劀":{"ha":1389,"x_min":0,"x_max":0,"o":""},"劂":{"ha":1389,"x_min":0,"x_max":0,"o":""},"劃":{"ha":1389,"x_min":0,"x_max":0,"o":""},"劅":{"ha":1389,"x_min":0,"x_max":0,"o":""},"劇":{"ha":1389,"x_min":0,"x_max":0,"o":""},"劈":{"ha":1389,"x_min":0,"x_max":0,"o":""},"劉":{"ha":1389,"x_min":0,"x_max":0,"o":""},"劊":{"ha":1389,"x_min":0,"x_max":0,"o":""},"劌":{"ha":1389,"x_min":0,"x_max":0,"o":""},"劍":{"ha":1389,"x_min":0,"x_max":0,"o":""},"劑":{"ha":1389,"x_min":0,"x_max":0,"o":""},"劒":{"ha":1389,"x_min":0,"x_max":0,"o":""},"劓":{"ha":1389,"x_min":0,"x_max":0,"o":""},"劔":{"ha":1389,"x_min":0,"x_max":0,"o":""},"劕":{"ha":1389,"x_min":0,"x_max":0,"o":""},"劖":{"ha":1389,"x_min":0,"x_max":0,"o":""},"劗":{"ha":1389,"x_min":0,"x_max":0,"o":""},"劘":{"ha":1389,"x_min":0,"x_max":0,"o":""},"劚":{"ha":1389,"x_min":0,"x_max":0,"o":""},"力":{"ha":1389,"x_min":0,"x_max":0,"o":""},"劜":{"ha":1389,"x_min":0,"x_max":0,"o":""},"功":{"ha":1389,"x_min":0,"x_max":0,"o":""},"加":{"ha":1389,"x_min":0,"x_max":0,"o":""},"劣":{"ha":1389,"x_min":0,"x_max":0,"o":""},"劤":{"ha":1389,"x_min":0,"x_max":0,"o":""},"劥":{"ha":1389,"x_min":0,"x_max":0,"o":""},"劦":{"ha":1389,"x_min":0,"x_max":0,"o":""},"劧":{"ha":1389,"x_min":0,"x_max":0,"o":""},"助":{"ha":1389,"x_min":0,"x_max":0,"o":""},"努":{"ha":1389,"x_min":0,"x_max":0,"o":""},"劫":{"ha":1389,"x_min":0,"x_max":0,"o":""},"劬":{"ha":1389,"x_min":0,"x_max":0,"o":""},"劭":{"ha":1389,"x_min":0,"x_max":0,"o":""},"劯":{"ha":1389,"x_min":0,"x_max":0,"o":""},"劰":{"ha":1389,"x_min":0,"x_max":0,"o":""},"励":{"ha":1389,"x_min":0,"x_max":0,"o":""},"労":{"ha":1389,"x_min":0,"x_max":0,"o":""},"劵":{"ha":1389,"x_min":0,"x_max":0,"o":""},"劶":{"ha":1389,"x_min":0,"x_max":0,"o":""},"劷":{"ha":1389,"x_min":0,"x_max":0,"o":""},"劸":{"ha":1389,"x_min":0,"x_max":0,"o":""},"効":{"ha":1389,"x_min":0,"x_max":0,"o":""},"劺":{"ha":1389,"x_min":0,"x_max":0,"o":""},"劻":{"ha":1389,"x_min":0,"x_max":0,"o":""},"劼":{"ha":1389,"x_min":0,"x_max":0,"o":""},"劽":{"ha":1389,"x_min":0,"x_max":0,"o":""},"劾":{"ha":1389,"x_min":0,"x_max":0,"o":""},"勀":{"ha":1389,"x_min":0,"x_max":0,"o":""},"勁":{"ha":1389,"x_min":0,"x_max":0,"o":""},"勃":{"ha":1389,"x_min":0,"x_max":0,"o":""},"勄":{"ha":1389,"x_min":0,"x_max":0,"o":""},"勅":{"ha":1389,"x_min":0,"x_max":0,"o":""},"勆":{"ha":1389,"x_min":0,"x_max":0,"o":""},"勇":{"ha":1389,"x_min":0,"x_max":0,"o":""},"勈":{"ha":1389,"x_min":0,"x_max":0,"o":""},"勉":{"ha":1389,"x_min":0,"x_max":0,"o":""},"勌":{"ha":1389,"x_min":0,"x_max":0,"o":""},"勍":{"ha":1389,"x_min":0,"x_max":0,"o":""},"勏":{"ha":1389,"x_min":0,"x_max":0,"o":""},"勑":{"ha":1389,"x_min":0,"x_max":0,"o":""},"勒":{"ha":1389,"x_min":0,"x_max":0,"o":""},"勔":{"ha":1389,"x_min":0,"x_max":0,"o":""},"動":{"ha":1389,"x_min":0,"x_max":0,"o":""},"勖":{"ha":1389,"x_min":0,"x_max":0,"o":""},"勗":{"ha":1389,"x_min":0,"x_max":0,"o":""},"勘":{"ha":1389,"x_min":0,"x_max":0,"o":""},"務":{"ha":1389,"x_min":0,"x_max":0,"o":""},"勛":{"ha":1389,"x_min":0,"x_max":0,"o":""},"勜":{"ha":1389,"x_min":0,"x_max":0,"o":""},"勝":{"ha":1389,"x_min":0,"x_max":0,"o":""},"勞":{"ha":1389,"x_min":0,"x_max":0,"o":""},"募":{"ha":1389,"x_min":0,"x_max":0,"o":""},"勠":{"ha":1389,"x_min":0,"x_max":0,"o":""},"勡":{"ha":1389,"x_min":0,"x_max":0,"o":""},"勢":{"ha":1389,"x_min":0,"x_max":0,"o":""},"勣":{"ha":1389,"x_min":0,"x_max":0,"o":""},"勤":{"ha":1389,"x_min":0,"x_max":0,"o":""},"勥":{"ha":1389,"x_min":0,"x_max":0,"o":""},"勦":{"ha":1389,"x_min":0,"x_max":0,"o":""},"勧":{"ha":1389,"x_min":0,"x_max":0,"o":""},"勨":{"ha":1389,"x_min":0,"x_max":0,"o":""},"勩":{"ha":1389,"x_min":0,"x_max":0,"o":""},"勪":{"ha":1389,"x_min":0,"x_max":0,"o":""},"勬":{"ha":1389,"x_min":0,"x_max":0,"o":""},"勰":{"ha":1389,"x_min":0,"x_max":0,"o":""},"勱":{"ha":1389,"x_min":0,"x_max":0,"o":""},"勲":{"ha":1389,"x_min":0,"x_max":0,"o":""},"勳":{"ha":1389,"x_min":0,"x_max":0,"o":""},"勴":{"ha":1389,"x_min":0,"x_max":0,"o":""},"勵":{"ha":1389,"x_min":0,"x_max":0,"o":""},"勶":{"ha":1389,"x_min":0,"x_max":0,"o":""},"勷":{"ha":1389,"x_min":0,"x_max":0,"o":""},"勸":{"ha":1389,"x_min":0,"x_max":0,"o":""},"勹":{"ha":1389,"x_min":0,"x_max":0,"o":""},"勺":{"ha":1389,"x_min":0,"x_max":0,"o":""},"勾":{"ha":1389,"x_min":0,"x_max":0,"o":""},"勿":{"ha":1389,"x_min":0,"x_max":0,"o":""},"匀":{"ha":1389,"x_min":0,"x_max":0,"o":""},"匁":{"ha":1389,"x_min":0,"x_max":0,"o":""},"匂":{"ha":1389,"x_min":0,"x_max":0,"o":""},"匃":{"ha":1389,"x_min":0,"x_max":0,"o":""},"包":{"ha":1389,"x_min":0,"x_max":0,"o":""},"匆":{"ha":1389,"x_min":0,"x_max":0,"o":""},"匇":{"ha":1389,"x_min":0,"x_max":0,"o":""},"匈":{"ha":1389,"x_min":0,"x_max":0,"o":""},"匊":{"ha":1389,"x_min":0,"x_max":0,"o":""},"匋":{"ha":1389,"x_min":0,"x_max":0,"o":""},"匌":{"ha":1389,"x_min":0,"x_max":0,"o":""},"匍":{"ha":1389,"x_min":0,"x_max":0,"o":""},"匏":{"ha":1389,"x_min":0,"x_max":0,"o":""},"匐":{"ha":1389,"x_min":0,"x_max":0,"o":""},"匑":{"ha":1389,"x_min":0,"x_max":0,"o":""},"匓":{"ha":1389,"x_min":0,"x_max":0,"o":""},"匕":{"ha":1389,"x_min":0,"x_max":0,"o":""},"化":{"ha":1389,"x_min":0,"x_max":0,"o":""},"北":{"ha":1389,"x_min":0,"x_max":0,"o":""},"匘":{"ha":1389,"x_min":0,"x_max":0,"o":""},"匙":{"ha":1389,"x_min":0,"x_max":0,"o":""},"匚":{"ha":1389,"x_min":0,"x_max":0,"o":""},"匛":{"ha":1389,"x_min":0,"x_max":0,"o":""},"匜":{"ha":1389,"x_min":0,"x_max":0,"o":""},"匝":{"ha":1389,"x_min":0,"x_max":0,"o":""},"匞":{"ha":1389,"x_min":0,"x_max":0,"o":""},"匟":{"ha":1389,"x_min":0,"x_max":0,"o":""},"匠":{"ha":1389,"x_min":0,"x_max":0,"o":""},"匡":{"ha":1389,"x_min":0,"x_max":0,"o":""},"匣":{"ha":1389,"x_min":0,"x_max":0,"o":""},"匤":{"ha":1389,"x_min":0,"x_max":0,"o":""},"匥":{"ha":1389,"x_min":0,"x_max":0,"o":""},"匧":{"ha":1389,"x_min":0,"x_max":0,"o":""},"匨":{"ha":1389,"x_min":0,"x_max":0,"o":""},"匩":{"ha":1389,"x_min":0,"x_max":0,"o":""},"匪":{"ha":1389,"x_min":0,"x_max":0,"o":""},"匫":{"ha":1389,"x_min":0,"x_max":0,"o":""},"匬":{"ha":1389,"x_min":0,"x_max":0,"o":""},"匭":{"ha":1389,"x_min":0,"x_max":0,"o":""},"匯":{"ha":1389,"x_min":0,"x_max":0,"o":""},"匰":{"ha":1389,"x_min":0,"x_max":0,"o":""},"匱":{"ha":1389,"x_min":0,"x_max":0,"o":""},"匲":{"ha":1389,"x_min":0,"x_max":0,"o":""},"匳":{"ha":1389,"x_min":0,"x_max":0,"o":""},"匵":{"ha":1389,"x_min":0,"x_max":0,"o":""},"匸":{"ha":1389,"x_min":0,"x_max":0,"o":""},"匹":{"ha":1389,"x_min":0,"x_max":0,"o":""},"区":{"ha":1389,"x_min":0,"x_max":0,"o":""},"医":{"ha":1389,"x_min":0,"x_max":0,"o":""},"匼":{"ha":1389,"x_min":0,"x_max":0,"o":""},"匽":{"ha":1389,"x_min":0,"x_max":0,"o":""},"匾":{"ha":1389,"x_min":0,"x_max":0,"o":""},"匿":{"ha":1389,"x_min":0,"x_max":0,"o":""},"區":{"ha":1389,"x_min":0,"x_max":0,"o":""},"十":{"ha":1389,"x_min":0,"x_max":0,"o":""},"卂":{"ha":1389,"x_min":0,"x_max":0,"o":""},"千":{"ha":1389,"x_min":0,"x_max":0,"o":""},"卅":{"ha":1389,"x_min":0,"x_max":0,"o":""},"卆":{"ha":1389,"x_min":0,"x_max":0,"o":""},"升":{"ha":1389,"x_min":0,"x_max":0,"o":""},"午":{"ha":1389,"x_min":0,"x_max":0,"o":""},"卉":{"ha":1389,"x_min":0,"x_max":0,"o":""},"半":{"ha":1389,"x_min":0,"x_max":0,"o":""},"卋":{"ha":1389,"x_min":0,"x_max":0,"o":""},"卌":{"ha":1389,"x_min":0,"x_max":0,"o":""},"卍":{"ha":1389,"x_min":0,"x_max":0,"o":""},"卑":{"ha":1389,"x_min":0,"x_max":0,"o":""},"卒":{"ha":1389,"x_min":0,"x_max":0,"o":""},"卓":{"ha":1389,"x_min":0,"x_max":0,"o":""},"協":{"ha":1389,"x_min":0,"x_max":0,"o":""},"南":{"ha":1389,"x_min":0,"x_max":0,"o":""},"単":{"ha":1389,"x_min":0,"x_max":0,"o":""},"卙":{"ha":1389,"x_min":0,"x_max":0,"o":""},"博":{"ha":1389,"x_min":0,"x_max":0,"o":""},"卛":{"ha":1389,"x_min":0,"x_max":0,"o":""},"卜":{"ha":1389,"x_min":0,"x_max":0,"o":""},"卞":{"ha":1389,"x_min":0,"x_max":0,"o":""},"占":{"ha":1389,"x_min":0,"x_max":0,"o":""},"卡":{"ha":1389,"x_min":0,"x_max":0,"o":""},"卣":{"ha":1389,"x_min":0,"x_max":0,"o":""},"卥":{"ha":1389,"x_min":0,"x_max":0,"o":""},"卦":{"ha":1389,"x_min":0,"x_max":0,"o":""},"卩":{"ha":1389,"x_min":0,"x_max":0,"o":""},"卬":{"ha":1389,"x_min":0,"x_max":0,"o":""},"卭":{"ha":1389,"x_min":0,"x_max":0,"o":""},"卮":{"ha":1389,"x_min":0,"x_max":0,"o":""},"卯":{"ha":1389,"x_min":0,"x_max":0,"o":""},"印":{"ha":1389,"x_min":0,"x_max":0,"o":""},"危":{"ha":1389,"x_min":0,"x_max":0,"o":""},"卲":{"ha":1389,"x_min":0,"x_max":0,"o":""},"即":{"ha":1389,"x_min":0,"x_max":0,"o":""},"却":{"ha":1389,"x_min":0,"x_max":0,"o":""},"卵":{"ha":1389,"x_min":0,"x_max":0,"o":""},"卷":{"ha":1389,"x_min":0,"x_max":0,"o":""},"卸":{"ha":1389,"x_min":0,"x_max":0,"o":""},"卹":{"ha":1389,"x_min":0,"x_max":0,"o":""},"卻":{"ha":1389,"x_min":0,"x_max":0,"o":""},"卾":{"ha":1389,"x_min":0,"x_max":0,"o":""},"卿":{"ha":1389,"x_min":0,"x_max":0,"o":""},"厂":{"ha":1389,"x_min":0,"x_max":0,"o":""},"厃":{"ha":1389,"x_min":0,"x_max":0,"o":""},"厄":{"ha":1389,"x_min":0,"x_max":0,"o":""},"厇":{"ha":1389,"x_min":0,"x_max":0,"o":""},"厈":{"ha":1389,"x_min":0,"x_max":0,"o":""},"厎":{"ha":1389,"x_min":0,"x_max":0,"o":""},"厓":{"ha":1389,"x_min":0,"x_max":0,"o":""},"厔":{"ha":1389,"x_min":0,"x_max":0,"o":""},"厖":{"ha":1389,"x_min":0,"x_max":0,"o":""},"厘":{"ha":1389,"x_min":0,"x_max":0,"o":""},"厙":{"ha":1389,"x_min":0,"x_max":0,"o":""},"厚":{"ha":1389,"x_min":0,"x_max":0,"o":""},"厝":{"ha":1389,"x_min":0,"x_max":0,"o":""},"原":{"ha":1389,"x_min":0,"x_max":0,"o":""},"厠":{"ha":1389,"x_min":0,"x_max":0,"o":""},"厡":{"ha":1389,"x_min":0,"x_max":0,"o":""},"厤":{"ha":1389,"x_min":0,"x_max":0,"o":""},"厥":{"ha":1389,"x_min":0,"x_max":0,"o":""},"厦":{"ha":1389,"x_min":0,"x_max":0,"o":""},"厨":{"ha":1389,"x_min":0,"x_max":0,"o":""},"厩":{"ha":1389,"x_min":0,"x_max":0,"o":""},"厪":{"ha":1389,"x_min":0,"x_max":0,"o":""},"厫":{"ha":1389,"x_min":0,"x_max":0,"o":""},"厭":{"ha":1389,"x_min":0,"x_max":0,"o":""},"厮":{"ha":1389,"x_min":0,"x_max":0,"o":""},"厯":{"ha":1389,"x_min":0,"x_max":0,"o":""},"厰":{"ha":1389,"x_min":0,"x_max":0,"o":""},"厲":{"ha":1389,"x_min":0,"x_max":0,"o":""},"厳":{"ha":1389,"x_min":0,"x_max":0,"o":""},"厴":{"ha":1389,"x_min":0,"x_max":0,"o":""},"厵":{"ha":1389,"x_min":0,"x_max":0,"o":""},"厶":{"ha":1389,"x_min":0,"x_max":0,"o":""},"厷":{"ha":1389,"x_min":0,"x_max":0,"o":""},"厸":{"ha":1389,"x_min":0,"x_max":0,"o":""},"厺":{"ha":1389,"x_min":0,"x_max":0,"o":""},"去":{"ha":1389,"x_min":0,"x_max":0,"o":""},"厽":{"ha":1389,"x_min":0,"x_max":0,"o":""},"叀":{"ha":1389,"x_min":0,"x_max":0,"o":""},"参":{"ha":1389,"x_min":0,"x_max":0,"o":""},"參":{"ha":1389,"x_min":0,"x_max":0,"o":""},"叅":{"ha":1389,"x_min":0,"x_max":0,"o":""},"又":{"ha":1389,"x_min":0,"x_max":0,"o":""},"叉":{"ha":1389,"x_min":0,"x_max":0,"o":""},"及":{"ha":1389,"x_min":0,"x_max":0,"o":""},"友":{"ha":1389,"x_min":0,"x_max":0,"o":""},"双":{"ha":1389,"x_min":0,"x_max":0,"o":""},"反":{"ha":1389,"x_min":0,"x_max":0,"o":""},"収":{"ha":1389,"x_min":0,"x_max":0,"o":""},"叏":{"ha":1389,"x_min":0,"x_max":0,"o":""},"叒":{"ha":1389,"x_min":0,"x_max":0,"o":""},"叓":{"ha":1389,"x_min":0,"x_max":0,"o":""},"叔":{"ha":1389,"x_min":0,"x_max":0,"o":""},"叕":{"ha":1389,"x_min":0,"x_max":0,"o":""},"取":{"ha":1389,"x_min":0,"x_max":0,"o":""},"受":{"ha":1389,"x_min":0,"x_max":0,"o":""},"叙":{"ha":1389,"x_min":0,"x_max":0,"o":""},"叚":{"ha":1389,"x_min":0,"x_max":0,"o":""},"叛":{"ha":1389,"x_min":0,"x_max":0,"o":""},"叝":{"ha":1389,"x_min":0,"x_max":0,"o":""},"叞":{"ha":1389,"x_min":0,"x_max":0,"o":""},"叟":{"ha":1389,"x_min":0,"x_max":0,"o":""},"叠":{"ha":1389,"x_min":0,"x_max":0,"o":""},"叡":{"ha":1389,"x_min":0,"x_max":0,"o":""},"叢":{"ha":1389,"x_min":0,"x_max":0,"o":""},"口":{"ha":1389,"x_min":0,"x_max":0,"o":""},"古":{"ha":1389,"x_min":0,"x_max":0,"o":""},"句":{"ha":1389,"x_min":0,"x_max":0,"o":""},"另":{"ha":1389,"x_min":0,"x_max":0,"o":""},"叧":{"ha":1389,"x_min":0,"x_max":0,"o":""},"叨":{"ha":1389,"x_min":0,"x_max":0,"o":""},"叩":{"ha":1389,"x_min":0,"x_max":0,"o":""},"只":{"ha":1389,"x_min":0,"x_max":0,"o":""},"叫":{"ha":1389,"x_min":0,"x_max":0,"o":""},"召":{"ha":1389,"x_min":0,"x_max":0,"o":""},"叭":{"ha":1389,"x_min":0,"x_max":0,"o":""},"叮":{"ha":1389,"x_min":0,"x_max":0,"o":""},"可":{"ha":1389,"x_min":0,"x_max":0,"o":""},"台":{"ha":1389,"x_min":0,"x_max":0,"o":""},"叱":{"ha":1389,"x_min":0,"x_max":0,"o":""},"史":{"ha":1389,"x_min":0,"x_max":0,"o":""},"右":{"ha":1389,"x_min":0,"x_max":0,"o":""},"叵":{"ha":1389,"x_min":0,"x_max":0,"o":""},"叶":{"ha":1389,"x_min":0,"x_max":0,"o":""},"号":{"ha":1389,"x_min":0,"x_max":0,"o":""},"司":{"ha":1389,"x_min":0,"x_max":0,"o":""},"叺":{"ha":1389,"x_min":0,"x_max":0,"o":""},"吁":{"ha":1389,"x_min":0,"x_max":0,"o":""},"吂":{"ha":1389,"x_min":0,"x_max":0,"o":""},"吃":{"ha":1389,"x_min":0,"x_max":0,"o":""},"各":{"ha":1389,"x_min":0,"x_max":0,"o":""},"合":{"ha":1389,"x_min":0,"x_max":0,"o":""},"吉":{"ha":1389,"x_min":0,"x_max":0,"o":""},"吊":{"ha":1389,"x_min":0,"x_max":0,"o":""},"吋":{"ha":1389,"x_min":0,"x_max":0,"o":""},"同":{"ha":1389,"x_min":0,"x_max":0,"o":""},"名":{"ha":1389,"x_min":0,"x_max":0,"o":""},"后":{"ha":1389,"x_min":0,"x_max":0,"o":""},"吏":{"ha":1389,"x_min":0,"x_max":0,"o":""},"吐":{"ha":1389,"x_min":0,"x_max":0,"o":""},"向":{"ha":1389,"x_min":0,"x_max":0,"o":""},"吓":{"ha":1389,"x_min":0,"x_max":0,"o":""},"吚":{"ha":1389,"x_min":0,"x_max":0,"o":""},"君":{"ha":1389,"x_min":0,"x_max":0,"o":""},"吝":{"ha":1389,"x_min":0,"x_max":0,"o":""},"吟":{"ha":1389,"x_min":0,"x_max":0,"o":""},"吠":{"ha":1389,"x_min":0,"x_max":0,"o":""},"吡":{"ha":1389,"x_min":0,"x_max":0,"o":""},"否":{"ha":1389,"x_min":0,"x_max":0,"o":""},"吧":{"ha":1389,"x_min":0,"x_max":0,"o":""},"吨":{"ha":1389,"x_min":0,"x_max":0,"o":""},"吩":{"ha":1389,"x_min":0,"x_max":0,"o":""},"吪":{"ha":1389,"x_min":0,"x_max":0,"o":""},"含":{"ha":1389,"x_min":0,"x_max":0,"o":""},"听":{"ha":1389,"x_min":0,"x_max":0,"o":""},"吭":{"ha":1389,"x_min":0,"x_max":0,"o":""},"吮":{"ha":1389,"x_min":0,"x_max":0,"o":""},"启":{"ha":1389,"x_min":0,"x_max":0,"o":""},"吱":{"ha":1389,"x_min":0,"x_max":0,"o":""},"吴":{"ha":1389,"x_min":0,"x_max":0,"o":""},"吵":{"ha":1389,"x_min":0,"x_max":0,"o":""},"吶":{"ha":1389,"x_min":0,"x_max":0,"o":""},"吸":{"ha":1389,"x_min":0,"x_max":0,"o":""},"吹":{"ha":1389,"x_min":0,"x_max":0,"o":""},"吻":{"ha":1389,"x_min":0,"x_max":0,"o":""},"吼":{"ha":1389,"x_min":0,"x_max":0,"o":""},"吽":{"ha":1389,"x_min":0,"x_max":0,"o":""},"吾":{"ha":1389,"x_min":0,"x_max":0,"o":""},"呀":{"ha":1389,"x_min":0,"x_max":0,"o":""},"呂":{"ha":1389,"x_min":0,"x_max":0,"o":""},"呃":{"ha":1389,"x_min":0,"x_max":0,"o":""},"呄":{"ha":1389,"x_min":0,"x_max":0,"o":""},"呆":{"ha":1389,"x_min":0,"x_max":0,"o":""},"呇":{"ha":1389,"x_min":0,"x_max":0,"o":""},"呈":{"ha":1389,"x_min":0,"x_max":0,"o":""},"呉":{"ha":1389,"x_min":0,"x_max":0,"o":""},"告":{"ha":1389,"x_min":0,"x_max":0,"o":""},"呍":{"ha":1389,"x_min":0,"x_max":0,"o":""},"呎":{"ha":1389,"x_min":0,"x_max":0,"o":""},"呏":{"ha":1389,"x_min":0,"x_max":0,"o":""},"呑":{"ha":1389,"x_min":0,"x_max":0,"o":""},"呞":{"ha":1389,"x_min":0,"x_max":0,"o":""},"呟":{"ha":1389,"x_min":0,"x_max":0,"o":""},"呢":{"ha":1389,"x_min":0,"x_max":0,"o":""},"呤":{"ha":1389,"x_min":0,"x_max":0,"o":""},"呦":{"ha":1389,"x_min":0,"x_max":0,"o":""},"呧":{"ha":1389,"x_min":0,"x_max":0,"o":""},"周":{"ha":1389,"x_min":0,"x_max":0,"o":""},"呩":{"ha":1389,"x_min":0,"x_max":0,"o":""},"呪":{"ha":1389,"x_min":0,"x_max":0,"o":""},"呫":{"ha":1389,"x_min":0,"x_max":0,"o":""},"呭":{"ha":1389,"x_min":0,"x_max":0,"o":""},"呮":{"ha":1389,"x_min":0,"x_max":0,"o":""},"呰":{"ha":1389,"x_min":0,"x_max":0,"o":""},"呱":{"ha":1389,"x_min":0,"x_max":0,"o":""},"味":{"ha":1389,"x_min":0,"x_max":0,"o":""},"呴":{"ha":1389,"x_min":0,"x_max":0,"o":""},"呵":{"ha":1389,"x_min":0,"x_max":0,"o":""},"呶":{"ha":1389,"x_min":0,"x_max":0,"o":""},"呷":{"ha":1389,"x_min":0,"x_max":0,"o":""},"呻":{"ha":1389,"x_min":0,"x_max":0,"o":""},"呼":{"ha":1389,"x_min":0,"x_max":0,"o":""},"命":{"ha":1389,"x_min":0,"x_max":0,"o":""},"呿":{"ha":1389,"x_min":0,"x_max":0,"o":""},"咀":{"ha":1389,"x_min":0,"x_max":0,"o":""},"咁":{"ha":1389,"x_min":0,"x_max":0,"o":""},"咃":{"ha":1389,"x_min":0,"x_max":0,"o":""},"咄":{"ha":1389,"x_min":0,"x_max":0,"o":""},"咅":{"ha":1389,"x_min":0,"x_max":0,"o":""},"咆":{"ha":1389,"x_min":0,"x_max":0,"o":""},"咈":{"ha":1389,"x_min":0,"x_max":0,"o":""},"咉":{"ha":1389,"x_min":0,"x_max":0,"o":""},"咊":{"ha":1389,"x_min":0,"x_max":0,"o":""},"咋":{"ha":1389,"x_min":0,"x_max":0,"o":""},"和":{"ha":1389,"x_min":0,"x_max":0,"o":""},"咍":{"ha":1389,"x_min":0,"x_max":0,"o":""},"咎":{"ha":1389,"x_min":0,"x_max":0,"o":""},"咏":{"ha":1389,"x_min":0,"x_max":0,"o":""},"咐":{"ha":1389,"x_min":0,"x_max":0,"o":""},"咑":{"ha":1389,"x_min":0,"x_max":0,"o":""},"咒":{"ha":1389,"x_min":0,"x_max":0,"o":""},"咕":{"ha":1389,"x_min":0,"x_max":0,"o":""},"咖":{"ha":1389,"x_min":0,"x_max":0,"o":""},"咜":{"ha":1389,"x_min":0,"x_max":0,"o":""},"咟":{"ha":1389,"x_min":0,"x_max":0,"o":""},"咡":{"ha":1389,"x_min":0,"x_max":0,"o":""},"咢":{"ha":1389,"x_min":0,"x_max":0,"o":""},"咤":{"ha":1389,"x_min":0,"x_max":0,"o":""},"咥":{"ha":1389,"x_min":0,"x_max":0,"o":""},"咦":{"ha":1389,"x_min":0,"x_max":0,"o":""},"咧":{"ha":1389,"x_min":0,"x_max":0,"o":""},"咨":{"ha":1389,"x_min":0,"x_max":0,"o":""},"咩":{"ha":1389,"x_min":0,"x_max":0,"o":""},"咪":{"ha":1389,"x_min":0,"x_max":0,"o":""},"咫":{"ha":1389,"x_min":0,"x_max":0,"o":""},"咬":{"ha":1389,"x_min":0,"x_max":0,"o":""},"咭":{"ha":1389,"x_min":0,"x_max":0,"o":""},"咮":{"ha":1389,"x_min":0,"x_max":0,"o":""},"咯":{"ha":1389,"x_min":0,"x_max":0,"o":""},"咱":{"ha":1389,"x_min":0,"x_max":0,"o":""},"咲":{"ha":1389,"x_min":0,"x_max":0,"o":""},"咳":{"ha":1389,"x_min":0,"x_max":0,"o":""},"咷":{"ha":1389,"x_min":0,"x_max":0,"o":""},"咸":{"ha":1389,"x_min":0,"x_max":0,"o":""},"咹":{"ha":1389,"x_min":0,"x_max":0,"o":""},"咺":{"ha":1389,"x_min":0,"x_max":0,"o":""},"咻":{"ha":1389,"x_min":0,"x_max":0,"o":""},"咼":{"ha":1389,"x_min":0,"x_max":0,"o":""},"咽":{"ha":1389,"x_min":0,"x_max":0,"o":""},"咾":{"ha":1389,"x_min":0,"x_max":0,"o":""},"咿":{"ha":1389,"x_min":0,"x_max":0,"o":""},"哀":{"ha":1389,"x_min":0,"x_max":0,"o":""},"品":{"ha":1389,"x_min":0,"x_max":0,"o":""},"哂":{"ha":1389,"x_min":0,"x_max":0,"o":""},"哄":{"ha":1389,"x_min":0,"x_max":0,"o":""},"哆":{"ha":1389,"x_min":0,"x_max":0,"o":""},"哇":{"ha":1389,"x_min":0,"x_max":0,"o":""},"哈":{"ha":1389,"x_min":0,"x_max":0,"o":""},"哉":{"ha":1389,"x_min":0,"x_max":0,"o":""},"哊":{"ha":1389,"x_min":0,"x_max":0,"o":""},"响":{"ha":1389,"x_min":0,"x_max":0,"o":""},"哎":{"ha":1389,"x_min":0,"x_max":0,"o":""},"哘":{"ha":1389,"x_min":0,"x_max":0,"o":""},"哠":{"ha":1389,"x_min":0,"x_max":0,"o":""},"員":{"ha":1389,"x_min":0,"x_max":0,"o":""},"哢":{"ha":1389,"x_min":0,"x_max":0,"o":""},"哥":{"ha":1389,"x_min":0,"x_max":0,"o":""},"哦":{"ha":1389,"x_min":0,"x_max":0,"o":""},"哨":{"ha":1389,"x_min":0,"x_max":0,"o":""},"哩":{"ha":1389,"x_min":0,"x_max":0,"o":""},"哪":{"ha":1389,"x_min":0,"x_max":0,"o":""},"哬":{"ha":1389,"x_min":0,"x_max":0,"o":""},"哭":{"ha":1389,"x_min":0,"x_max":0,"o":""},"哮":{"ha":1389,"x_min":0,"x_max":0,"o":""},"哯":{"ha":1389,"x_min":0,"x_max":0,"o":""},"哲":{"ha":1389,"x_min":0,"x_max":0,"o":""},"哶":{"ha":1389,"x_min":0,"x_max":0,"o":""},"哺":{"ha":1389,"x_min":0,"x_max":0,"o":""},"哼":{"ha":1389,"x_min":0,"x_max":0,"o":""},"哽":{"ha":1389,"x_min":0,"x_max":0,"o":""},"哾":{"ha":1389,"x_min":0,"x_max":0,"o":""},"哿":{"ha":1389,"x_min":0,"x_max":0,"o":""},"唀":{"ha":1389,"x_min":0,"x_max":0,"o":""},"唁":{"ha":1389,"x_min":0,"x_max":0,"o":""},"唄":{"ha":1389,"x_min":0,"x_max":0,"o":""},"唅":{"ha":1389,"x_min":0,"x_max":0,"o":""},"唆":{"ha":1389,"x_min":0,"x_max":0,"o":""},"唇":{"ha":1389,"x_min":0,"x_max":0,"o":""},"唈":{"ha":1389,"x_min":0,"x_max":0,"o":""},"唉":{"ha":1389,"x_min":0,"x_max":0,"o":""},"唌":{"ha":1389,"x_min":0,"x_max":0,"o":""},"唍":{"ha":1389,"x_min":0,"x_max":0,"o":""},"唎":{"ha":1389,"x_min":0,"x_max":0,"o":""},"唏":{"ha":1389,"x_min":0,"x_max":0,"o":""},"唐":{"ha":1389,"x_min":0,"x_max":0,"o":""},"唔":{"ha":1389,"x_min":0,"x_max":0,"o":""},"唕":{"ha":1389,"x_min":0,"x_max":0,"o":""},"唖":{"ha":1389,"x_min":0,"x_max":0,"o":""},"唪":{"ha":1389,"x_min":0,"x_max":0,"o":""},"唫":{"ha":1389,"x_min":0,"x_max":0,"o":""},"售":{"ha":1389,"x_min":0,"x_max":0,"o":""},"唯":{"ha":1389,"x_min":0,"x_max":0,"o":""},"唱":{"ha":1389,"x_min":0,"x_max":0,"o":""},"唲":{"ha":1389,"x_min":0,"x_max":0,"o":""},"唳":{"ha":1389,"x_min":0,"x_max":0,"o":""},"唵":{"ha":1389,"x_min":0,"x_max":0,"o":""},"唶":{"ha":1389,"x_min":0,"x_max":0,"o":""},"唸":{"ha":1389,"x_min":0,"x_max":0,"o":""},"唹":{"ha":1389,"x_min":0,"x_max":0,"o":""},"唻":{"ha":1389,"x_min":0,"x_max":0,"o":""},"唼":{"ha":1389,"x_min":0,"x_max":0,"o":""},"唽":{"ha":1389,"x_min":0,"x_max":0,"o":""},"唾":{"ha":1389,"x_min":0,"x_max":0,"o":""},"啀":{"ha":1389,"x_min":0,"x_max":0,"o":""},"啁":{"ha":1389,"x_min":0,"x_max":0,"o":""},"啄":{"ha":1389,"x_min":0,"x_max":0,"o":""},"啅":{"ha":1389,"x_min":0,"x_max":0,"o":""},"商":{"ha":1389,"x_min":0,"x_max":0,"o":""},"啇":{"ha":1389,"x_min":0,"x_max":0,"o":""},"啉":{"ha":1389,"x_min":0,"x_max":0,"o":""},"啊":{"ha":1389,"x_min":0,"x_max":0,"o":""},"啌":{"ha":1389,"x_min":0,"x_max":0,"o":""},"啍":{"ha":1389,"x_min":0,"x_max":0,"o":""},"問":{"ha":1389,"x_min":0,"x_max":0,"o":""},"啐":{"ha":1389,"x_min":0,"x_max":0,"o":""},"啑":{"ha":1389,"x_min":0,"x_max":0,"o":""},"啓":{"ha":1389,"x_min":0,"x_max":0,"o":""},"啖":{"ha":1389,"x_min":0,"x_max":0,"o":""},"啗":{"ha":1389,"x_min":0,"x_max":0,"o":""},"啘":{"ha":1389,"x_min":0,"x_max":0,"o":""},"啚":{"ha":1389,"x_min":0,"x_max":0,"o":""},"啛":{"ha":1389,"x_min":0,"x_max":0,"o":""},"啜":{"ha":1389,"x_min":0,"x_max":0,"o":""},"啝":{"ha":1389,"x_min":0,"x_max":0,"o":""},"啞":{"ha":1389,"x_min":0,"x_max":0,"o":""},"啠":{"ha":1389,"x_min":0,"x_max":0,"o":""},"啡":{"ha":1389,"x_min":0,"x_max":0,"o":""},"啣":{"ha":1389,"x_min":0,"x_max":0,"o":""},"啤":{"ha":1389,"x_min":0,"x_max":0,"o":""},"啦":{"ha":1389,"x_min":0,"x_max":0,"o":""},"啻":{"ha":1389,"x_min":0,"x_max":0,"o":""},"啼":{"ha":1389,"x_min":0,"x_max":0,"o":""},"啾":{"ha":1389,"x_min":0,"x_max":0,"o":""},"啿":{"ha":1389,"x_min":0,"x_max":0,"o":""},"喀":{"ha":1389,"x_min":0,"x_max":0,"o":""},"喁":{"ha":1389,"x_min":0,"x_max":0,"o":""},"喂":{"ha":1389,"x_min":0,"x_max":0,"o":""},"喃":{"ha":1389,"x_min":0,"x_max":0,"o":""},"善":{"ha":1389,"x_min":0,"x_max":0,"o":""},"喆":{"ha":1389,"x_min":0,"x_max":0,"o":""},"喇":{"ha":1389,"x_min":0,"x_max":0,"o":""},"喈":{"ha":1389,"x_min":0,"x_max":0,"o":""},"喉":{"ha":1389,"x_min":0,"x_max":0,"o":""},"喊":{"ha":1389,"x_min":0,"x_max":0,"o":""},"喋":{"ha":1389,"x_min":0,"x_max":0,"o":""},"喎":{"ha":1389,"x_min":0,"x_max":0,"o":""},"喏":{"ha":1389,"x_min":0,"x_max":0,"o":""},"喑":{"ha":1389,"x_min":0,"x_max":0,"o":""},"喒":{"ha":1389,"x_min":0,"x_max":0,"o":""},"喓":{"ha":1389,"x_min":0,"x_max":0,"o":""},"喔":{"ha":1389,"x_min":0,"x_max":0,"o":""},"喗":{"ha":1389,"x_min":0,"x_max":0,"o":""},"喘":{"ha":1389,"x_min":0,"x_max":0,"o":""},"喙":{"ha":1389,"x_min":0,"x_max":0,"o":""},"喚":{"ha":1389,"x_min":0,"x_max":0,"o":""},"喜":{"ha":1389,"x_min":0,"x_max":0,"o":""},"喝":{"ha":1389,"x_min":0,"x_max":0,"o":""},"喞":{"ha":1389,"x_min":0,"x_max":0,"o":""},"喟":{"ha":1389,"x_min":0,"x_max":0,"o":""},"喣":{"ha":1389,"x_min":0,"x_max":0,"o":""},"喤":{"ha":1389,"x_min":0,"x_max":0,"o":""},"喧":{"ha":1389,"x_min":0,"x_max":0,"o":""},"喨":{"ha":1389,"x_min":0,"x_max":0,"o":""},"喩":{"ha":1389,"x_min":0,"x_max":0,"o":""},"喪":{"ha":1389,"x_min":0,"x_max":0,"o":""},"喫":{"ha":1389,"x_min":0,"x_max":0,"o":""},"喬":{"ha":1389,"x_min":0,"x_max":0,"o":""},"喭":{"ha":1389,"x_min":0,"x_max":0,"o":""},"單":{"ha":1389,"x_min":0,"x_max":0,"o":""},"喰":{"ha":1389,"x_min":0,"x_max":0,"o":""},"喲":{"ha":1389,"x_min":0,"x_max":0,"o":""},"営":{"ha":1389,"x_min":0,"x_max":0,"o":""},"喿":{"ha":1389,"x_min":0,"x_max":0,"o":""},"嗁":{"ha":1389,"x_min":0,"x_max":0,"o":""},"嗃":{"ha":1389,"x_min":0,"x_max":0,"o":""},"嗄":{"ha":1389,"x_min":0,"x_max":0,"o":""},"嗅":{"ha":1389,"x_min":0,"x_max":0,"o":""},"嗆":{"ha":1389,"x_min":0,"x_max":0,"o":""},"嗇":{"ha":1389,"x_min":0,"x_max":0,"o":""},"嗉":{"ha":1389,"x_min":0,"x_max":0,"o":""},"嗋":{"ha":1389,"x_min":0,"x_max":0,"o":""},"嗌":{"ha":1389,"x_min":0,"x_max":0,"o":""},"嗎":{"ha":1389,"x_min":0,"x_max":0,"o":""},"嗑":{"ha":1389,"x_min":0,"x_max":0,"o":""},"嗒":{"ha":1389,"x_min":0,"x_max":0,"o":""},"嗓":{"ha":1389,"x_min":0,"x_max":0,"o":""},"嗔":{"ha":1389,"x_min":0,"x_max":0,"o":""},"嗗":{"ha":1389,"x_min":0,"x_max":0,"o":""},"嗘":{"ha":1389,"x_min":0,"x_max":0,"o":""},"嗚":{"ha":1389,"x_min":0,"x_max":0,"o":""},"嗛":{"ha":1389,"x_min":0,"x_max":0,"o":""},"嗜":{"ha":1389,"x_min":0,"x_max":0,"o":""},"嗞":{"ha":1389,"x_min":0,"x_max":0,"o":""},"嗟":{"ha":1389,"x_min":0,"x_max":0,"o":""},"嗢":{"ha":1389,"x_min":0,"x_max":0,"o":""},"嗣":{"ha":1389,"x_min":0,"x_max":0,"o":""},"嗤":{"ha":1389,"x_min":0,"x_max":0,"o":""},"嗩":{"ha":1389,"x_min":0,"x_max":0,"o":""},"嗶":{"ha":1389,"x_min":0,"x_max":0,"o":""},"嗷":{"ha":1389,"x_min":0,"x_max":0,"o":""},"嗹":{"ha":1389,"x_min":0,"x_max":0,"o":""},"嗽":{"ha":1389,"x_min":0,"x_max":0,"o":""},"嗾":{"ha":1389,"x_min":0,"x_max":0,"o":""},"嗿":{"ha":1389,"x_min":0,"x_max":0,"o":""},"嘅":{"ha":1389,"x_min":0,"x_max":0,"o":""},"嘆":{"ha":1389,"x_min":0,"x_max":0,"o":""},"嘈":{"ha":1389,"x_min":0,"x_max":0,"o":""},"嘉":{"ha":1389,"x_min":0,"x_max":0,"o":""},"嘊":{"ha":1389,"x_min":0,"x_max":0,"o":""},"嘍":{"ha":1389,"x_min":0,"x_max":0,"o":""},"嘎":{"ha":1389,"x_min":0,"x_max":0,"o":""},"嘏":{"ha":1389,"x_min":0,"x_max":0,"o":""},"嘐":{"ha":1389,"x_min":0,"x_max":0,"o":""},"嘑":{"ha":1389,"x_min":0,"x_max":0,"o":""},"嘒":{"ha":1389,"x_min":0,"x_max":0,"o":""},"嘔":{"ha":1389,"x_min":0,"x_max":0,"o":""},"嘖":{"ha":1389,"x_min":0,"x_max":0,"o":""},"嘗":{"ha":1389,"x_min":0,"x_max":0,"o":""},"嘘":{"ha":1389,"x_min":0,"x_max":0,"o":""},"嘙":{"ha":1389,"x_min":0,"x_max":0,"o":""},"嘛":{"ha":1389,"x_min":0,"x_max":0,"o":""},"嘩":{"ha":1389,"x_min":0,"x_max":0,"o":""},"嘬":{"ha":1389,"x_min":0,"x_max":0,"o":""},"嘯":{"ha":1389,"x_min":0,"x_max":0,"o":""},"嘰":{"ha":1389,"x_min":0,"x_max":0,"o":""},"嘱":{"ha":1389,"x_min":0,"x_max":0,"o":""},"嘲":{"ha":1389,"x_min":0,"x_max":0,"o":""},"嘳":{"ha":1389,"x_min":0,"x_max":0,"o":""}}}
